SplineFontDB: 3.0
FontName: AnkaCoder-i
FullName: Anka/Coder Italic
FamilyName: Anka/Coder
Weight: Book
Copyright: Copyright (c) 2010, Andrey Makarov (makarov@bmstu.ru, mka-at-mailru@mail.ru),\nwith Reserved Font Name Anka/Coder.\n---------------------------------\nThe Anka/* are members of Anna Shugol name font family; March 2010
Version: 001.000
ItalicAngle: -12
UnderlinePosition: -292
UnderlineWidth: 150
Ascent: 1638
Descent: 410
LayerCount: 2
Layer: 0 0 "Back"  1
Layer: 1 0 "Fore"  0
XUID: [1021 77 1780377344 9908593]
UseXUID: 1
BaseHoriz: 0
FSType: 8
OS2Version: 1
OS2_WeightWidthSlopeOnly: 0
OS2_UseTypoMetrics: 1
CreationTime: 1260467214
ModificationTime: 1268391059
PfmFamily: 49
TTFWeight: 400
TTFWidth: 5
LineGap: 0
VLineGap: 0
Panose: 2 11 5 9 2 5 2 2 2 4
OS2TypoAscent: 0
OS2TypoAOffset: 1
OS2TypoDescent: 0
OS2TypoDOffset: 1
OS2TypoLinegap: 0
OS2WinAscent: 0
OS2WinAOffset: 1
OS2WinDescent: 0
OS2WinDOffset: 1
HheadAscent: 0
HheadAOffset: 1
HheadDescent: 0
HheadDOffset: 1
OS2SubXSize: 553
OS2SubYSize: 1229
OS2SubXOff: 0
OS2SubYOff: 283
OS2SupXSize: 553
OS2SupYSize: 1229
OS2SupXOff: 0
OS2SupYOff: 977
OS2StrikeYSize: 102
OS2StrikeYPos: 530
OS2FamilyClass: 1285
OS2Vendor: 'AVM1'
OS2CodePages: 40000097.cfd60000
OS2UnicodeRanges: 800002ef.000079eb.00000000.00000000
MacStyle: 2
DEI: 91125
ShortTable: maxp 16
  0
  0
  0
  0
  0
  0
  0
  2
  1
  0
  9
  0
  256
  0
  0
  0
EndShort
TtTable: prep
PUSHW_1
 511
SCANCTRL
SVTCA[y-axis]
MPPEM
PUSHB_1
 8
LT
IF
PUSHB_2
 1
 1
INSTCTRL
EIF
PUSHB_2
 70
 6
CALL
IF
POP
PUSHB_1
 16
EIF
MPPEM
PUSHB_1
 20
GT
IF
POP
PUSHB_1
 128
EIF
SCVTCI
PUSHB_1
 6
CALL
NOT
IF
EIF
EndTTInstrs
TtTable: fpgm
PUSHB_1
 0
FDEF
PUSHB_1
 0
SZP0
MPPEM
PUSHB_1
 42
LT
IF
PUSHB_1
 74
SROUND
EIF
PUSHB_1
 0
SWAP
MIAP[rnd]
RTG
PUSHB_1
 6
CALL
IF
RTDG
EIF
MPPEM
PUSHB_1
 42
LT
IF
RDTG
EIF
DUP
MDRP[rp0,rnd,grey]
PUSHB_1
 1
SZP0
MDAP[no-rnd]
RTG
ENDF
PUSHB_1
 1
FDEF
DUP
DUP
MDRP[rp0,min,white]
MDAP[rnd]
PUSHB_1
 7
CALL
NOT
IF
DUP
DUP
GC[orig]
SWAP
GC[cur]
SUB

StartChar: exclam
Encoding: 33 33 1
Width: 1229
VWidth: 1708
GlyphClass: 2
Flags: W
HStem: -68 194<432.398 596.285>
VStem: 417 195<-52.3284 110.08> 660 230<1221.08 1383.65>
LayerCount: 2
Fore
SplineSet
612 29 m 0
 612 -23 572 -68 514 -68 c 0
 459 -68 417 -24 417 29 c 0
 417 80 456 126 514 126 c 0
 571 126 612 82 612 29 c 0
797 1429 m 3
 857 1429 890 1395 890 1331 c 3
 890 1316 888 1299 884 1280 c 1
 672 384 l 1
 508 384 l 1
 660 1281 l 1
 680 1377 729 1429 797 1429 c 3
EndSplineSet
Validated: 3073
EndChar

StartChar: quotedbl
Encoding: 34 34 2
Width: 1229
VWidth: 1708
GlyphClass: 2
Flags: W
HStem: 1049 377
LayerCount: 2
Fore
SplineSet
914 1076 m 2
 897 1057 878 1049 861 1049 c 3
 833 1049 811 1070 811 1102 c 3
 811 1114 814 1127 821 1141 c 2
 931 1368 l 2
 951 1409 983 1426 1015 1426 c 3
 1065 1426 1115 1384 1115 1331 c 3
 1115 1309 1106 1285 1084 1261 c 2
 914 1076 l 2
494 1076 m 2
 477 1057 458 1049 441 1049 c 3
 413 1049 391 1070 391 1102 c 3
 391 1114 394 1127 401 1141 c 2
 511 1368 l 2
 531 1409 563 1426 595 1426 c 3
 645 1426 695 1384 695 1331 c 3
 695 1309 686 1285 664 1261 c 2
 494 1076 l 2
EndSplineSet
Validated: 3073
EndChar

StartChar: numbersign
Encoding: 35 35 3
Width: 1229
VWidth: 1708
GlyphClass: 2
Flags: W
HStem: 0 21G<185 341.871 628 784.871> 341 150<95 252 434 694 876 1033> 898 150<203 361 543 803 985 1141>
VStem: 185 153<0 153> 449 153<1197 1350> 628 153<0 153> 891 153<1197 1350>
DStem2: 185 0 338 0 0.207912 0.978148<31.8105 347.478 532.04 532.04 1099.53 1099.53> 628 0 781 0 0.207912 0.978148<31.8105 347.271 531.833 531.833 1099.32 1221.42>
LayerCount: 2
Fore
SplineSet
434 491 m 1
 724 491 l 1
 803 898 l 1
 513 898 l 1
 434 491 l 1
338 0 m 1
 185 0 l 1
 252 341 l 1
 66 341 l 1
 95 491 l 1
 281 491 l 1
 361 898 l 1
 174 898 l 1
 203 1048 l 1
 390 1048 l 1
 449 1350 l 1
 602 1350 l 1
 543 1048 l 1
 832 1048 l 1
 891 1350 l 1
 1044 1350 l 1
 985 1048 l 1
 1170 1048 l 1
 1141 898 l 1
 956 898 l 1
 876 491 l 1
 1062 491 l 1
 1033 341 l 1
 847 341 l 1
 781 0 l 1
 628 0 l 1
 694 341 l 1
 404 341 l 1
 338 0 l 1
EndSplineSet
Validated: 3073
EndChar

StartChar: dollar
Encoding: 36 36 4
Width: 1229
VWidth: 2334
GlyphClass: 2
Flags: W
HStem: -23 154<255.672 423 608 757.636> 1048 21G<1134.33 1236.5> 1269 154<551.397 692 877 1040.03>
VStem: 19 150<200.475 312.378> 239 150<935.849 1128.26> 952 150<287.147 554.304> 1093 150<1073.51 1220.07>
DStem2: 403 -124 556 -124 0.207912 0.978148<31.8105 102.951 292.05 829.425 1003.73 1422.65 1610.77 1683.86> 606 859 575 710 0.936864 -0.349693<-243.285 0 175.567 410.92> 839.823 -124 992.2 -124 0.207912 0.978148<379.756 568.394 1228.14 1284.98>
LayerCount: 2
Fore
SplineSet
606 859 m 1xf8
 692 1269 l 1
 531 1247 424 1165 397 1048 c 2
 390 1017 l 2
 389 1013 389 1010 389 1007 c 3
 389 943 483 905 496 900 c 2
 606 859 l 1xf8
718 657 m 1
 608 131 l 1
 781 157 922 262 941 352 c 2
 946 382 l 2
 950 400 952 418 952 434 c 3xfc
 952 511 914 584 801 626 c 2
 718 657 l 1
877 1422 m 1
 1108 1404 1243 1308 1243 1137 c 3
 1243 1110 1240 1083 1233 1048 c 1
 1085 1078 l 1
 1088 1091 1093 1113 1093 1137 c 3xfa
 1093 1192 1061 1262 846 1274 c 1
 749 806 l 1
 855 766 l 2
 1026 702 1102 572 1102 434 c 3xfc
 1102 407 1098 379 1093 352 c 2xfa
 1087 322 l 2
 1047 131 806 -6 576 -23 c 1
 556 -124 l 1
 403 -124 l 1
 423 -23 l 1
 176 -3 19 115 19 282 c 3
 19 301 22 320 26 340 c 1
 172 310 l 1
 170 300 169 290 169 282 c 3
 169 196 286 136 454 126 c 1
 575 710 l 1
 444 760 l 2
 376 786 239 858 239 1007 c 3
 239 1019 241 1032 244 1048 c 2
 251 1079 l 2
 301 1295 496 1407 724 1423 c 1
 744 1525 l 1
 897 1525 l 1
 877 1422 l 1
EndSplineSet
Validated: 3073
EndChar

StartChar: percent
Encoding: 37 37 5
Width: 1229
VWidth: 1708
GlyphClass: 2
Flags: W
HStem: -28 150<776.09 927.119> 348 150<775.886 930.593> 882 150<426.09 577.119> 1258 150<425.886 580.593>
VStem: 258 150<1049.05 1241.7> 608 150<139.05 331.699 1056.27 1235.73> 948 150<139.337 333.112>
DStem2: -76 131 26 21 0.733781 0.679386<0.113136 1838.42>
LayerCount: 2
Fore
SplineSet
1273 1380 m 1
 1375 1270 l 1
 26 21 l 1
 -76 131 l 1
 1273 1380 l 1
503 1032 m 3
 567 1032 598 1092 598 1145 c 3
 598 1208 566 1258 503 1258 c 3
 439 1258 408 1202 408 1146 c 3
 408 1089 440 1032 503 1032 c 3
258 1145 m 3
 258 1287 356 1408 503 1408 c 3
 650 1408 748 1291 748 1145 c 3
 748 1006 650 882 503 882 c 3
 356 882 259 1006 258 1145 c 3
853 122 m 3
 917 122 948 182 948 235 c 3
 948 298 916 348 853 348 c 3
 789 348 758 292 758 236 c 3
 758 179 790 122 853 122 c 3
608 235 m 3
 608 377 706 498 853 498 c 3
 1000 498 1098 381 1098 235 c 3
 1098 96 1000 -28 853 -28 c 3
 706 -28 609 96 608 235 c 3
EndSplineSet
Validated: 3073
EndChar

StartChar: ampersand
Encoding: 38 38 6
Width: 1229
VWidth: 2334
GlyphClass: 2
Flags: W
HStem: -25 150<256.625 707.245> 1275 150<596.56 953.588>
VStem: 22 150<197.432 427.953> 381 150<961.567 1213.27> 975 150<1095.01 1246.39>
DStem2: 305 702 389 576 0.862193 0.50658<-224.921 214.216 364.979 773.048> 696 757 567 681 0.496585 -0.867988<-372.596 -150.208 1.90771 446.028 659.29 814.334> 916 369 997 227 0.581479 0.813561<0 323.677>
LayerCount: 2
Fore
SplineSet
975 1196 m 3
 975 1264 822 1275 800 1275 c 2
 772 1275 l 2
 680 1275 559 1250 538 1148 c 2
 534 1126 l 2
 533 1118 531 1098 531 1094 c 3
 531 1049 556 984 619 886 c 1
 819 1004 l 2
 910 1057 956 1091 961 1113 c 2
 970 1156 l 2
 973 1169 975 1190 975 1196 c 3
891 109 m 1
 788 23 653 -25 494 -25 c 2
 468 -25 l 2
 201 -25 22 100 22 287 c 3
 22 308 25 330 29 352 c 2
 34 382 l 2
 63 526 188 634 305 702 c 2
 490 810 l 1
 401 948 381 1042 381 1103 c 3
 381 1124 383 1139 386 1154 c 2
 390 1176 l 2
 423 1338 578 1425 772 1425 c 2
 800 1425 l 2
 1063 1425 1125 1282 1125 1191 c 3
 1125 1176 1123 1161 1119 1142 c 2
 1107 1083 l 2
 1087 986 922 889 895 874 c 2
 696 757 l 1
 916 369 l 1
 1105 634 l 1
 1225 546 l 1
 997 227 l 1
 1099 47 l 1
 969 -25 l 1
 891 109 l 1
816 242 m 1
 567 681 l 1
 389 576 l 2
 238 487 195 418 182 352 c 2
 175 322 l 2
 172 309 172 297 172 287 c 3
 172 185 299 125 468 125 c 2
 494 125 l 2
 620 125 733 162 816 242 c 1
EndSplineSet
Validated: 3073
EndChar

StartChar: quotesingle
Encoding: 39 39 7
Width: 1229
VWidth: 1708
GlyphClass: 2
Flags: W
HStem: 1049 377
VStem: 621 304
LayerCount: 2
Fore
SplineSet
724 1076 m 2
 707 1057 688 1049 671 1049 c 3
 643 1049 621 1070 621 1102 c 3
 621 1114 624 1127 631 1141 c 2
 741 1368 l 2
 761 1409 793 1426 825 1426 c 3
 875 1426 925 1384 925 1331 c 3
 925 1309 916 1285 894 1261 c 2
 724 1076 l 2
EndSplineSet
Validated: 3073
EndChar

StartChar: parenleft
Encoding: 40 40 8
Width: 1229
VWidth: 1708
GlyphClass: 2
Flags: W
VStem: 402 150<369.599 806.293>
LayerCount: 2
Fore
SplineSet
1248 1410 m 1
 985 1306 552 995 552 584 c 3
 552 333 720 115 935 -16 c 1
 857 -144 l 1
 615 3 402 262 402 584 c 3
 402 1088 909 1438 1192 1550 c 1
 1248 1410 l 1
EndSplineSet
Validated: 3073
EndChar

StartChar: parenright
Encoding: 41 41 9
Width: 1229
VWidth: 1708
GlyphClass: 2
Flags: W
VStem: 755 150<634.181 1058.93>
LayerCount: 2
Fore
SplineSet
44 -13 m 1
 417 168 755 504 755 849 c 3
 755 1093 588 1309 369 1412 c 1
 433 1548 l 1
 691 1427 905 1165 905 849 c 3
 905 450 550 67 110 -147 c 1
 44 -13 l 1
EndSplineSet
Validated: 3073
EndChar

StartChar: asterisk
Encoding: 42 42 10
Width: 1229
VWidth: 1708
GlyphClass: 2
Flags: W
HStem: 642 146<236.451 280 974.037 1067.68> 1019 20G<686.5 706.5>
VStem: 631 147<911.722 1033.68>
DStem2: 297 356 407 254 0.683157 0.730271<-50.2868 289.352> 472.311 230 625.185 230 0.207912 0.978148<521.486 782.266> 572 699 495 567 0.943493 -0.331392<-281.052 -28.9052> 736 555 610 471 0.462002 -0.886879<16.2856 278.008> 727 709 736 555 0.95643 0.291963<0 282.899>
LayerCount: 2
Fore
SplineSet
848 340 m 2
 854 329 857 316 857 304 c 0
 857 277 843 252 817 239 c 0
 806 233 793 230 781 230 c 0
 754 230 729 244 716 270 c 2
 610 471 l 1
 407 254 l 2
 392 238 372 230 352 230 c 0
 334 230 315 237 301 250 c 0
 285 265 277 285 277 305 c 0
 277 323 284 342 297 356 c 2
 495 567 l 1
 280 642 l 2
 249 653 230 682 230 713 c 0
 230 721 231 730 234 738 c 0
 245 769 274 788 305 788 c 0
 313 788 322 787 330 784 c 2
 572 699 l 1
 631 980 l 2
 638 1016 669 1039 704 1039 c 0
 709 1039 714 1039 719 1038 c 0
 755 1031 778 1000 778 965 c 0
 778 960 778 955 777 950 c 2
 727 709 l 1
 977 785 l 2
 984 787 992 788 999 788 c 0
 1031 788 1061 768 1071 735 c 0
 1073 728 1074 720 1074 713 c 0
 1074 681 1054 652 1021 642 c 2
 736 555 l 1
 848 340 l 2
EndSplineSet
Validated: 3073
EndChar

StartChar: plus
Encoding: 43 43 11
Width: 1229
VWidth: 1708
GlyphClass: 2
Flags: W
HStem: 525 150<234 535 720 1021>
VStem: 458 153<153 306> 637 153<861 1014>
DStem2: 458 153 611 153 0.207912 0.978148<31.8105 379.88 565.066 879.401>
LayerCount: 2
Fore
SplineSet
234 675 m 1
 566 675 l 1
 637 1014 l 1
 790 1014 l 1
 720 675 l 1
 1052 675 l 1
 1021 525 l 1
 688 525 l 1
 611 153 l 1
 458 153 l 1
 535 525 l 1
 202 525 l 1
 234 675 l 1
EndSplineSet
Validated: 3073
EndChar

StartChar: comma
Encoding: 44 44 12
Width: 1229
VWidth: 1947
GlyphClass: 2
Flags: W
HStem: -278 57<396 463.232>
VStem: 562 150<-124.5 27.7849>
LayerCount: 2
Fore
SplineSet
545 -39 m 0
 526 -18 517 3 517 29 c 3
 517 80 556 126 614 126 c 3
 671 126 712 81 712 29 c 3
 712 29 706 -278 396 -278 c 1
 393 -221 l 1
 436 -212 562 -165 562 -89 c 3
 562 -74 559 -54 545 -39 c 0
EndSplineSet
Validated: 3073
EndChar

StartChar: hyphen
Encoding: 45 45 13
Width: 1229
VWidth: 1708
GlyphClass: 2
Flags: W
HStem: 525 150<234 1021>
LayerCount: 2
Fore
SplineSet
234 675 m 1
 1052 675 l 1
 1021 525 l 1
 202 525 l 1
 234 675 l 1
EndSplineSet
Validated: 3073
EndChar

StartChar: period
Encoding: 46 46 14
Width: 1229
VWidth: 1708
GlyphClass: 2
Flags: W
HStem: -68 28<524 531 534 540 543 548 550 555 559 562.43> -26 6<527 532> -18 2<528 530> -14 2<527 530>
VStem: 502 4<-20 -14 -12 -10> 512 2<-20 -12> 516 2<-20 -12> 520 2<-20 -12> 524 2<-18 -16> 526 8<-32 -28> 528 2<-18 -16> 532 2<-38 -34 -28 -26> 540 2<-38 -32> 544 2<-38 -30> 548 2<-38 -32> 552 2<-38 -32> 556 2<-38 -32> 560 2<-38 -32> 564 2<-38 -32>
LayerCount: 2
Fore
SplineSet
570 -38 m 25xff8fe0
 568 -38 l 25
 568 -26 l 25
 566 -26 l 25
 566 -40 l 25
 570 -40 l 25
 570 -38 l 25xff8fe0
562 -38 m 9
 560 -38 l 17
 560 -32 l 9
 562 -32 l 1
 562 -38 l 9
500 -20 m 9
 502 -20 l 25
 502 -14 l 25
 506 -14 l 25
 506 -20 l 25
 508 -20 l 25
 508 -6 l 25
 502 -6 l 17
 500 -10 l 1
 500 -20 l 9
503 -8 m 9
 506 -8 l 25
 506 -12 l 25
 502 -12 l 17
 502 -10 l 1
 503 -8 l 9
514 -12 m 25
 514 -20 l 25
 516 -20 l 17
 516 -12 l 1
 515 -10 l 9
 510 -10 l 17
 510 -20 l 9
 512 -20 l 17
 512 -12 l 9
 514 -12 l 25
522 -12 m 25
 522 -20 l 25
 524 -20 l 17
 524 -12 l 1
 523 -10 l 9
 518 -10 l 17
 518 -20 l 9
 520 -20 l 25
 520 -12 l 25
 522 -12 l 25
528 -16 m 25xffafe0
 530 -16 l 25
 530 -18 l 25
 528 -18 l 25
 528 -16 l 25xffafe0
527 -20 m 9
 532 -20 l 17
 532 -12 l 1xffbfe0
 531 -10 l 9
 526 -10 l 25
 526 -12 l 25
 530 -12 l 25
 530 -14 l 25
 527 -14 l 17
 526 -16 l 1
 526 -18 l 1
 527 -20 l 9
538 -32 m 25
 538 -40 l 25
 540 -40 l 17
 540 -32 l 1
 539 -30 l 1
 536 -30 l 1
 536 -26 l 1
 534 -26 l 9
 534 -40 l 25
 536 -40 l 25
 536 -32 l 25
 538 -32 l 25
531 -32 m 1
 526 -32 l 25
 526 -28 l 25
 532 -28 l 1
 532 -26 l 9
 525 -26 l 17
 524 -28 l 1
 524 -32 l 1
 525 -34 l 9
 530 -34 l 17
 530 -38 l 1
 524 -38 l 1
 524 -40 l 9
 531 -40 l 17
 532 -38 l 1
 532 -34 l 1
 531 -32 l 1
546 -38 m 25
 544 -38 l 25
 544 -30 l 25
 542 -30 l 17
 542 -38 l 1
 543 -40 l 9
 548 -40 l 25
 548 -30 l 25
 546 -30 l 25
 546 -38 l 25
552 -38 m 25
 552 -32 l 25
 554 -32 l 25
 554 -38 l 25
 552 -38 l 25
551 -30 m 17
 550 -32 l 1
 550 -38 l 1
 551 -40 l 9
 554 -40 l 25
 554 -42 l 25
 550 -42 l 25
 550 -44 l 25
 555 -44 l 17
 556 -42 l 1
 556 -30 l 9
 551 -30 l 17
559 -30 m 17
 558 -32 l 1
 558 -38 l 1
 559 -40 l 9
 563 -40 l 17
 564 -38 l 1
 564 -32 l 1
 563 -30 l 9
 559 -30 l 17
612 29 m 0
 612 -23 572 -68 514 -68 c 0
 459 -68 417 -24 417 29 c 0
 417 80 456 126 514 126 c 0
 571 126 612 82 612 29 c 0
EndSplineSet
EndChar

StartChar: slash
Encoding: 47 47 15
Width: 1229
VWidth: 1708
GlyphClass: 2
Flags: W
DStem2: 29 21 147 -71 0.611634 0.791141<0 1832.18>
LayerCount: 2
Fore
SplineSet
1150 1471 m 1
 1268 1379 l 1
 147 -71 l 1
 29 21 l 1
 1150 1471 l 1
EndSplineSet
Validated: 3073
EndChar

StartChar: zero
Encoding: 48 48 16
Width: 1229
VWidth: 1947
GlyphClass: 2
Flags: W
HStem: -25 150<353.299 690.412> -3 21G<-7.71242 21.1043> 1275 150<585.859 954.023>
DStem2: -59 150 0 -3 0.730254 0.683176<0 175.52 463.44 1345.01 1623.72 1797.1> 8.55838 -25 160.935 -25 0.207912 0.978148<539.188 1177.77> 827.346 -25 980.148 -25 0.207912 0.978148<375.305 1001.73>
LayerCount: 2
Fore
SplineSet
1026 959 m 1xa0
 291 271 l 1
 320 160 393 125 497 125 c 2
 524 125 l 2
 794 125 914 390 984 712 c 2
 999 781 l 2
 1015 857 1022 915 1026 959 c 1xa0
794 1275 m 2
 766 1275 l 2
 482 1275 386 1037 325 748 c 2
 311 681 l 2
 292 589 284 519 280 466 c 1
 1011 1151 l 1
 979 1244 905 1275 794 1275 c 2
-59 150 m 1
 130 327 l 1
 128 350 127 373 127 399 c 3
 127 461 133 558 165 711 c 2
 179 778 l 2
 244 1089 372 1425 766 1425 c 2
 794 1425 l 2
 922 1425 1056 1387 1127 1259 c 1
 1306 1427 l 1
 1356 1268 l 1
 1174 1098 l 1
 1177 1074 1178 1050 1178 1023 c 3
 1178 968 1174 880 1145 749 c 2
 1130 680 l 2
 1062 367 918 -25 524 -25 c 2
 497 -25 l 2xa0
 365 -25 237 21 172 160 c 1
 0 -3 l 1x60
 -59 150 l 1
EndSplineSet
Validated: 3073
EndChar

StartChar: one
Encoding: 49 49 17
Width: 1229
VWidth: 1708
GlyphClass: 2
Flags: W
HStem: -25 21G<567 723.166> 1405 20G<866.938 1021>
VStem: 567 152<-25 127>
DStem2: 567 -25 719 -25 0.207912 0.978148<31.6026 1258.3>
LayerCount: 2
Fore
SplineSet
1021 1425 m 1
 719 -25 l 1
 567 -25 l 1
 823 1207 l 1
 599 1086 l 1
 568 1134 l 1
 889 1425 l 1
 1021 1425 l 1
EndSplineSet
Validated: 3073
EndChar

StartChar: two
Encoding: 50 50 18
Width: 1229
VWidth: 2334
GlyphClass: 2
Flags: W
HStem: 0 150<227 987> 1275 150<529.527 1009.16>
VStem: 1066 150<1025.92 1218.34>
DStem2: 315 469 401 345 0.82224 0.56914<-212.143 922.722>
LayerCount: 2
Fore
SplineSet
772 1425 m 2
 797 1425 l 2
 1148 1425 1216 1247 1216 1128 c 3
 1216 1124 1215 1094 1214 1089 c 2
 1196 1001 l 2
 1174 894 1074 811 1015 770 c 2
 401 345 l 2
 334 298 271 223 227 150 c 1
 1018 150 l 1
 987 0 l 1
 47 0 l 1
 92 216 l 1
 144 307 222 404 315 469 c 2
 929 894 l 2
 1005 946 1045 1009 1052 1039 c 2
 1061 1080 l 2
 1063 1087 1066 1122 1066 1128 c 3
 1066 1246 934 1275 797 1275 c 2
 772 1275 l 2
 576 1275 494 1230 414 1133 c 1
 298 1229 l 1
 398 1350 515 1425 772 1425 c 2
EndSplineSet
Validated: 3073
EndChar

StartChar: three
Encoding: 51 51 19
Width: 1229
VWidth: 2334
GlyphClass: 2
Flags: W
HStem: -25 150<295.027 730.514> 734 150<439 818.105> 1275 150<550.319 962.792>
VStem: 77 150<185.771 262> 943 150<423.134 672.58> 1005 150<1042.42 1235.38>
DStem2: 828.185 -25 981.412 -25 0.207912 0.978148<290.404 587.201>
LayerCount: 2
Fore
SplineSet
772 1425 m 2xf4
 797 1425 l 2
 1019 1425 1155 1319 1155 1148 c 3xf4
 1155 1125 1152 1101 1147 1077 c 2
 1138 1036 l 2
 1136 1029 1120 932 946 826 c 1
 1065 757 1093 640 1093 552 c 3
 1093 517 1089 470 1081 440 c 2
 1076 420 l 2
 1001 120 808 -25 527 -25 c 2
 502 -25 l 2
 254 -25 77 90 77 262 c 1
 227 262 l 1
 227 146 430 125 502 125 c 2
 527 125 l 2
 764 125 879 249 930 454 c 2
 935 474 l 2
 941 496 943 529 943 552 c 3xf8
 943 648 897 734 685 734 c 2
 439 734 l 1
 439 884 l 1
 648 884 l 2
 809 884 982 1023 992 1068 c 2
 1001 1109 l 2
 1004 1124 1005 1136 1005 1148 c 3
 1005 1250 898 1275 797 1275 c 2
 772 1275 l 2
 621 1275 486 1221 427 1144 c 1
 309 1236 l 1
 414 1371 610 1425 772 1425 c 2xf4
EndSplineSet
Validated: 3073
EndChar

StartChar: four
Encoding: 52 52 20
Width: 1229
VWidth: 1708
GlyphClass: 2
Flags: W
HStem: 0 21G<734 891.205> 352 150<341 808 993 1121> 1405 20G<1041.74 1187>
VStem: 734 153<0 153>
DStem2: 123 498 341 502 0.711639 0.702545<157.948 1041.85> 734 0 887 0 0.207912 0.978148<31.8105 359.693 544.879 1147.53>
LayerCount: 2
Fore
SplineSet
970 1123 m 1
 341 502 l 1
 839 502 l 1
 970 1123 l 1
123 498 m 1
 1062 1425 l 1
 1187 1425 l 1
 993 502 l 1
 1153 502 l 1
 1121 352 l 1
 961 352 l 1
 887 0 l 1
 734 0 l 1
 808 352 l 1
 92 352 l 1
 123 498 l 1
EndSplineSet
Validated: 3073
EndChar

StartChar: five
Encoding: 53 53 21
Width: 1229
VWidth: 2334
GlyphClass: 2
Flags: W
HStem: -25 150<253.121 727.562> 804 150<509.125 876.188> 1250 150<555 1221>
VStem: 954 150<482.902 730.783>
DStem2: 201 726 420 885 0.347767 0.937581<0 28.4594 225.236 614.402> 932 462 1078 432 0.176917 0.984226<-199.899 144.464>
LayerCount: 2
Fore
SplineSet
348 638 m 1
 201 726 l 1
 451 1400 l 1
 1252 1400 l 1
 1221 1250 l 1
 555 1250 l 1
 420 885 l 1
 507 931 599 954 674 954 c 2
 699 954 l 2
 969 954 1104 811 1104 606 c 3
 1104 569 1099 531 1091 492 c 2
 1078 432 l 2
 1016 131 819 -25 527 -25 c 2
 428 -25 l 2
 256 -25 75 64 25 212 c 1
 164 271 l 1
 184 182 316 125 428 125 c 2
 527 125 l 2
 763 125 888 247 932 462 c 2
 945 522 l 2
 951 552 954 581 954 606 c 3
 954 711 903 804 699 804 c 2
 674 804 l 2
 579 804 438 746 348 638 c 1
EndSplineSet
Validated: 3073
EndChar

StartChar: six
Encoding: 54 54 22
Width: 1229
VWidth: 2334
GlyphClass: 2
Flags: W
HStem: -25 150<323.03 728.484> 804 150<480.081 884.373> 1275 150<578.072 983.078>
VStem: 96 150<199.056 545.178> 952 150<375.148 738.677>
DStem2: 9.73609 -25 162.113 -25 0.207912 0.978148<397.467 737.197 935.219 1221.63> 828.524 -25 981.325 -25 0.207912 0.978148<287.346 641.505>
LayerCount: 2
Fore
SplineSet
1066 1203 m 1
 1039 1266 918 1275 797 1275 c 2
 772 1275 l 2
 544 1275 403 1122 369 959 c 2
 349 859 l 1
 437 919 546 954 674 954 c 2
 699 954 l 2
 967 954 1102 822 1102 606 c 3
 1102 564 1097 518 1087 471 c 2
 1074 411 l 2
 1017 146 821 -25 527 -25 c 2
 502 -25 l 2
 271 -25 96 95 96 330 c 3
 96 366 101 403 109 442 c 2
 223 989 l 2
 271 1219 472 1425 772 1425 c 2
 797 1425 l 2
 918 1425 1135 1423 1204 1261 c 1
 1066 1203 l 1
255 412 m 2
 249 381 246 354 246 330 c 3
 246 166 378 125 502 125 c 2
 527 125 l 2
 761 125 888 257 928 443 c 2
 941 503 l 2
 949 542 952 576 952 606 c 3
 952 723 899 804 699 804 c 2
 674 804 l 2
 447 804 311 663 270 479 c 2
 255 412 l 2
EndSplineSet
Validated: 3073
EndChar

StartChar: seven
Encoding: 55 55 23
Width: 1229
VWidth: 1708
GlyphClass: 2
Flags: W
HStem: 0 21G<140 421> 1250 150<307 1055>
VStem: 140 171<0 171>
LayerCount: 2
Fore
SplineSet
276 1250 m 1
 307 1400 l 1
 1278 1400 l 1
 1244 1233 l 1
 874 836 531 401 311 0 c 1
 254 0 197 0 140 0 c 1
 353 411 692 851 1055 1250 c 1
 276 1250 l 1
EndSplineSet
Validated: 3073
EndChar

StartChar: eight
Encoding: 56 56 24
Width: 1229
VWidth: 2334
GlyphClass: 2
Flags: W
HStem: -25 150<325.037 744.403> 734 150<515.885 855.604> 1275 150<587.806 953.395>
VStem: 93 150<202.226 516.109> 305 150<938.997 1125.59> 943 150<334.94 681.083> 1007 150<1050.3 1224.05>
DStem2: 9.5379 -25 163.915 -25 0.207912 0.978148<386.827 687.283> 828.538 -25 982.915 -25 0.207912 0.978148<267.418 596.682>
LayerCount: 2
Fore
SplineSet
260 432 m 2xfc
 250 380 l 2
 245 358 243 338 243 320 c 3
 243 164 393 125 502 125 c 2
 527 125 l 2
 750 125 881 221 921 410 c 2
 931 462 l 2
 939 500 943 534 943 562 c 3
 943 665 897 733 688 734 c 2
 657 734 l 2
 436 733 301 625 260 432 c 2xfc
1157 1149 m 3xfa
 1157 1134 1156 1119 1152 1100 c 2
 1142 1048 l 2
 1128 975 1059 879 967 819 c 1
 1055 763 1093 673 1093 562 c 3xfc
 1093 521 1089 478 1079 432 c 2
 1069 380 l 2
 1017 129 832 -25 527 -25 c 2
 502 -25 l 2
 256 -25 93 113 93 320 c 3
 93 349 95 379 102 410 c 2
 112 462 l 2
 147 631 244 762 394 831 c 1
 337 885 305 956 305 1030 c 3
 305 1045 306 1060 310 1079 c 2
 321 1131 l 2
 352 1279 533 1425 772 1425 c 2
 797 1425 l 2
 1015 1425 1157 1300 1157 1149 c 3xfa
797 1275 m 2
 772 1275 l 2
 590 1275 481 1166 467 1101 c 2
 456 1049 l 2
 455 1044 455 1037 455 1030 c 3
 455 959 529 884 657 884 c 2
 688 884 l 2
 847 884 979 1000 994 1078 c 2
 1004 1130 l 2
 1006 1137 1007 1144 1007 1149 c 3xfa
 1007 1206 940 1275 797 1275 c 2
EndSplineSet
Validated: 3073
EndChar

StartChar: nine
Encoding: 57 57 25
Width: 1229
VWidth: 2334
GlyphClass: 2
Flags: W
HStem: -25 150<342.461 727.863> 478 150<430.078 849.88> 1275 150<578.814 974.904>
VStem: 201 150<699.775 959.8> 1054 150<862.778 1201.39>
DStem2: 7.82014 -25 160.197 -25 0.207912 0.978148<910.772 1230.29> 828.886 -25 981.263 -25 0.207912 0.978148<284.579 594.879 783.809 1129.72>
LayerCount: 2
Fore
SplineSet
233 197 m 1
 259 134 396 125 502 125 c 2
 527 125 l 2
 746 125 884 231 929 446 c 2
 952 557 l 1
 867 505 760 478 631 478 c 2
 606 478 l 2
 339 478 201 626 201 832 c 3
 201 869 206 906 214 945 c 2
 229 1020 l 2
 273 1232 473 1425 772 1425 c 2
 797 1425 l 2
 1046 1425 1204 1288 1204 1083 c 3
 1204 1053 1200 1022 1194 990 c 2
 1075 416 l 2
 1021 158 846 -25 527 -25 c 2
 502 -25 l 2
 411 -25 159 -12 95 139 c 1
 233 197 l 1
1048 1020 m 2
 1053 1043 1054 1064 1054 1083 c 3
 1054 1237 910 1275 797 1275 c 2
 772 1275 l 2
 543 1275 405 1132 375 990 c 2
 360 915 l 2
 354 885 351 857 351 832 c 3
 351 669 476 628 606 628 c 2
 631 628 l 2
 840 628 980 706 1026 917 c 2
 1048 1020 l 2
EndSplineSet
Validated: 3073
EndChar

StartChar: less
Encoding: 60 60 28
Width: 1229
VWidth: 1708
GlyphClass: 2
Flags: W
DStem2: 411 592 243 529 0.800897 -0.598802<0 634.401> 275 687 411 592 0.868751 0.49525<71.1014 837.884>
LayerCount: 2
Fore
SplineSet
275 687 m 1
 1117 1167 l 1
 1077 972 l 1
 411 592 l 1
 919 212 l 1
 885 49 l 1
 243 529 l 1
 275 687 l 1
EndSplineSet
Validated: 3073
EndChar

StartChar: equal
Encoding: 61 61 29
Width: 1229
VWidth: 1708
GlyphClass: 2
Flags: W
HStem: 325 150<192 979> 767 150<284 1071>
LayerCount: 2
Fore
SplineSet
284 917 m 1
 1103 917 l 1
 1071 767 l 1
 253 767 l 1
 284 917 l 1
192 475 m 1
 1011 475 l 1
 979 325 l 1
 161 325 l 1
 192 475 l 1
EndSplineSet
Validated: 3073
EndChar

StartChar: greater
Encoding: 62 62 30
Width: 1229
VWidth: 1708
GlyphClass: 2
Flags: W
DStem2: 180 228 140 32 0.868053 0.496472<0 767.651> 372 1151 338 989 0.800897 -0.598802<69.7754 705.576>
LayerCount: 2
Fore
SplineSet
372 1151 m 1
 1014 671 l 1
 981 513 l 1
 140 32 l 1
 180 228 l 1
 847 608 l 1
 338 989 l 1
 372 1151 l 1
EndSplineSet
Validated: 3073
EndChar

StartChar: question
Encoding: 63 63 31
Width: 1229
VWidth: 1708
GlyphClass: 2
Flags: W
HStem: -68 194<424.398 588.285> 1275 150<537.095 1009.06>
VStem: 248 146<1108.66 1157.85> 409 195<-52.3284 110.08> 1070 150<985.025 1222.54>
DStem2: 410.49 -68 563.49 -68 0.207912 0.978148<447.903 693.652> 705 734 793 612 0.810297 0.586019<-171.709 457.737> 816.608 -68 969.077 -68 0.207912 0.978148<1024.78 1235.83>
LayerCount: 2
Fore
SplineSet
531 496 m 2
 554 601 630 680 705 734 c 2
 929 896 l 2
 1014 957 1046 1007 1052 1039 c 2
 1067 1110 l 2
 1069 1121 1070 1133 1070 1142 c 3
 1070 1249 920 1275 797 1275 c 2
 772 1275 l 2
 540 1275 419 1186 394 1078 c 1
 248 1112 l 1
 286 1277 450 1425 772 1425 c 2
 797 1425 l 2
 1143 1425 1220 1255 1220 1142 c 3
 1220 1121 1217 1101 1213 1080 c 2
 1198 1009 l 2
 1177 904 1097 832 1017 774 c 2
 793 612 l 2
 709 551 684 497 677 464 c 2
 650 339 l 1
 497 339 l 1
 531 496 l 2
604 29 m 0
 604 -23 564 -68 506 -68 c 0
 451 -68 409 -24 409 29 c 0
 409 80 448 126 506 126 c 0
 563 126 604 82 604 29 c 0
EndSplineSet
Validated: 3073
EndChar

StartChar: at
Encoding: 64 64 32
Width: 1229
VWidth: 1708
GlyphClass: 2
Flags: W
HStem: -25 150<353.162 847.187> 360 150<704.882 946.011> 925 150<788.264 1088> 1275 150<577.56 1033.68>
VStem: 74 150<273.487 806.956> 536 150<529.786 817.25> 1124 150<981.224 1201.54>
DStem2: 889.441 -25 1041.82 -25 0.207912 0.978148<388.478 431.399 602.041 970.523 1123.69 1162.14>
LayerCount: 2
Fore
SplineSet
686 633 m 3
 686 525 745 510 814 510 c 27
 916 510 1021 600 1032 654 c 2
 1088 925 l 1
 931 925 l 2
 726 925 686 747 686 633 c 3
785 1275 m 3
 321 1275 224 736 224 504 c 0
 224 249 326 125 515 125 c 3
 643 125 796 141 903 190 c 1
 981 61 l 1
 820 -19 605 -25 515 -25 c 3
 250 -25 74 157 74 504 c 0
 74 848 244 1425 785 1425 c 3
 1183 1425 1274 1238 1274 1114 c 3
 1274 1101 1274 1088 1272 1075 c 2
 1272 1075 1167 571 1116 324 c 1
 970 354 l 1
 979 397 l 1
 930 374 880 360 814 360 c 27
 662 360 536 411 536 633 c 3
 536 799 615 1075 931 1075 c 2
 1119 1075 l 1
 1121 1079 1124 1098 1124 1114 c 3
 1124 1243 928 1275 785 1275 c 3
EndSplineSet
Validated: 3073
EndChar

StartChar: B
Encoding: 66 66 33
Width: 1229
VWidth: 1947
GlyphClass: 2
Flags: W
HStem: 0 150<201 785.321> 712 150<349 885.717> 1250 150<430 982.311>
VStem: 947 150<321.46 665.082> 1000 150<971.345 1223.99>
DStem2: 17 0 169.117 0 0.207912 0.978148<184.978 759.023 912.19 1308.55> 759.941 0 912.318 0 0.207912 0.978148<932.018 1182.71> 835.18 0 987.557 0 0.207912 0.978148<226.284 576.985>
LayerCount: 2
Fore
SplineSet
1000 1159 m 3xe8
 1000 1213 977 1250 720 1250 c 2
 430 1250 l 1
 349 862 l 1
 608 862 l 2
 864 862 954 910 981 1040 c 2
 995 1110 l 2
 997 1120 1000 1140 1000 1159 c 3xe8
910 352 m 2
 940 500 l 2
 945 526 947 548 947 567 c 3xf0
 947 641 913 712 680 712 c 2
 318 712 l 1
 201 150 l 1
 532 150 l 2
 811 150 887 239 910 352 c 2
532 0 m 2
 17 0 l 1
 308 1400 l 1
 720 1400 l 2
 950 1400 1150 1375 1150 1159 c 3xe8
 1150 1133 1146 1107 1141 1080 c 2
 1127 1010 l 2
 1106 904 1058 837 987 791 c 1
 1064 739 1097 661 1097 567 c 3
 1097 536 1093 504 1086 470 c 2
 1056 322 l 2
 1012 103 826 0 532 0 c 2
EndSplineSet
Validated: 3073
EndChar

StartChar: C
Encoding: 67 67 34
Width: 1229
VWidth: 1947
GlyphClass: 2
Flags: W
HStem: -25 150<369.303 729.389> 1275 150<608.078 986.17>
VStem: 132 150<221.21 752.528> 1068 150<1086.47 1200.24>
DStem2: 8.55838 -25 160.935 -25 0.207912 0.978148<504.587 1152.02>
LayerCount: 2
Fore
SplineSet
553 -25 m 2
 520 -25 l 2
 383 -25 132 27 132 428 c 3
 132 520 146 617 165 711 c 2
 179 778 l 2
 245 1092 397 1425 789 1425 c 2
 823 1425 l 2
 1139 1425 1204 1220 1218 1088 c 1
 1068 1072 l 1
 1056 1191 1007 1275 823 1275 c 2
 789 1275 l 2
 511 1275 388 1048 325 748 c 2
 311 681 l 2
 301 631 282 529 282 428 c 3
 282 194 377 125 520 125 c 2
 553 125 l 2
 693 125 811 188 903 352 c 1
 1033 278 l 1
 977 178 841 -25 553 -25 c 2
EndSplineSet
Validated: 3073
EndChar

StartChar: D
Encoding: 68 68 35
Width: 1229
VWidth: 1947
GlyphClass: 2
Flags: W
HStem: 0 150<201 686.943> 1250 150<430 945.656>
VStem: 1026 150<696.188 1171.6>
DStem2: 17 0 169.117 0 0.207912 0.978148<184.978 1308.55> 833.186 0 985.563 0 0.207912 0.978148<375.395 1016.29>
LayerCount: 2
Fore
SplineSet
764 1250 m 2
 430 1250 l 1
 201 150 l 1
 504 150 l 2
 783 150 917 391 979 686 c 2
 1001 790 l 2
 1022 893 1026 958 1026 1000 c 3
 1026 1172 957 1250 764 1250 c 2
1176 1000 m 3
 1176 952 1171 878 1147 760 c 2
 1125 656 l 2
 992 29 628 0 504 0 c 2
 17 0 l 1
 308 1400 l 1
 764 1400 l 2
 1042 1400 1176 1255 1176 1000 c 3
EndSplineSet
Validated: 3073
EndChar

StartChar: E
Encoding: 69 69 36
Width: 1229
VWidth: 1708
GlyphClass: 2
Flags: W
HStem: 0 151<201 987> 712 150<349 997> 1250 150<430 1248>
DStem2: 17 0 168.904 0 0.207912 0.978148<185.956 759.023 912.19 1308.55>
LayerCount: 2
Fore
SplineSet
318 712 m 1
 201 151 l 1
 1018 151 l 1
 987 0 l 1
 17 0 l 1
 308 1400 l 1
 1279 1400 l 1
 1248 1250 l 1
 430 1250 l 1
 349 862 l 1
 1028 862 l 1
 997 712 l 1
 318 712 l 1
EndSplineSet
Validated: 3073
EndChar

StartChar: F
Encoding: 70 70 37
Width: 1229
VWidth: 1708
GlyphClass: 2
Flags: W
HStem: 0 21G<17 173.185> 712 150<349 997> 1250 150<430 1248>
VStem: 17 152<0 152>
DStem2: 17 0 169 0 0.207912 0.978148<31.6026 759.023 912.19 1308.55>
LayerCount: 2
Fore
SplineSet
17 0 m 1
 308 1400 l 1
 1279 1400 l 1
 1248 1250 l 1
 430 1250 l 1
 349 862 l 1
 1028 862 l 1
 997 712 l 1
 318 712 l 1
 169 0 l 1
 17 0 l 1
EndSplineSet
Validated: 3073
EndChar

StartChar: G
Encoding: 71 71 38
Width: 1229
VWidth: 1947
GlyphClass: 2
Flags: W
HStem: -25 150<376.18 750.331> 542 150<696 949> 1275 150<613.813 986.17>
VStem: 133 150<227.77 761.971> 1068 150<1086.47 1200.24>
DStem2: 8.55838 -25 160.935 -25 0.207912 0.978148<511.478 1152.42> 828.895 -25 983.011 -25 0.207912 0.978148<246.991 579.581>
LayerCount: 2
Fore
SplineSet
823 1275 m 2
 796 1275 l 2
 514 1275 386 1040 325 748 c 2
 311 681 l 2
 294 597 283 512 283 436 c 3
 283 198 381 125 527 125 c 2
 553 125 l 2
 719 125 844 210 895 286 c 1
 949 542 l 1
 696 542 l 1
 696 692 l 1
 1133 692 l 1
 1037 229 l 1
 941 69 751 -25 553 -25 c 2
 527 -25 l 2
 390 -25 133 27 133 436 c 3
 133 526 146 619 165 711 c 2
 179 778 l 2
 245 1092 404 1425 796 1425 c 2
 823 1425 l 2
 1139 1425 1204 1220 1218 1088 c 1
 1068 1072 l 1
 1056 1191 1007 1275 823 1275 c 2
EndSplineSet
Validated: 3073
EndChar

StartChar: H
Encoding: 72 72 39
Width: 1229
VWidth: 1947
GlyphClass: 2
Flags: W
HStem: 0 21G<16 173.17 835 992.129> 657 150<336 971> 1380 20G<301.857 458 1120.85 1277>
VStem: 16 153<0 153> 306 152<1248 1400> 835 153<0 153> 1125 152<1248 1400>
DStem2: 16 0 169 0 0.207912 0.978148<31.8105 702.937 855.897 1429.7> 835 0 988 0 0.207912 0.978148<31.8105 670.919 824.086 1429.7>
LayerCount: 2
Fore
SplineSet
169 0 m 1
 16 0 l 1
 306 1400 l 1
 458 1400 l 1
 336 807 l 1
 1002 807 l 1
 1125 1400 l 1
 1277 1400 l 1
 988 0 l 1
 835 0 l 1
 971 657 l 1
 306 657 l 1
 169 0 l 1
EndSplineSet
Validated: 3073
EndChar

StartChar: I
Encoding: 73 73 40
Width: 1229
VWidth: 1947
GlyphClass: 2
Flags: W
HStem: 0 150<124 459 612 912> 1250 150<385 688 841 1173>
DStem2: 427.117 0 580.117 0 0.207912 0.978148<185.162 1276.93>
LayerCount: 2
Fore
SplineSet
354 1250 m 1
 385 1400 l 1
 1204 1400 l 1
 1173 1250 l 1
 841 1250 l 1
 612 150 l 1
 943 150 l 1
 912 0 l 1
 93 0 l 1
 124 150 l 1
 459 150 l 1
 688 1250 l 1
 354 1250 l 1
EndSplineSet
Validated: 3073
EndChar

StartChar: J
Encoding: 74 74 41
Width: 1229
VWidth: 1947
GlyphClass: 2
Flags: W
HStem: -25 150<208.742 556.25> 1250 150<560 878 1031 1288>
DStem2: 611.615 -25 763.992 -25 0.207912 0.978148<240.33 1302.52>
LayerCount: 2
Fore
SplineSet
182 218 m 1
 189 183 207 125 370 125 c 2
 395 125 l 2
 559 125 666 228 696 372 c 2
 878 1250 l 1
 529 1250 l 1
 560 1400 l 1
 1319 1400 l 1
 1288 1250 l 1
 1031 1250 l 1
 842 342 l 2
 796 125 627 -25 395 -25 c 2
 370 -25 l 2
 123 -25 56 87 34 198 c 1
 182 218 l 1
EndSplineSet
Validated: 3073
EndChar

StartChar: K
Encoding: 75 75 42
Width: 1229
VWidth: 1947
GlyphClass: 2
Flags: W
HStem: 0 21G<16 173.18 840.148 1017> 1380 20G<302.843 460 1073.85 1321>
VStem: 16 153<0 153> 307 153<1247 1400> 850 167<0 167> 1096 225<1175 1400>
DStem2: 16 0 169 0 0.207912 0.978148<31.8105 486.422 740.792 1429.91> 314 694 517 676 0.742631 0.669701<0 138.7 294.494 1053.55> 633 780 517 676 0.441684 -0.897171<42.0704 795.639>
LayerCount: 2
Fore
SplineSet
169 0 m 1
 16 0 l 1
 307 1400 l 1
 460 1400 l 1
 314 694 l 1
 1096 1400 l 1
 1321 1400 l 1
 633 780 l 1
 1017 0 l 1
 850 0 l 1
 517 676 l 1
 262 445 l 1
 169 0 l 1
EndSplineSet
Validated: 3073
EndChar

StartChar: L
Encoding: 76 76 43
Width: 1229
VWidth: 1947
GlyphClass: 2
Flags: W
HStem: 0 151<201 987> 1380 20G<303.843 461>
VStem: 308 153<1247 1400>
DStem2: 17 0 168.904 0 0.207912 0.978148<185.956 1429.91>
LayerCount: 2
Fore
SplineSet
987 0 m 1
 17 0 l 1
 308 1400 l 1
 461 1400 l 1
 201 151 l 1
 1018 151 l 1
 987 0 l 1
EndSplineSet
Validated: 3073
EndChar

StartChar: M
Encoding: 77 77 44
Width: 1229
VWidth: 1947
GlyphClass: 2
Flags: W
HStem: 0 21G<-26 135.967 883 1037.29> 1380 20G<385.043 548.051 1023.7 1195>
VStem: -26 156<0 156> 883 152<0 152>
DStem2: -26 0 130 0 0.285463 0.95839<44.5323 1107.91> 546 1400 434 1019 0.102185 -0.994765<367.561 794.142> 627 610 589 211 0.458843 0.888517<0 519.418> 883 0 1035 0 0.113547 0.993533<17.2591 1009.57>
LayerCount: 2
Fore
SplineSet
-26 0 m 1
 391 1400 l 1
 546 1400 l 1
 627 610 l 1
 1034 1400 l 1
 1195 1400 l 1
 1035 0 l 1
 883 0 l 1
 998 1003 l 1
 589 211 l 1
 517 211 l 1
 434 1019 l 1
 130 0 l 1
 -26 0 l 1
EndSplineSet
Validated: 3073
EndChar

StartChar: N
Encoding: 78 78 45
Width: 1229
VWidth: 1947
GlyphClass: 2
Flags: W
HStem: 0 21G<16 173.164 855.527 993.129> 1380 20G<303.829 443.441 1121.84 1278>
VStem: 16 153<0 153> 1126 152<1248 1400>
DStem2: 16 0 169 0 0.207912 0.978148<31.8105 1155.38> 435 1400 398 1100 0.390077 -0.920782<261.802 1190.7> 833.595 0 989 0 0.207912 0.978148<309.769 1430.2>
LayerCount: 2
Fore
SplineSet
169 0 m 1
 16 0 l 1
 308 1400 l 1
 435 1400 l 1
 898 303 l 1
 1126 1400 l 1
 1278 1400 l 1
 989 0 l 1
 864 0 l 1
 398 1100 l 1
 169 0 l 1
EndSplineSet
Validated: 3073
EndChar

StartChar: O
Encoding: 79 79 46
Width: 1229
VWidth: 1947
GlyphClass: 2
Flags: W
HStem: -25 150<351.039 690.412> 1275 150<585.859 955.984>
VStem: 127 150<204.302 733.164> 1028 150<710.019 1201.52>
DStem2: 8.55838 -25 160.935 -25 0.207912 0.978148<473.137 1177.77> 827.346 -25 980.148 -25 0.207912 0.978148<375.305 1064.6>
LayerCount: 2
Fore
SplineSet
794 1275 m 2
 766 1275 l 2
 482 1275 386 1037 325 748 c 2
 311 681 l 2
 282 542 277 455 277 399 c 3
 277 186 361 125 497 125 c 2
 524 125 l 2
 794 125 914 391 984 712 c 2
 999 781 l 2
 1024 900 1028 975 1028 1023 c 3
 1028 1217 945 1275 794 1275 c 2
1178 1023 m 3
 1178 968 1174 881 1145 749 c 2
 1130 680 l 2
 1062 367 918 -25 524 -25 c 2
 497 -25 l 2
 307 -25 127 71 127 399 c 3
 127 461 133 558 165 711 c 2
 179 778 l 2
 244 1089 372 1425 766 1425 c 2
 794 1425 l 2
 981 1425 1178 1345 1178 1023 c 3
EndSplineSet
Validated: 3073
EndChar

StartChar: P
Encoding: 80 80 47
Width: 1229
VWidth: 1947
GlyphClass: 2
Flags: W
HStem: 0 21G<16 173.167> 624 150<331 898.13> 1250 150<430 1034.14>
VStem: 16 153<0 153> 1067 150<939.987 1215.23>
DStem2: 16 0 169 0 0.207912 0.978148<31.8105 669.203 822.578 1308.76> 831.617 0 984.419 0 0.207912 0.978148<879.877 1159.64>
LayerCount: 2
Fore
SplineSet
1067 1136 m 3
 1067 1184 1062 1250 792 1250 c 2
 430 1250 l 1
 331 774 l 1
 662 774 l 2
 950 774 1021 894 1048 1018 c 2
 1061 1078 l 2
 1064 1094 1067 1126 1067 1136 c 3
16 0 m 1
 308 1400 l 1
 792 1400 l 2
 1116 1400 1217 1284 1217 1136 c 3
 1217 1120 1211 1066 1207 1048 c 2
 1194 986 l 2
 1142 741 964 624 662 624 c 2
 299 624 l 1
 169 0 l 1
 16 0 l 1
EndSplineSet
Validated: 3073
EndChar

StartChar: Q
Encoding: 81 81 48
Width: 1229
VWidth: 1947
GlyphClass: 2
Flags: W
HStem: -25 150<359.509 638.311> 1275 150<595.029 955.984>
VStem: 129 150<211.504 743.109> 1028 150<710.019 1201.52>
DStem2: -24.3879 -180 127.989 -180 0.207912 0.978148<645.911 1323.2> 653 435 521 363 0.478626 -0.878019<0.0388107 240.304 395.134 618.438> 794.4 -180 947.201 -180 0.207912 0.978148<536.872 1223.06>
LayerCount: 2
Fore
SplineSet
949 -108 m 1
 817 -180 l 1
 713 10 l 1
 657 -13 595 -25 524 -25 c 2
 507 -25 l 2
 372 -25 129 25 129 412 c 3
 129 532 153 652 165 711 c 2
 179 778 l 2
 245 1090 383 1425 776 1425 c 2
 794 1425 l 2
 981 1425 1178 1345 1178 1023 c 3
 1178 968 1174 881 1145 749 c 2
 1130 680 l 2
 1087 481 1007 227 842 88 c 1
 949 -108 l 1
794 1275 m 2
 776 1275 l 2
 491 1275 385 1035 325 748 c 2
 311 681 l 2
 292 587 279 494 279 412 c 3
 279 189 368 125 507 125 c 2
 524 125 l 2
 566 125 604 132 640 144 c 1
 521 363 l 1
 653 435 l 1
 768 224 l 1
 878 330 941 514 984 712 c 2
 999 781 l 2
 1024 900 1028 975 1028 1023 c 3
 1028 1217 945 1275 794 1275 c 2
EndSplineSet
Validated: 3073
EndChar

StartChar: R
Encoding: 82 82 49
Width: 1229
VWidth: 1947
GlyphClass: 2
Flags: W
HStem: 0 21G<16 173.174 876.184 1049> 642 150<334 602> 1250 150<430 1052.03>
VStem: 16 153<0 153> 885 164<0 164> 1067 150<1026.39 1226.45>
DStem2: 16 0 169 0 0.207912 0.978148<31.8105 687.641 840.809 1308.76> 764 646 602 642 0.40364 -0.914918<0 639.877> 831.994 0 984.371 0 0.207912 0.978148<874.818 1159.52>
LayerCount: 2
Fore
SplineSet
792 1400 m 2
 1116 1400 1217 1281 1217 1136 c 3
 1217 1108 1213 1079 1207 1048 c 2
 1188 958 l 2
 1146 760 1000 665 764 646 c 1
 1049 0 l 1
 885 0 l 1
 602 642 l 1
 303 642 l 1
 169 0 l 1
 16 0 l 1
 308 1400 l 1
 792 1400 l 2
1067 1136 m 3
 1067 1230 1053 1250 792 1250 c 2
 430 1250 l 1
 334 792 l 1
 666 792 l 2
 950 792 1020 883 1042 988 c 2
 1061 1078 l 18
 1064 1091 1067 1125 1067 1136 c 3
EndSplineSet
Validated: 3073
EndChar

StartChar: S
Encoding: 83 83 50
Width: 1229
VWidth: 2334
GlyphClass: 2
Flags: W
HStem: -25 150<329.489 716.875> 1275 150<612.743 997.594>
VStem: 86 150<210.539 312> 299 150<888.019 1123.67> 926 150<299.73 564.226>
DStem2: 502 880 450 740 0.936544 -0.35055<-59.3162 512.912> 829.615 -25 981.992 -25 0.207912 0.978148<280.627 492.682>
LayerCount: 2
Fore
SplineSet
502 125 m 2
 527 125 l 2
 717 125 891 256 914 372 c 2
 920 402 l 2
 924 423 926 442 926 459 c 3
 926 518 903 571 808 606 c 2
 450 740 l 2
 305 794 299 943 299 1000 c 3
 299 1019 301 1035 304 1049 c 2
 311 1079 l 2
 348 1236 520 1425 781 1425 c 2
 791 1425 l 2
 1132 1425 1191 1257 1206 1195 c 1
 1060 1159 l 1
 1035 1261 885 1275 791 1275 c 2
 781 1275 l 2
 591 1275 477 1133 457 1047 c 2
 450 1017 l 2
 449 1013 449 1008 449 1000 c 3
 449 945 479 889 502 880 c 2
 860 746 l 2
 1020 686 1076 574 1076 459 c 3
 1076 431 1072 402 1066 372 c 2
 1060 342 l 2
 1023 157 792 -25 527 -25 c 2
 502 -25 l 2
 239 -25 86 143 86 312 c 1
 236 312 l 1
 236 226 324 125 502 125 c 2
EndSplineSet
Validated: 3073
EndChar

StartChar: T
Encoding: 84 84 51
Width: 1229
VWidth: 1947
GlyphClass: 2
Flags: W
HStem: 0 21G<426 584.176> 1250 150<310 688 841 1248>
VStem: 426 154<0 154>
DStem2: 426 0 580 0 0.207912 0.978148<32.0184 1277.16>
LayerCount: 2
Fore
SplineSet
279 1250 m 1
 310 1400 l 1
 1279 1400 l 1
 1248 1250 l 1
 841 1250 l 1
 580 0 l 1
 426 0 l 1
 688 1250 l 1
 279 1250 l 1
EndSplineSet
Validated: 3073
EndChar

StartChar: U
Encoding: 85 85 52
Width: 1229
VWidth: 1947
GlyphClass: 2
Flags: W
HStem: -25 150<323.031 728.67> 1380 20G<302.872 461 1121.87 1280>
VStem: 91 150<196.971 553.312> 307 154<1246 1400> 1126 154<1246 1400>
DStem2: 10.2383 -25 162.615 -25 0.207912 0.978148<382.308 1455.56> 829.238 -25 981.615 -25 0.207912 0.978148<275.026 1455.56>
LayerCount: 2
Fore
SplineSet
247 372 m 2
 243 352 241 333 241 316 c 3
 241 163 382 125 502 125 c 2
 527 125 l 2
 755 125 890 256 920 402 c 2
 1126 1400 l 1
 1280 1400 l 1
 1066 372 l 2
 1021 156 826 -25 527 -25 c 2
 502 -25 l 2
 230 -25 91 126 91 316 c 3
 91 344 95 373 101 402 c 2
 307 1400 l 1
 461 1400 l 1
 247 372 l 2
EndSplineSet
Validated: 3073
EndChar

StartChar: V
Encoding: 86 86 53
Width: 1229
VWidth: 1708
GlyphClass: 2
Flags: W
HStem: -25 21G<430.782 585.568> 1380 20G<275 429.22 1148.42 1328>
VStem: 275 152<1248 1400> 1159 169<1231 1400>
DStem2: 427 1400 275 1400 0.110202 -0.993909<0 1151.03> 554 256 575 -25 0.467203 0.88415<0 1294.13>
LayerCount: 2
Fore
SplineSet
433 -25 m 1
 275 1400 l 1
 427 1400 l 1
 554 256 l 1
 1159 1400 l 1
 1328 1400 l 1
 575 -25 l 1
 433 -25 l 1
EndSplineSet
Validated: 3073
EndChar

StartChar: W
Encoding: 87 87 54
Width: 1229
VWidth: 1947
GlyphClass: 2
Flags: W
HStem: 0 21G<108 279.267 745.119 908> 1380 20G<267.687 422 1158.99 1322>
VStem: 270 152<1248 1400> 1165 157<1243 1400>
DStem2: 109 8 306 401 0.114895 0.993378<413.032 1401.28> 306 401 269 0 0.45666 0.889641<0 510.996> 785 1190 673 787 0.0943405 -0.99554<390.637 805.593> 861 388 902 0 0.287348 0.957826<0 1056.67>
LayerCount: 2
Fore
SplineSet
108 0 m 1
 108 3 109 5 109 8 c 2
 270 1400 l 1
 422 1400 l 1
 306 401 l 1
 711 1190 l 1
 785 1190 l 1
 861 388 l 1
 1165 1400 l 1
 1322 1400 l 1
 902 0 l 1
 747 0 l 1
 673 787 l 1
 269 0 l 1
 108 0 l 1
EndSplineSet
Validated: 3073
EndChar

StartChar: X
Encoding: 88 88 55
Width: 1229
VWidth: 1947
GlyphClass: 2
Flags: W
HStem: 0 21G<-12 196.166 836.152 1005> 1380 20G<294 462.848 1102.83 1311>
VStem: -12 192<0 192> 294 161<1239 1400> 844 161<0 161> 1119 192<1208 1400>
DStem2: -12 0 180 0 0.628415 0.777879<120.656 831.724 1088.7 1799.77> 455 1400 294 1400 0.365652 -0.930752<0 594.052 851.239 1445.29>
LayerCount: 2
Fore
SplineSet
-12 0 m 1
 564 713 l 1
 294 1400 l 1
 455 1400 l 1
 672 847 l 1
 1119 1400 l 1
 1311 1400 l 1
 735 687 l 1
 1005 0 l 1
 844 0 l 1
 627 553 l 1
 180 0 l 1
 -12 0 l 1
EndSplineSet
Validated: 3073
EndChar

StartChar: Y
Encoding: 89 89 56
Width: 1229
VWidth: 1947
GlyphClass: 2
Flags: W
HStem: -25 21G<421 578.213> 1380 20G<288 448.526 1119.17 1316>
VStem: 288 155<1245 1400> 421 153<-25 128> 1133 183<1217 1400>
DStem2: 443 1400 288 1400 0.266693 -0.963781<0 739.715> 421 -25 574 -25 0.207912 0.978148<31.8105 547.781> 640 687 681 483 0.569303 0.822128<0 866.844>
LayerCount: 2
Fore
SplineSet
421 -25 m 1xd8
 534 511 l 1
 288 1400 l 1
 443 1400 l 1xe8
 640 687 l 1
 1133 1400 l 1
 1316 1400 l 1
 681 483 l 1
 574 -25 l 1
 421 -25 l 1xd8
EndSplineSet
Validated: 3073
EndChar

StartChar: Z
Encoding: 90 90 57
Width: 1229
VWidth: 1947
GlyphClass: 2
Flags: W
HStem: 0 151<251 987> 1250 150<310 1048>
DStem2: 50 154 251 151 0.673277 0.73939<133.111 1482.3>
LayerCount: 2
Fore
SplineSet
279 1250 m 1
 310 1400 l 1
 1279 1400 l 1
 1246 1244 l 1
 251 151 l 1
 1019 151 l 1
 987 0 l 1
 18 0 l 1
 50 154 l 1
 1048 1250 l 1
 279 1250 l 1
EndSplineSet
Validated: 3073
EndChar

StartChar: bracketleft
Encoding: 91 91 58
Width: 1229
VWidth: 1947
GlyphClass: 2
Flags: W
HStem: -155 150<417 769> 1405 150<710 1093>
DStem2: 233 -155 385.117 -155 0.207912 0.978148<184.978 1625.08>
LayerCount: 2
Fore
SplineSet
710 1405 m 1
 417 -5 l 1
 800 -5 l 1
 769 -155 l 1
 233 -155 l 1
 588 1555 l 1
 1124 1555 l 1
 1093 1405 l 1
 710 1405 l 1
EndSplineSet
Validated: 3073
EndChar

StartChar: backslash
Encoding: 92 92 59
Width: 1229
VWidth: 1708
GlyphClass: 2
Flags: W
VStem: 319 659
DStem2: 461 1450 319 1400 0.335843 -0.941918<0 1538.82>
LayerCount: 2
Fore
SplineSet
319 1400 m 1
 461 1450 l 1
 978 0 l 1
 836 -50 l 1
 319 1400 l 1
EndSplineSet
Validated: 3073
EndChar

StartChar: bracketright
Encoding: 93 93 60
Width: 1229
VWidth: 1947
GlyphClass: 2
Flags: W
HStem: -155 150<170 589> 1405 150<494 882>
DStem2: 557.117 -155 711 -155 0.207912 0.978148<153.351 1593.46>
LayerCount: 2
Fore
SplineSet
463 1405 m 1
 494 1555 l 1
 1066 1555 l 1
 711 -155 l 1
 139 -155 l 1
 170 -5 l 1
 589 -5 l 1
 882 1405 l 1
 463 1405 l 1
EndSplineSet
Validated: 3073
EndChar

StartChar: asciicircum
Encoding: 94 94 61
Width: 1229
VWidth: 1947
GlyphClass: 2
Flags: W
HStem: 933 492
DStem2: 305 1045 405 933 0.740739 0.671792<0 503.607> 855 1425 779 1272 0.566706 -0.82392<82.9901 477.14>
LayerCount: 2
Fore
SplineSet
855 1425 m 1
 1126 1031 l 1
 1002 947 l 1
 779 1272 l 1
 405 933 l 1
 305 1045 l 1
 724 1425 l 1
 855 1425 l 1
EndSplineSet
Validated: 3073
EndChar

StartChar: underscore
Encoding: 95 95 62
Width: 1229
VWidth: 1947
GlyphClass: 2
Flags: W
HStem: -167 150<113 855>
LayerCount: 2
Fore
SplineSet
855 -17 m 1
 855 -167 l 1
 113 -167 l 1
 113 -17 l 1
 855 -17 l 1
EndSplineSet
Validated: 3073
EndChar

StartChar: grave
Encoding: 96 96 63
Width: 1229
VWidth: 1708
GlyphClass: 2
Flags: W
HStem: 1022 403
VStem: 615 311
LayerCount: 2
Fore
SplineSet
919 1106 m 2
 924 1095 926 1085 926 1075 c 3
 926 1058 919 1043 904 1032 c 0
 894 1025 883 1022 871 1022 c 3
 854 1022 836 1029 824 1044 c 2
 636 1273 l 2
 622 1290 615 1312 615 1333 c 3
 615 1364 629 1394 655 1411 c 0
 668 1420 686 1425 705 1425 c 3
 739 1425 777 1409 793 1375 c 2
 919 1106 l 2
EndSplineSet
Validated: 3073
EndChar

StartChar: a
Encoding: 97 97 64
Width: 1229
VWidth: 1947
GlyphClass: 2
Flags: W
HStem: -25 150<347.737 737.221 1058.3 1072> 899 150<490.812 926.557>
VStem: 101 150<215.938 598.864>
DStem2: 11.7361 -25 164.113 -25 0.207912 0.978148<416.491 845.856> 830.137 -25 983.243 -25 0.207912 0.978148<315.047 769.32 1006.48 1100.42>
LayerCount: 2
Fore
SplineSet
292 582 m 2
 257 412 l 2
 252 390 251 369 251 349 c 3
 251 215 348 125 502 125 c 2
 529 125 l 2
 756 125 889 248 926 426 c 2
 965 612 l 2
 977 670 979 707 979 731 c 0
 979 813 957 899 719 899 c 2
 693 899 l 2
 460 899 330 765 292 582 c 2
1103 126 m 1
 1072 -25 l 1
 1071 -25 1069 -25 1068 -25 c 0
 962 -25 937 51 922 120 c 1
 826 28 692 -25 529 -25 c 2
 502 -25 l 2
 263 -25 101 134 101 349 c 3
 101 379 105 410 111 442 c 2
 146 612 l 2
 201 876 398 1049 693 1049 c 2
 719 1049 l 2
 873 1049 974 1015 1037 960 c 1
 1056 1052 l 1
 1209 1052 l 1
 1057 322 l 2
 1052 297 1050 278 1050 249 c 19
 1050 198 1053 126 1100 126 c 0
 1101 126 1102 126 1103 126 c 1
EndSplineSet
Validated: 3073
EndChar

StartChar: b
Encoding: 98 98 65
Width: 1229
VWidth: 2334
GlyphClass: 2
Flags: W
HStem: -23 148<348.094 717.722> 899 150<490.821 896.453> 1380 20G<303.826 460>
VStem: 308 152<1248 1400> 973 150<449.571 830.019>
DStem2: 11 -23 165 -23 0.207912 0.978148<32.0184 166.748 427.704 851.615 1033.79 1453.65> 828.91 -23 981.287 -23 0.207912 0.978148<300.668 732.097>
LayerCount: 2
Fore
SplineSet
291 582 m 2
 259 432 l 2
 254 408 252 384 252 362 c 3
 252 220 352 125 502 125 c 2
 527 125 l 2
 756 125 891 271 932 462 c 2
 964 612 l 2
 970 643 973 671 973 696 c 3
 973 803 921 899 719 899 c 2
 694 899 l 2
 460 899 330 766 291 582 c 2
694 1049 m 2
 719 1049 l 2
 990 1049 1123 901 1123 696 c 3
 1123 659 1118 621 1110 582 c 2
 1078 432 l 2
 1025 186 813 -23 579 -23 c 2
 458 -23 l 2
 372 -23 255 36 192 109 c 1
 165 -23 l 1
 11 -23 l 1
 308 1400 l 1
 460 1400 l 1
 368 958 l 1
 456 1016 566 1049 694 1049 c 2
EndSplineSet
Validated: 3073
EndChar

StartChar: c
Encoding: 99 99 66
Width: 1229
VWidth: 2334
GlyphClass: 2
Flags: W
HStem: -25 150<340.226 755.628> 898 150<492.062 939.629>
VStem: 98 150<210.806 590.918>
DStem2: 9.73609 -25 162.113 -25 0.207912 0.978148<412.416 840.931>
LayerCount: 2
Fore
SplineSet
719 898 m 2
 694 898 l 2
 472 898 332 777 291 582 c 2
 255 412 l 2
 250 388 248 366 248 345 c 3
 248 208 350 125 502 125 c 2
 527 125 l 2
 662 125 803 159 874 261 c 1
 998 175 l 1
 909 47 743 -25 527 -25 c 2
 502 -25 l 2
 268 -25 98 123 98 345 c 3
 98 377 102 409 109 442 c 2
 145 612 l 2
 201 876 400 1048 694 1048 c 2
 719 1048 l 2
 934 1048 1096 986 1133 827 c 1
 987 793 l 1
 964 889 803 898 719 898 c 2
EndSplineSet
Validated: 3073
EndChar

StartChar: d
Encoding: 100 100 67
Width: 1229
VWidth: 1947
GlyphClass: 2
Flags: W
HStem: -23 148<340.226 733.553> 899 150<492.062 897.848> 1380 20G<1122.81 1279>
VStem: 98 150<213.932 590.669> 1127 152<1248 1400>
DStem2: 10.1612 -23 162.538 -23 0.207912 0.978148<410.372 839.04> 830 -23 983 -23 0.207912 0.978148<31.8105 87.8631 275.055 732.286 985.703 1453.65>
LayerCount: 2
Fore
SplineSet
291 582 m 2
 255 412 l 2
 250 388 248 366 248 345 c 3
 248 208 350 125 502 125 c 2
 527 125 l 2
 751 125 886 244 922 419 c 2
 969 646 l 2
 973 664 973 680 973 696 c 3
 973 803 921 899 719 899 c 2
 694 899 l 2
 460 899 330 766 291 582 c 2
694 1049 m 2
 719 1049 l 2
 860 1049 964 1009 1031 942 c 1
 1127 1400 l 1
 1279 1400 l 1
 983 -23 l 1
 830 -23 l 1
 848 63 l 1
 774 14 666 -23 581 -23 c 2
 456 -23 l 2
 270 -23 98 138 98 345 c 3
 98 377 102 409 109 442 c 2
 145 612 l 2
 201 876 400 1049 694 1049 c 2
EndSplineSet
Validated: 3073
EndChar

StartChar: e
Encoding: 101 101 68
Width: 1229
VWidth: 1947
GlyphClass: 2
Flags: W
HStem: -25 150<322.031 764.298> 486 150<303 968> 899 150<479.992 906.545>
VStem: 90 150<200.836 483.141> 982 150<636.594 834.325>
DStem2: 10.4895 -25 162.866 -25 0.207912 0.978148<379.861 553.997 707.372 868.37>
LayerCount: 2
Fore
SplineSet
968 636 m 1
 977 674 l 2
 981 693 982 710 982 726 c 3
 982 864 846 899 719 899 c 2
 694 899 l 2
 524 899 344 834 303 636 c 1
 968 636 l 1
271 486 m 1
 243 352 l 2
 240 339 240 326 240 314 c 3
 240 223 310 125 502 125 c 2
 527 125 l 2
 676 125 818 165 880 270 c 1
 1008 194 l 1
 924 53 752 -25 527 -25 c 2
 502 -25 l 2
 228 -25 90 139 90 314 c 3
 90 337 92 360 97 382 c 2
 158 674 l 2
 203 890 397 1049 694 1049 c 2
 719 1049 l 2
 988 1049 1132 916 1132 726 c 3
 1132 699 1129 672 1123 644 c 2
 1090 486 l 1
 271 486 l 1
EndSplineSet
Validated: 3073
EndChar

StartChar: g
Encoding: 103 103 70
Width: 1229
VWidth: 2334
GlyphClass: 2
Flags: W
HStem: -369 150<163 668.841> -25 150<347.737 740.602> 899 150<490.812 926.22> 1003 20G<1045.87 1203>
VStem: 101 150<215.938 599.084>
DStem2: -61.3834 -369 90.9933 -369 0.207912 0.978148<768.176 1199.78> 755.378 -369 907.755 -369 0.207912 0.978148<254.436 438.467 613.382 1121.72 1358.51 1422.84>
LayerCount: 2
Fore
SplineSet
292 582 m 2xe8
 257 412 l 2
 252 390 251 369 251 349 c 3
 251 215 348 125 502 125 c 2
 529 125 l 2
 740 125 882 228 916 390 c 2
 973 661 l 2
 978 692 979 715 979 731 c 3
 979 813 957 899 719 899 c 2
 693 899 l 2
 460 899 331 770 292 582 c 2xe8
693 1049 m 2
 719 1049 l 2xe8
 872 1049 974 1015 1037 960 c 1
 1050 1023 l 1
 1203 1023 l 1xd8
 983 -15 l 2
 937 -234 731 -369 438 -369 c 2
 132 -369 l 1
 163 -219 l 1
 438 -219 l 2
 676 -219 809 -118 837 15 c 2
 846 60 l 1
 760 5 653 -25 529 -25 c 2
 502 -25 l 2
 263 -25 101 134 101 349 c 3
 101 379 105 410 111 442 c 2
 146 612 l 2
 201 876 398 1049 693 1049 c 2
EndSplineSet
Validated: 3073
EndChar

StartChar: h
Encoding: 104 104 71
Width: 1229
VWidth: 2334
GlyphClass: 2
Flags: W
HStem: 0 21G<16 173.192 835 990.243> 899 150<537.431 909.82> 1380 20G<302.843 461>
VStem: 16 153<0 153> 307 154<1246 1400> 835 151<0 151> 986 150<505.75 830.751>
DStem2: 16 0 169 0 0.207912 0.978148<31.8105 771.572 969.461 1429.91> 835 0 986 0 0.207912 0.978148<31.3947 750.852>
LayerCount: 2
Fore
SplineSet
983 704 m 2
 985 715 986 726 986 736 c 3
 986 812 919 899 719 899 c 2
 694 899 l 2
 502 899 313 685 291 582 c 2
 169 0 l 1
 16 0 l 1
 307 1400 l 1
 461 1400 l 1
 360 918 l 1
 454 994 571 1049 694 1049 c 2
 719 1049 l 2
 994 1049 1136 905 1136 736 c 3
 1136 715 1133 695 1129 674 c 2
 986 0 l 1
 835 -0 l 1
 983 704 l 2
EndSplineSet
Validated: 3073
EndChar

StartChar: k
Encoding: 107 107 74
Width: 1229
VWidth: 1947
GlyphClass: 2
Flags: W
HStem: 0 21G<17 173.286 768.849 1029> 1405 20G<310.818 467>
VStem: 315 152<1273 1425>
DStem2: 17 0 169 0 0.207912 0.978148<31.6026 282.359 550.748 1455.82> 641 847 594 621 0.789658 0.613547<-193.215 302.623> 825 169 729 53 0.770075 -0.637954<-178.84 83.1718> 959 1026 1015 886 0.947311 0.320314<-265.105 146.717>
LayerCount: 2
Fore
SplineSet
1015 886 m 2
 896 845 811 789 733 729 c 2
 594 621 l 1
 617 469 746 235 825 169 c 2
 1029 0 l 1
 793 0 l 1
 729 53 l 2
 639 128 521 327 468 503 c 1
 353 377 262 234 196 126 c 1
 169 0 l 1
 17 0 l 1
 315 1425 l 1
 467 1425 l 1
 276 508 l 1
 342 592 420 676 509 745 c 2
 641 847 l 2
 736 922 839 985 959 1026 c 2
 1098 1073 l 1
 1146 931 l 1
 1015 886 l 2
EndSplineSet
Validated: 3073
EndChar

StartChar: l
Encoding: 108 108 75
Width: 1229
VWidth: 1947
GlyphClass: 2
Flags: W
HStem: 0 150<122 459 612 907> 1250 150<383 688>
DStem2: 427.117 0 580.117 0 0.207912 0.978148<185.162 1276.93>
LayerCount: 2
Fore
SplineSet
352 1250 m 1
 383 1400 l 1
 872 1400 l 1
 612 150 l 1
 938 150 l 1
 907 0 l 1
 91 0 l 1
 122 150 l 1
 459 150 l 1
 688 1250 l 1
 352 1250 l 1
EndSplineSet
Validated: 3073
EndChar

StartChar: m
Encoding: 109 109 76
Width: 1229
VWidth: 2334
GlyphClass: 2
Flags: W
HStem: 0 21G<-3 154.214 426 583.214 854 1011.19> 899 150<404.791 595.327 835.199 1023.66>
VStem: -3 153<0 153> 426 153<0 153> 854 153<0 153> 1027 150<614.562 895.481>
DStem2: -3 0 150 0 0.207912 0.978148<31.8105 879.637 1059.49 1072.59> 426 0 579 0 0.207912 0.978148<31.8105 862.518> 854 0 1007 0 0.207912 0.978148<31.8105 862.518>
LayerCount: 2
Fore
SplineSet
1021 794 m 2
 1023 804 1027 825 1027 846 c 3
 1027 879 1022 899 957 899 c 2
 942 899 l 2
 836 899 742 772 721 674 c 2
 579 0 l 1
 426 0 l 1
 593 794 l 2
 595 804 599 825 599 846 c 3
 599 879 595 899 529 899 c 2
 513 899 l 2
 417 899 316 786 292 674 c 2
 150 0 l 1
 -3 0 l 1
 216 1050 l 1
 369 1050 l 1
 360 1006 l 1
 406 1033 458 1049 513 1049 c 2
 529 1049 l 2
 634 1049 692 1009 722 957 c 1
 784 1013 860 1049 942 1049 c 2
 957 1049 l 2
 1133 1049 1177 935 1177 846 c 3
 1177 820 1173 793 1167 764 c 2
 1007 0 l 1
 854 0 l 1
 1021 794 l 2
EndSplineSet
Validated: 3073
EndChar

StartChar: n
Encoding: 110 110 77
Width: 1229
VWidth: 2334
GlyphClass: 2
Flags: W
HStem: 0 21G<16 173.164 836 993.157> 899 151<543.253 919.589>
VStem: 16 153<0 153> 836 153<0 153> 986 150<509.016 842.473>
DStem2: 16 0 169 0 0.207912 0.978148<31.8105 756.024 961.22 1072.59> 836 0 989 0 0.207912 0.978148<31.8105 758.239>
LayerCount: 2
Fore
SplineSet
981 694 m 2xf0
 985 712 986 729 986 744 c 3
 986 806 954 899 719 899 c 2
 694 899 l 2
 501 899 307 664 286 562 c 2
 169 0 l 1
 16 0 l 1
 235 1050 l 1
 387 1050 l 1
 358 910 l 1
 454 990 572 1049 694 1049 c 2
 719 1049 l 2
 1065 1049 1136 866 1136 744 c 3xe8
 1136 717 1133 691 1127 664 c 2
 989 0 l 1
 836 0 l 1
 981 694 l 2xf0
EndSplineSet
Validated: 3073
EndChar

StartChar: o
Encoding: 111 111 78
Width: 1229
VWidth: 1947
GlyphClass: 2
Flags: W
HStem: -25 150<325.484 723.898> 898 150<493.145 898.191>
VStem: 104 150<195.898 601.394> 968 150<438.213 830.901>
DStem2: 10.258 -25 162.635 -25 0.207912 0.978148<415.224 834.604> 828.471 -25 980.847 -25 0.207912 0.978148<300.79 724.912>
LayerCount: 2
Fore
SplineSet
732 898 m 2
 675 898 l 2
 444 898 325 749 283 546 c 2
 267 466 l 2
 258 423 254 382 254 346 c 3
 254 199 325 125 485 125 c 2
 536 125 l 2
 775 125 895 284 939 495 c 2
 956 577 l 2
 964 618 968 655 968 688 c 3
 968 814 912 898 732 898 c 2
1118 688 m 3
 1118 642 1112 596 1102 547 c 2
 1085 465 l 2
 1028 189 853 -25 536 -25 c 2
 485 -25 l 2
 248 -25 104 109 104 346 c 3
 104 395 110 444 121 496 c 2
 137 576 l 2
 193 847 370 1048 675 1048 c 2
 732 1048 l 2
 1005 1048 1118 888 1118 688 c 3
EndSplineSet
Validated: 3073
EndChar

StartChar: p
Encoding: 112 112 79
Width: 1229
VWidth: 1947
GlyphClass: 2
Flags: W
HStem: -375 21G<-62 95.1772> -25 150<340.226 719.784> 899 150<491.437 896.453>
VStem: -62 153<-375 -222> 973 150<449.571 830.019>
DStem2: -62 -375 91 -375 0.207912 0.978148<31.8105 516.036 769.683 1211.1 1393.48 1455.4> 754.09 -375 906.467 -375 0.207912 0.978148<653.835 1091.96>
LayerCount: 2
Fore
SplineSet
291 582 m 2
 255 412 l 2
 250 388 248 366 248 345 c 3
 248 208 350 125 502 125 c 2
 527 125 l 2
 756 125 891 271 932 462 c 2
 964 612 l 2
 970 643 973 671 973 696 c 3
 973 803 921 899 719 899 c 2
 694 899 l 2
 460 899 330 766 291 582 c 2
91 -375 m 1
 -62 -375 l 1
 234 1050 l 1
 388 1050 l 1
 369 958 l 1
 457 1016 566 1049 694 1049 c 2
 719 1049 l 2
 990 1049 1123 901 1123 696 c 3
 1123 659 1118 621 1110 582 c 2
 1078 432 l 2
 1022 171 826 -25 527 -25 c 2
 502 -25 l 2
 372 -25 262 21 190 99 c 1
 91 -375 l 1
EndSplineSet
Validated: 3073
EndChar

StartChar: q
Encoding: 113 113 80
Width: 1229
VWidth: 1947
GlyphClass: 2
Flags: W
HStem: -375 21G<757 914.154> -25 150<349.246 723.515> 899 150<492.062 897.848>
VStem: 100 150<216.86 599.299> 757 153<-375 -222>
DStem2: -64.7843 -375 87.5924 -375 0.207912 0.978148<779.482 1198.93> 757 -375 910 -375 0.207912 0.978148<31.8105 455.59 655.755 1091.77 1344.21 1455.4>
LayerCount: 2
Fore
SplineSet
291 582 m 2
 257 422 l 2
 252 398 250 375 250 354 c 3
 250 213 353 125 502 125 c 2
 527 125 l 2
 749 125 889 260 927 444 c 2
 969 645 l 2
 973 663 973 680 973 696 c 0
 973 803 921 899 719 899 c 2
 694 899 l 2
 460 899 330 766 291 582 c 2
694 1049 m 2
 719 1049 l 2
 860 1049 964 1008 1031 941 c 1
 1053 1050 l 1
 1206 1050 l 1
 910 -375 l 1
 757 -375 l 1
 850 71 l 1
 763 10 654 -25 527 -25 c 2
 502 -25 l 2
 267 -25 100 132 100 354 c 3
 100 386 104 418 111 452 c 2
 145 612 l 2
 201 876 400 1049 694 1049 c 2
EndSplineSet
Validated: 3073
EndChar

StartChar: r
Encoding: 114 114 81
Width: 1229
VWidth: 1947
GlyphClass: 2
Flags: W
HStem: 0 21G<16 173.176> 899 151<624.141 1015>
VStem: 16 153<0 153> 234 154<896 1050>
DStem2: 16 0 169 0 0.207912 0.978148<31.8105 680.564 898.08 1072.38>
LayerCount: 2
Fore
SplineSet
822 899 m 2
 797 899 l 2
 571 899 305 650 264 455 c 2
 169 0 l 1
 16 0 l 1
 234 1050 l 1
 388 1050 l 1
 346 848 l 1
 474 965 637 1049 797 1049 c 2
 822 1049 l 2
 992 1049 1111 1008 1169 899 c 1
 1037 829 l 1
 1022 858 984 899 822 899 c 2
EndSplineSet
Validated: 3073
EndChar

StartChar: s
Encoding: 115 115 82
Width: 1229
VWidth: 1947
GlyphClass: 2
Flags: W
HStem: -25 150<300.641 772.945> 899 150<466.606 904.214>
VStem: 80 150<189.019 281> 220 150<680.046 822.098> 903 150<220.852 395.859>
DStem2: 429 673 389 529 0.964813 -0.262938<-71.9191 542.53>
LayerCount: 2
Fore
SplineSet
220 748 m 3xd8
 220 888 357 1049 694 1049 c 2
 719 1049 l 2
 900 1049 1067 969 1123 840 c 1
 985 780 l 1
 953 854 834 899 719 899 c 2
 694 899 l 2
 465 899 370 809 370 750 c 3xd8
 370 718 384 686 429 673 c 2
 884 549 l 2
 996 519 1053 417 1053 328 c 3
 1053 315 1052 303 1049 286 c 2
 1039 240 l 2
 994 31 700 -25 527 -25 c 2
 457 -25 l 2
 226 -25 80 125 80 281 c 1
 230 281 l 1xe8
 230 198 325 125 457 125 c 2
 527 125 l 2
 701 125 876 184 893 270 c 2
 899 299 l 2
 900 302 903 323 903 328 c 3
 903 357 890 392 844 405 c 2
 389 529 l 2
 275 560 220 640 220 748 c 3xd8
EndSplineSet
Validated: 3073
EndChar

StartChar: t
Encoding: 116 116 83
Width: 1229
VWidth: 1947
GlyphClass: 2
Flags: W
HStem: -25 150<504.327 767.807> 858 150<227 463 656 989> 1405 20G<601.916 762>
VStem: 320 150<162.377 354.051> 607 155<1270 1425>
DStem2: 330 332 476 300 0.246385 0.969172<-42.3589 542.554 735.482 1127.55>
LayerCount: 2
Fore
SplineSet
640 -25 m 2
 615 -25 l 2
 446 -25 320 97 320 252 c 3
 320 284 322 300 330 332 c 2
 463 858 l 1
 196 858 l 1
 227 1008 l 1
 501 1008 l 1
 607 1425 l 1
 762 1425 l 1
 656 1008 l 1
 1020 1008 l 1
 989 858 l 1
 618 858 l 1
 476 300 l 2
 471 281 470 267 470 252 c 3
 470 176 533 125 615 125 c 2
 640 125 l 2
 730 125 812 188 853 251 c 1
 979 169 l 1
 926 88 804 -25 640 -25 c 2
EndSplineSet
Validated: 3073
EndChar

StartChar: u
Encoding: 117 117 84
Width: 1229
VWidth: 2334
GlyphClass: 2
Flags: W
HStem: -27 152<288.333 647.572> 1003 20G<224.881 382 1043.83 1201>
VStem: 86 150<175.635 531.234> 229 153<870 1023> 829 153<-27 126> 1048 153<870 1023>
DStem2: 10.0644 -27 162.441 -27 0.207912 0.978148<354.054 1072.57> 829 -27 982 -27 0.207912 0.978148<31.8105 172.584 376.173 1072.59>
LayerCount: 2
Fore
SplineSet
243 352 m 2xdc
 238 328 236 306 236 286 c 3
 236 210 268 125 471 125 c 2
 498 125 l 2
 678 125 910 359 934 476 c 2
 1048 1023 l 1
 1201 1023 l 1
 982 -27 l 1
 829 -27 l 1
 864 142 l 1
 758 48 627 -27 498 -27 c 2
 471 -27 l 2
 202 -27 86 110 86 286 c 3xec
 86 318 90 350 97 382 c 2
 229 1023 l 1
 382 1023 l 1
 243 352 l 2xdc
EndSplineSet
Validated: 3073
EndChar

StartChar: v
Encoding: 118 118 85
Width: 1229
VWidth: 1947
GlyphClass: 2
Flags: W
HStem: -25 21G<456.362 571.499> 1003 20G<201.049 355 1021.6 1231>
VStem: 196 150<598.086 1022.23> 199 150<914.124 1023>
DStem2: 527 232 464 -25 0.35676 -0.934196<-607.41 0> 527 232 561 -25 0.464799 0.885416<0 721.6> 956 923 1072 829 0.633889 0.773424<-481.35 129.321>
LayerCount: 2
Fore
SplineSet
349 966 m 2xd0
 347 945 346 924 346 913 c 3
 346 790 375 628 410 537 c 2
 527 232 l 1
 694 550 l 2
 749 655 880 829 956 923 c 2
 1038 1023 l 1
 1231 1023 l 1
 1072 829 l 2
 1000 741 871 565 824 476 c 2
 561 -25 l 1
 464 -25 l 1
 270 483 l 2
 225 601 196 787 196 913 c 3xe0
 196 937 197 960 199 982 c 2
 203 1023 l 1
 355 1023 l 1
 349 966 l 2xd0
EndSplineSet
Validated: 3073
EndChar

StartChar: w
Encoding: 119 119 86
Width: 1229
VWidth: 1947
GlyphClass: 2
Flags: W
HStem: 0 21G<137.957 277.45 784.378 920.866> 1003 20G<187.89 345 1058 1235>
VStem: 117 150<385 853.82>
DStem2: -25.4453 0 127.448 0 0.207912 0.978148<491.238 1045.85> 269 385 438 400 0.389189 0.921158<0 377.007> 484 759 592 655 0.699545 0.714589<-218.066 36.5869> 819 450 677 402 0.270607 -0.96269<-273.084 102.883> 772.393 0 928.639 0 0.207912 0.978148<358.842 918.826> 1068 1023 1176 905 0.447214 0.894427<-403.501 0>
LayerCount: 2
Fore
SplineSet
323 920 m 2
 298 799 267 532 267 442 c 3
 267 436 267 435 267 430 c 2
 269 385 l 1
 300 458 l 2
 340 553 417 691 484 759 c 2
 670 949 l 1
 754 949 l 1
 765 707 l 2
 767 666 802 511 819 450 c 2
 847 351 l 1
 870 447 l 2
 912 621 988 861 1042 971 c 2
 1068 1023 l 1
 1235 1023 l 1
 1176 905 l 2
 1130 813 1059 586 1016 411 c 2
 916 0 l 1
 790 0 l 1
 677 402 l 2
 649 500 622 634 617 680 c 1
 592 655 l 2
 552 614 483 506 438 400 c 2
 269 0 l 1
 139 0 l 1
 117 422 l 2
 117 427 117 436 117 442 c 3
 117 557 153 836 177 950 c 2
 192 1023 l 1
 345 1023 l 1
 323 920 l 2
EndSplineSet
Validated: 3073
EndChar

StartChar: x
Encoding: 120 120 87
Width: 1229
VWidth: 1947
GlyphClass: 2
Flags: W
HStem: 0 21G<-39 245.485 815.049 1000> 1003 20G<217 401.974 1019.34 1214>
VStem: 217 173<850 1023> 827 173<0 173>
DStem2: 390 1023 217 1023 0.512148 -0.858897<0 531.474 720.361 1102.46> 223 188 217 0 0.812474 0.582997<-114.478 406.551> 964 922 1088 838 0.562921 0.826511<-439.148 122.319>
LayerCount: 2
Fore
SplineSet
-39 0 m 1
 223 188 l 2
 335 268 448 361 553 459 c 1
 217 1023 l 1
 390 1023 l 1
 663 567 l 1
 784 689 889 812 964 922 c 2
 1033 1023 l 1
 1214 1023 l 1
 1088 838 l 2
 1001 711 879 569 742 434 c 1
 1000 0 l 1
 827 0 l 1
 631 328 l 1
 527 233 418 143 311 66 c 2
 217 0 l 1
 -39 0 l 1
EndSplineSet
Validated: 3073
EndChar

StartChar: y
Encoding: 121 121 88
Width: 1229
VWidth: 1947
GlyphClass: 2
Flags: W
HStem: -369 150<109.974 395.372> 1003 20G<228 381.646 1050.48 1230>
VStem: 228 151<872 1023> 1061 169<854 1023>
DStem2: 379 1023 228 1023 0.132785 -0.991145<0 409.527> 484 -75 616 -145 0.465309 0.885148<-153.983 237.307 389.597 1240.38>
LayerCount: 2
Fore
SplineSet
616 -145 m 2
 542 -286 415 -369 257 -369 c 2
 228 -369 l 2
 76 -369 -9 -288 -41 -225 c 2
 -51 -205 l 1
 81 -135 l 1
 93 -157 l 2
 105 -178 151 -219 228 -219 c 2
 257 -219 l 2
 359 -219 437 -165 484 -75 c 2
 586 119 l 1
 428 343 276 667 256 814 c 2
 228 1023 l 1
 379 1023 l 1
 404 834 l 2
 418 736 528 481 665 270 c 1
 1061 1023 l 1
 1230 1023 l 1
 616 -145 l 2
EndSplineSet
Validated: 3073
EndChar

StartChar: z
Encoding: 122 122 89
Width: 1229
VWidth: 1947
GlyphClass: 2
Flags: W
HStem: 0 150<275 985> 874 149<271 921>
DStem2: 50 159 275 150 0.772802 0.634647<168.169 1126.88>
LayerCount: 2
Fore
SplineSet
240 874 m 1
 271 1023 l 1
 1199 1023 l 1
 1170 885 l 1
 275 150 l 1
 1016 150 l 1
 985 0 l 1
 17 0 l 1
 50 159 l 1
 921 874 l 1
 240 874 l 1
EndSplineSet
Validated: 3073
EndChar

StartChar: braceleft
Encoding: 123 123 90
Width: 1229
VWidth: 1947
GlyphClass: 2
Flags: W
HStem: -155 150<597.975 799> 657 150<339 470.359> 1405 150<895.047 1123>
VStem: 424 150<22.5068 338.625> 495 150<262.125 638.643>
DStem2: 362.281 -155 514.658 -155 0.207912 0.978148<299.82 678.031 1037.6 1577.56>
LayerCount: 2
Fore
SplineSet
495 511 m 3xe8
 495 646 424 657 395 657 c 2
 308 657 l 1
 339 807 l 1
 395 807 l 2
 503 807 584 903 601 985 c 2
 658 1257 l 2
 698 1447 870 1555 1050 1555 c 2
 1154 1555 l 1
 1123 1405 l 1
 1050 1405 l 2
 930 1405 827 1337 804 1227 c 2
 747 955 l 2
 728 864 669 773 584 716 c 1
 630 656 645 578 645 511 c 3xe8
 645 479 642 447 635 415 c 2
 578 143 l 2
 575 129 574 117 574 106 c 3
 574 11 670 -5 726 -5 c 2
 830 -5 l 1
 799 -155 l 1
 726 -155 l 2
 548 -155 424 -51 424 106 c 3xf0
 424 128 427 150 432 173 c 2
 489 445 l 2
 493 467 495 489 495 511 c 3xe8
EndSplineSet
Validated: 3073
EndChar

StartChar: bar
Encoding: 124 124 91
Width: 1229
VWidth: 1947
GlyphClass: 2
Flags: W
VStem: 411 154<-72 82> 732 154<1319 1473>
DStem2: 411 -72 565 -72 0.207912 0.978148<32.0184 1577.98>
LayerCount: 2
Fore
SplineSet
411 -72 m 1
 732 1473 l 1
 886 1473 l 1
 565 -72 l 1
 411 -72 l 1
EndSplineSet
Validated: 3073
EndChar

StartChar: braceright
Encoding: 125 125 92
Width: 1229
VWidth: 1947
GlyphClass: 2
Flags: W
HStem: -155 150<170 387.452> 657 150<812.926 968> 1405 150<494 688.025>
VStem: 644 150<824.872 1154.88> 712 150<1193.08 1376.39>
DStem2: 412.281 -155 564.658 -155 0.207912 0.978148<209.171 792.962 1133.33 1479.15>
LayerCount: 2
Fore
SplineSet
560 1555 m 2xe8
 738 1555 862 1451 862 1294 c 3xe8
 862 1272 859 1250 854 1227 c 2
 797 955 l 2
 795 944 794 933 794 922 c 3xf0
 794 894 801 807 905 807 c 2
 999 807 l 1
 968 657 l 1
 905 657 l 2
 801 657 710 534 685 415 c 2
 628 143 l 2
 588 -47 416 -155 236 -155 c 2
 139 -155 l 1
 170 -5 l 1
 236 -5 l 2
 357 -5 459 64 482 173 c 2
 539 445 l 2
 559 538 617 661 712 737 c 1xe8
 667 786 644 854 644 922 c 3xf0
 644 943 647 964 651 985 c 2
 708 1257 l 2
 711 1271 712 1283 712 1294 c 3
 712 1389 616 1405 560 1405 c 2
 463 1405 l 1
 494 1555 l 1
 560 1555 l 2xe8
EndSplineSet
Validated: 3073
EndChar

StartChar: asciitilde
Encoding: 126 126 93
Width: 1229
VWidth: 1947
GlyphClass: 2
Flags: W
HStem: 758 150<762.548 917.185> 902 150<474.15 642.594>
DStem2: 726 988 618 884 0.701517 -0.712652<-64.7507 149.31>
LayerCount: 2
Fore
SplineSet
289 870 m 1x40
 381 1008 492 1052 543 1052 c 2
 558 1052 l 2x40
 612 1052 681 1035 726 988 c 2
 787 926 l 2
 798 915 816 908 826 908 c 2
 841 908 l 2
 880 908 934 954 963 1011 c 1
 1097 943 l 1
 1076 901 1004 774 841 758 c 2
 826 758 l 2x80
 764 758 708 793 681 820 c 2
 618 884 l 2
 609 893 588 902 572 902 c 2
 557 902 l 2
 536 902 475 879 419 794 c 1
 289 870 l 1x40
EndSplineSet
Validated: 3073
EndChar

StartChar: cent
Encoding: 162 162 96
Width: 1229
VWidth: 2334
GlyphClass: 2
Flags: W
HStem: -27 150<512 793.463> 900 150<491.641 733.059>
VStem: 98 150<209.578 590.669>
DStem2: -15.5581 -144 136.819 -144 0.207912 0.978148<533.097 962.866> 244 -76 378 -144 0.448873 0.893596<0 110.124 298.123 1092.1 1302.12 1445.23>
LayerCount: 2
Fore
SplineSet
694 900 m 2
 461 900 330 766 291 582 c 2
 255 412 l 2
 250 388 248 365 248 344 c 3
 248 256 290 190 360 154 c 1
 734 900 l 1
 694 900 l 2
893 1216 m 1
 1027 1148 l 1
 963 1020 l 1
 1092 974 1128 874 1137 847 c 1
 991 813 l 1
 986 829 966 864 894 884 c 1
 512 123 l 1
 526 123 l 2
 721 123 819 160 869 231 c 1
 991 145 l 1
 897 11 733 -27 526 -27 c 2
 501 -27 l 2
 480 -27 458 -25 438 -23 c 1
 378 -144 l 1
 244 -76 l 1
 292 20 l 1
 173 81 98 196 98 344 c 3
 98 376 102 409 109 442 c 2
 145 612 l 2
 201 876 399 1050 694 1050 c 2
 719 1050 l 2
 749 1050 779 1049 808 1047 c 1
 893 1216 l 1
EndSplineSet
Validated: 3073
EndChar

StartChar: sterling
Encoding: 163 163 97
Width: 1229
VWidth: 1947
GlyphClass: 2
Flags: W
HStem: -25 150<542.748 907.917> 49 150<362 529.567> 656 150<185 304 542 931> 1275 150<541.007 994.775>
VStem: 234 150<891.191 1146.37> 398 150<463.567 656>
DStem2: -9 128 47 -10 0.920967 0.38964<-55.6831 252.898> 273.896 -32 426.698 -32 0.207912 0.978148<398.809 623.963> 555 163 529 5 0.870563 -0.492057<-113.68 156.466>
LayerCount: 2
Fore
SplineSet
797 1275 m 2x7c
 772 1275 l 2
 534 1275 416 1182 392 1068 c 2
 388 1049 l 2
 387 1043 384 1023 384 1020 c 3
 384 996 395 950 424 899 c 2
 477 806 l 1
 962 806 l 1
 931 656 l 1
 542 656 l 1
 546 635 548 609 548 580 c 3
 548 552 545 526 540 501 c 2
 530 454 l 2
 511 366 445 277 362 199 c 1
 384 199 l 2x7c
 424 199 505 191 555 163 c 2
 601 137 l 2
 608 133 661 125 687 125 c 2
 738 125 l 2
 793 125 862 136 921 177 c 1
 1007 53 l 1
 938 5 846 -25 738 -25 c 2
 687 -25 l 2xbc
 655 -25 569 -17 529 5 c 2
 483 31 l 2
 472 37 434 49 384 49 c 2
 342 49 l 2
 239 49 175 44 47 -10 c 2
 -5 -32 l 1
 -61 108 l 1
 -9 128 l 2
 131 182 359 365 384 486 c 2
 394 531 l 2
 398 550 398 570 398 580 c 3
 398 613 393 639 387 656 c 1
 154 656 l 1
 185 806 l 1
 304 806 l 1
 292 827 l 2
 246 914 234 982 234 1020 c 3
 234 1028 236 1051 238 1059 c 2
 246 1098 l 2
 288 1302 483 1425 772 1425 c 2
 797 1425 l 2
 934 1425 1086 1387 1166 1275 c 1
 1044 1188 l 1
 1010 1236 927 1275 797 1275 c 2x7c
EndSplineSet
Validated: 3073
EndChar

StartChar: euro
Encoding: 8364 8364 98
Width: 1229
VWidth: 1947
GlyphClass: 2
Flags: W
HStem: -25 150<383.261 737.665> 460 150<115 203 387 632> 782 150<230 270 454 890> 1275 150<631.91 999.123>
VStem: 176 150<173.803 458.531> 1056 150<1078.85 1220.18>
DStem2: 100.702 -25 253.079 -25 0.207912 0.978148<351.032 495.671 680.648 824.564 1009.54 1264.76>
LayerCount: 2
Fore
SplineSet
199 782 m 1
 230 932 l 1
 301 932 l 1
 332 1078 l 2
 360 1209 504 1425 826 1425 c 2
 854 1425 l 2
 1135 1425 1193 1249 1206 1080 c 1
 1056 1068 l 1
 1045 1213 1010 1275 854 1275 c 2
 826 1275 l 2
 580 1275 492 1114 478 1048 c 2
 454 932 l 1
 921 932 l 1
 890 782 l 1
 423 782 l 1
 387 610 l 1
 664 610 l 1
 632 460 l 1
 356 460 l 1
 333 351 l 2
 328 329 326 306 326 285 c 3
 326 220 346 125 557 125 c 2
 584 125 l 2
 718 125 795 186 884 338 c 1
 1014 262 l 1
 918 98 802 -25 584 -25 c 2
 557 -25 l 2
 264 -25 176 134 176 285 c 3
 176 318 181 351 187 381 c 2
 203 460 l 1
 83 460 l 1
 115 610 l 1
 234 610 l 1
 270 782 l 1
 199 782 l 1
EndSplineSet
Validated: 3073
EndChar

StartChar: yen
Encoding: 165 165 99
Width: 1229
VWidth: 1947
GlyphClass: 2
Flags: W
HStem: 48 150<133 437 621 917> 307 150<187 491 676 971> 1380 20G<288 448.526 1119.17 1316>
VStem: 288 155<1245 1400> 393 153<-160 -7> 1133 183<1217 1400>
DStem2: 443 1400 288 1400 0.266693 -0.963781<0 739.715> 393 -160 546 -160 0.207912 0.978148<31.8105 212.603 397.581 477.17 662.356 685.653> 640 687 681 483 0.569303 0.822128<0 866.844>
LayerCount: 2
Fore
SplineSet
187 457 m 1xec
 523 457 l 1
 534 511 l 1
 288 1400 l 1
 443 1400 l 1xf4
 640 687 l 1
 1133 1400 l 1
 1316 1400 l 1
 681 483 l 1
 676 457 l 1
 1003 457 l 1
 971 307 l 1
 644 307 l 1
 621 198 l 1
 949 198 l 1
 917 48 l 1
 590 48 l 1
 546 -160 l 1
 393 -160 l 1
 437 48 l 1
 101 48 l 1
 133 198 l 1
 468 198 l 1
 491 307 l 1
 155 307 l 1
 187 457 l 1xec
EndSplineSet
Validated: 3073
EndChar

StartChar: section
Encoding: 167 167 101
Width: 1229
VWidth: 1947
GlyphClass: 2
Flags: W
HStem: -169 150<368.678 694.33> 310 150<404.352 769.056> 921 150<536.414 884.337> 1415 150<605.963 926.632>
VStem: 154 150<550.371 761.792> 340 149<1119.41 1305.69> 816 150<88.6146 265.514> 992 150<635.784 822.41>
LayerCount: 2
Fore
SplineSet
424 1014 m 1
 342 1087 340 1171 340 1192 c 3
 340 1207 343 1230 345 1240 c 2
 350 1263 l 2
 383 1424 551 1565 760 1565 c 2
 784 1565 l 2
 942 1565 1090 1470 1144 1351 c 1
 1008 1289 l 1
 983 1343 895 1415 784 1415 c 2
 760 1415 l 2
 611 1415 514 1312 496 1231 c 2
 491 1208 l 2
 490 1203 489 1197 489 1192 c 3
 489 1120 590 1071 700 1071 c 2
 724 1071 l 2
 972 1071 1142 897 1142 728 c 3
 1142 713 1140 697 1136 677 c 2
 1126 631 l 2
 1102 520 1010 441 876 374 c 1
 962 309 966 216 966 200 c 3
 966 192 964 169 961 156 c 2
 956 134 l 2
 921 -35 745 -169 538 -169 c 2
 514 -169 l 2
 353 -169 202 -72 149 52 c 1
 287 110 l 1
 310 54 398 -19 514 -19 c 2
 538 -19 l 2
 682 -19 790 72 810 164 c 2
 813 177 l 2
 814 181 816 195 816 199 c 3
 816 256 726 310 596 310 c 2
 572 310 l 2
 275 310 154 511 154 661 c 3
 154 681 157 703 161 723 c 2
 171 769 l 2
 194 877 287 952 424 1014 c 1
724 921 m 2
 699 921 l 2
 469 921 335 819 317 737 c 2
 307 691 l 2
 305 681 304 671 304 661 c 3
 304 558 407 460 572 460 c 2
 597 460 l 2
 813 460 957 567 980 663 c 2
 987 692 l 2
 989 700 992 722 992 728 c 3
 992 802 897 921 724 921 c 2
EndSplineSet
Validated: 3073
EndChar

StartChar: copyright
Encoding: 169 169 103
Width: 1229
VWidth: 1947
GlyphClass: 2
Flags: W
HStem: -5 150<419.558 810.148> 289 150<508.866 764.035> 745 150<510.26 763.977> 1039 150<421.532 810.206>
VStem: 36 150<384.614 802.283> 319 150<480.181 705.186> 1043 150<388.447 800.778>
LayerCount: 2
Fore
SplineSet
624 289 m 0
 433 289 319 427 319 592 c 0
 319 762 439 895 624 895 c 0
 708 895 786 870 846 807 c 1
 738 703 l 1
 708 734 664 745 624 745 c 0
 515 745 469 672 469 592 c 0
 469 514 514 439 624 439 c 0
 692 439 727 471 738 483 c 1
 846 379 l 1
 794 324 719 289 624 289 c 0
614 1039 m 0
 333 1039 186 826 186 593 c 0
 186 362 329 145 614 145 c 0
 902 145 1043 370 1043 593 c 0
 1043 822 904 1039 614 1039 c 0
1193 593 m 0
 1193 294 992 -5 614 -5 c 0
 241 -5 36 284 36 593 c 0
 36 906 247 1189 614 1189 c 0
 990 1189 1193 903 1193 593 c 0
EndSplineSet
Validated: 3073
EndChar

StartChar: ordfeminine
Encoding: 170 170 104
Width: 1229
VWidth: 1947
GlyphClass: 2
Flags: W
HStem: 214 150<164 953> 518 150<476.281 740.527> 938 150<533.98 893> 1307 150<603.984 917.141>
VStem: 305 150<694.21 870.735> 940 150<1089.21 1283.34>
DStem2: 741.156 214 893.156 214 0.207912 0.978148<377.154 383.198 564.423 739.749 892.916 995.28>
LayerCount: 2
Fore
SplineSet
697 938 m 2
 519 938 472 844 464 808 c 2
 459 785 l 2
 457 779 455 764 455 761 c 3
 455 708 514 668 610 668 c 2
 629 668 l 2
 714 668 864 795 881 878 c 2
 893 938 l 1
 697 938 l 2
965 552 m 1
 813 552 l 1
 820 589 l 1
 766 552 702 518 629 518 c 2
 610 518 l 2
 406 518 305 646 305 760 c 3
 305 774 306 787 309 800 c 2
 316 838 l 2
 329 901 403 1088 697 1088 c 2
 924 1088 l 1
 935 1137 l 2
 939 1157 940 1174 940 1190 c 3
 940 1255 911 1307 793 1307 c 2
 774 1307 l 2
 681 1307 610 1285 566 1224 c 1
 444 1310 l 1
 516 1411 630 1457 774 1457 c 2
 793 1457 l 2
 994 1457 1090 1340 1090 1190 c 3
 1090 1163 1087 1135 1081 1107 c 2
 965 552 l 1
985 364 m 1
 953 214 l 1
 132 214 l 1
 164 364 l 1
 985 364 l 1
EndSplineSet
Validated: 3073
EndChar

StartChar: guillemotleft
Encoding: 171 171 105
Width: 1229
VWidth: 1947
GlyphClass: 2
Flags: W
DStem2: 381 432 225 418 0.362866 -0.931841<0 300.918> 251 545 391 479 0.627993 0.778219<36.5566 405.75> 801 432 645 418 0.362866 -0.931841<0 300.918> 671 545 811 479 0.627993 0.778219<36.5566 405.75>
LayerCount: 2
Fore
SplineSet
350 97 m 1
 225 418 l 1
 251 545 l 1
 506 861 l 1
 622 767 l 1
 391 479 l 1
 381 432 l 1
 490 151 l 1
 350 97 l 1
770 97 m 1
 645 418 l 1
 671 545 l 1
 926 861 l 1
 1042 767 l 1
 811 479 l 1
 801 432 l 1
 910 151 l 1
 770 97 l 1
EndSplineSet
Validated: 3073
EndChar

StartChar: logicalnot
Encoding: 172 172 106
Width: 1229
VWidth: 1708
GlyphClass: 2
Flags: W
HStem: 525 150<234 815>
VStem: 751 153<213 366>
DStem2: 751 213 904 213 0.207912 0.978148<31.8105 318.488>
LayerCount: 2
Fore
SplineSet
751 213 m 1
 815 525 l 1
 202 525 l 1
 234 675 l 1
 999 675 l 1
 904 213 l 1
 751 213 l 1
EndSplineSet
Validated: 3073
EndChar

StartChar: softhyphen
Encoding: 173 173 107
Width: 1229
VWidth: 1947
GlyphClass: 2
Flags: W
HStem: 525 150<389 867>
VStem: 389 478<525 675>
LayerCount: 2
Fore
SplineSet
867 675 m 1
 867 525 l 1
 389 525 l 1
 389 675 l 1
 867 675 l 1
EndSplineSet
Validated: 3073
EndChar

StartChar: registered
Encoding: 174 174 108
Width: 1229
VWidth: 1947
GlyphClass: 2
Flags: W
HStem: -5 150<419.558 810.148> 497 130<543 597> 753 130<543 710.364> 1039 150<421.532 810.206>
VStem: 36 150<386.243 796.994> 393 150<312 497 627 753> 711 150<631.56 746.57> 1043 150<390.076 802.613>
LayerCount: 2
Fore
SplineSet
614 1039 m 0
 333 1039 186 827 186 595 c 0
 186 364 329 145 614 145 c 0
 902 145 1043 372 1043 595 c 0
 1043 824 904 1039 614 1039 c 0
1193 595 m 0
 1193 296 992 -5 614 -5 c 0
 241 -5 36 286 36 595 c 0
 36 908 247 1189 614 1189 c 0
 990 1189 1193 906 1193 595 c 0
711 705 m 2
 711 721 697 753 632 753 c 2
 543 753 l 1
 543 627 l 1
 632 627 l 2
 698 627 711 666 711 685 c 2
 711 705 l 2
632 883 m 2
 844 883 861 767 861 715 c 2
 861 675 l 2
 861 599 822 546 759 519 c 1
 862 351 l 1
 734 273 l 1
 597 497 l 1
 543 497 l 1
 543 312 l 1
 393 312 l 1
 393 883 l 1
 632 883 l 2
EndSplineSet
Validated: 3073
EndChar

StartChar: degree
Encoding: 176 176 110
Width: 1229
VWidth: 1947
GlyphClass: 2
Flags: W
HStem: 807 150<642.744 867.649> 1258 150<643.538 867.879>
VStem: 455 150<995.888 1220.36> 905 150<996.785 1220.19>
LayerCount: 2
Fore
SplineSet
755 1258 m 0
 649 1258 605 1186 605 1108 c 0
 605 1030 648 957 755 957 c 0
 863 957 905 1033 905 1108 c 0
 905 1172 875 1258 755 1258 c 0
1055 1108 m 0
 1055 946 943 807 755 807 c 0
 568 807 455 944 455 1108 c 0
 455 1275 571 1408 755 1408 c 0
 944 1408 1055 1273 1055 1108 c 0
EndSplineSet
Validated: 3073
EndChar

StartChar: plusminus
Encoding: 177 177 111
Width: 1229
VWidth: 1947
GlyphClass: 2
Flags: W
HStem: 83 150<140 927> 787 150<287 590 774 1075>
VStem: 514 153<423 576> 691 153<1119 1272>
DStem2: 441.731 83 594.731 83 0.207912 0.978148<379.406 719.443 904.421 1214.84>
LayerCount: 2
Fore
SplineSet
514 423 m 1
 590 787 l 1
 256 787 l 1
 287 937 l 1
 621 937 l 1
 691 1272 l 1
 844 1272 l 1
 774 937 l 1
 1106 937 l 1
 1075 787 l 1
 743 787 l 1
 667 423 l 1
 514 423 l 1
959 233 m 1
 927 83 l 1
 108 83 l 1
 140 233 l 1
 959 233 l 1
EndSplineSet
Validated: 3073
EndChar

StartChar: twosuperior
Encoding: 178 178 112
Width: 1229
VWidth: 2334
GlyphClass: 2
Flags: W
HStem: 575 150<606 919> 1290 150<704.707 906.543>
VStem: 908 150<1143.08 1286.53>
DStem2: 584 916 678 800 0.788502 0.615032<-96.3828 439.87>
LayerCount: 2
Fore
SplineSet
808 1440 m 2
 821 1440 l 2
 890 1440 1058 1427 1058 1255 c 3
 1058 1239 1056 1222 1052 1201 c 2
 1047 1179 l 2
 1037 1133 992 1045 926 993 c 2
 678 800 l 2
 654 780 629 753 606 725 c 1
 950 725 l 1
 919 575 l 1
 358 575 l 1
 398 677 l 2
 432 763 531 875 584 916 c 2
 834 1111 l 2
 871 1140 898 1198 901 1211 c 2
 905 1226 l 2
 906 1231 908 1246 908 1255 c 3
 908 1269 908 1290 821 1290 c 2
 808 1290 l 2
 732 1290 698 1246 661 1198 c 1
 541 1290 l 1
 595 1361 668 1440 808 1440 c 2
EndSplineSet
Validated: 3073
EndChar

StartChar: threesuperior
Encoding: 179 179 113
Width: 1229
VWidth: 2334
GlyphClass: 2
Flags: W
HStem: 557 150<570.797 742.458> 947 150<626 792.447> 1285 147<675.984 837.601>
VStem: 410 150<713.54 781> 794 150<763.085 942.942> 838 150<1203 1283.79>
LayerCount: 2
Fore
SplineSet
772 1432 m 2xf8
 794 1432 l 2xf8
 962 1432 988 1310 988 1247 c 3xf4
 988 1232 987 1218 983 1198 c 2
 979 1175 l 2
 967 1108 924 1062 890 1029 c 1
 924 993 944 945 944 891 c 3
 944 876 941 847 940 841 c 2
 935 820 l 2
 899 668 799 557 641 557 c 2
 629 557 l 2
 513 557 410 655 410 781 c 1
 560 781 l 1
 560 736 600 707 629 707 c 2
 641 707 l 2
 677 707 760 717 787 850 c 2
 790 865 l 2
 791 869 794 887 794 891 c 3xf8
 794 936 754 947 722 947 c 2
 594 947 l 1
 626 1097 l 1
 715 1097 l 2
 752 1097 823 1154 831 1203 c 2
 835 1226 l 2
 837 1234 838 1241 838 1247 c 3xf4
 838 1270 831 1285 794 1285 c 2
 780 1285 l 2
 729 1285 678 1254 657 1223 c 1
 531 1305 l 1
 551 1336 627 1432 772 1432 c 2xf8
EndSplineSet
Validated: 3073
EndChar

StartChar: micro
Encoding: 181 181 115
Width: 1229
VWidth: 2334
GlyphClass: 2
Flags: W
HStem: -25 150<325.578 695.447> -0 21G<853 1007> 1003 20G<224.857 383 1043.86 1202>
VStem: 229 154<869 1023> 851 152<0 87.8086> 1048 154<869 1023>
DStem2: -56.8441 -348 95.5326 -348 0.207912 0.978148<51.5489 476.4 722.647 1400.47> 759.945 -348 914.176 -348 0.207912 0.978148<636.658 1400.93>
LayerCount: 2
Fore
SplineSet
-129 -348 m 1xbc
 -70 -272 -12 -141 15 -10 c 2
 229 1023 l 1
 383 1023 l 1
 249 382 l 2
 245 363 244 344 244 326 c 3
 244 214 319 125 502 125 c 2
 527 125 l 2xbc
 721 125 899 305 920 405 c 2
 1048 1023 l 1
 1202 1023 l 1
 1006 84 l 2
 1004 75 1003 64 1003 51 c 3
 1003 35 1005 17 1007 0 c 1
 957 0 904 0 854 -0 c 1x7c
 852 18 851 35 851 49 c 3
 851 69 852 84 854 92 c 1
 761 23 647 -25 527 -25 c 2
 502 -25 l 2
 360 -25 256 19 188 87 c 1
 161 -40 l 2
 140 -140 101 -253 49 -348 c 1
 -129 -348 l 1xbc
EndSplineSet
Validated: 3073
EndChar

StartChar: paragraph
Encoding: 182 182 116
Width: 1229
VWidth: 1947
GlyphClass: 2
Flags: W
HStem: 0 21G<427 584.181 835 992.176> 1325 150<857 1112>
VStem: 427 153<0 153> 835 153<0 153>
DStem2: 427 0 580 0 0.207912 0.978148<31.8105 698.784> 835 0 988 0 0.207912 0.978148<31.8105 1353.64>
LayerCount: 2
Fore
SplineSet
557 684 m 2
 263 684 225 864 225 965 c 3
 225 998 229 1034 237 1072 c 2
 252 1142 l 2
 301 1369 522 1475 691 1475 c 2
 1296 1475 l 1
 988 0 l 1
 835 0 l 1
 1112 1325 l 1
 857 1325 l 1
 580 0 l 1
 427 0 l 1
 570 684 l 1
 557 684 l 2
EndSplineSet
Validated: 3073
EndChar

StartChar: periodcentered
Encoding: 183 183 117
Width: 1229
VWidth: 1947
GlyphClass: 2
Flags: W
HStem: 636 222<578.767 754.466>
VStem: 556 221<658.729 835.565>
LayerCount: 2
Fore
SplineSet
777 747 m 0
 777 688 731 636 666 636 c 0
 603 636 556 687 556 747 c 0
 556 805 600 858 666 858 c 0
 731 858 777 807 777 747 c 0
EndSplineSet
Validated: 3073
EndChar

StartChar: onesuperior
Encoding: 185 185 119
Width: 1229
VWidth: 1708
GlyphClass: 2
Flags: W
HStem: 1405 20G<819.45 959>
VStem: 644 153<639 792>
DStem2: 644 639 797 639 0.207912 0.978148<31.8105 619.725>
LayerCount: 2
Fore
SplineSet
644 639 m 1
 769 1246 l 1
 644 1190 l 1
 612 1236 l 1
 844 1425 l 1
 959 1425 l 1
 797 639 l 1
 644 639 l 1
EndSplineSet
Validated: 3073
EndChar

StartChar: ordmasculine
Encoding: 186 186 120
Width: 1229
VWidth: 1947
GlyphClass: 2
Flags: W
HStem: 214 150<169 956> 523 150<495.814 777.05> 1310 150<641.553 925.038>
VStem: 300 150<719.525 1079.48> 963 150<907.624 1272.96>
LayerCount: 2
Fore
SplineSet
300 860 m 3
 300 1040 398 1460 792 1460 c 3
 1003 1460 1113 1338 1113 1137 c 3
 1113 950 1016 523 629 523 c 3
 417 523 300 653 300 860 c 3
629 673 m 3
 900 673 963 1006 963 1137 c 3
 963 1264 909 1310 792 1310 c 3
 518 1310 450 994 450 860 c 3
 450 711 528 673 629 673 c 3
987 364 m 1
 956 214 l 1
 138 214 l 1
 169 364 l 1
 987 364 l 1
EndSplineSet
Validated: 3073
EndChar

StartChar: guillemotright
Encoding: 187 187 121
Width: 1229
VWidth: 1947
GlyphClass: 2
Flags: W
DStem2: 160 171 276 77 0.629198 0.777245<0 368.414> 432 841 292 787 0.360913 -0.932599<0 301.233> 580 171 696 77 0.629198 0.777245<0 368.414> 852 841 712 787 0.360913 -0.932599<0 301.233>
LayerCount: 2
Fore
SplineSet
811 458 m 1
 821 506 l 1
 712 787 l 1
 852 841 l 1
 977 518 l 1
 951 392 l 1
 696 77 l 1
 580 171 l 1
 811 458 l 1
391 458 m 1
 401 506 l 1
 292 787 l 1
 432 841 l 1
 557 518 l 1
 531 392 l 1
 276 77 l 1
 160 171 l 1
 391 458 l 1
EndSplineSet
Validated: 3073
EndChar

StartChar: OE
Encoding: 338 338 122
Width: 1229
VWidth: 1947
GlyphClass: 2
Flags: W
HStem: 0 150<203.781 464.007 659 1027> 657 150<796 1088> 1250 150<446.949 684.75 888 1288>
VStem: 35 150<172.234 337.881>
DStem2: -23.5544 0 128.822 0 0.207912 0.978148<290.174 1256.14> 473.359 0 627.117 0 0.207912 0.978148<193.349 703.279 856.446 1157.59>
LayerCount: 2
Fore
SplineSet
570 1400 m 2
 601 1400 l 2
 661 1400 713 1381 755 1349 c 1
 766 1400 l 1
 1319 1400 l 1
 1288 1250 l 1
 888 1250 l 1
 796 807 l 1
 1119 807 l 1
 1088 657 l 1
 765 657 l 1
 659 150 l 1
 1058 150 l 1
 1027 0 l 1
 475 0 l 1
 481 32 l 1
 438 12 390 0 341 0 c 2
 310 0 l 2
 129 0 35 130 35 252 c 3
 35 266 36 280 40 299 c 2
 208 1111 l 2
 236 1243 385 1400 570 1400 c 2
354 1081 m 2
 186 269 l 2
 185 264 185 259 185 252 c 3
 185 205 220 150 310 150 c 2
 341 150 l 2
 440 150 523 232 535 290 c 2
 706 1111 l 2
 707 1118 708 1125 708 1134 c 3
 708 1186 675 1250 601 1250 c 2
 570 1250 l 2
 450 1250 366 1136 354 1081 c 2
EndSplineSet
Validated: 3073
EndChar

StartChar: oe
Encoding: 339 339 123
Width: 1229
VWidth: 1947
GlyphClass: 2
Flags: W
HStem: -25 150<223.232 425.077 635.257 840.257> 467 150<710 964> 899 150<380.992 585.366 796.561 996.469>
VStem: 65 150<134.733 429.812> 1004 150<727.997 889.717>
DStem2: 10.5712 -25 162.948 -25 0.207912 0.978148<262.068 955.197> 421.571 -25 573.948 -25 0.207912 0.978148<270.008 534.563 687.938 859.291> 828.571 -25 982.948 -25 0.207912 0.978148<173.58 295.456 656.128 867.395>
LayerCount: 2
Fore
SplineSet
595 817 m 3
 595 893 519 898 503 899 c 3
 397 899 342 829 328 760 c 2
 218 234 l 2
 215 221 215 209 215 199 c 3
 215 131 279 125 311 125 c 3
 407 125 471 203 483 264 c 2
 593 790 l 2
 595 801 595 809 595 817 c 3
719 -25 m 3
 675 -25 589 -21 526 58 c 1
 472 9 399 -25 311 -25 c 3
 126 -25 65 99 65 199 c 3
 65 221 68 243 72 264 c 2
 182 790 l 2
 211 927 323 1049 503 1049 c 3
 521 1049 637 1043 695 965 c 1
 749 1014 823 1049 911 1049 c 3
 1094 1049 1154 918 1154 825 c 3
 1154 803 1151 781 1147 760 c 2
 1086 467 l 1
 678 467 l 1
 629 234 l 2
 627 223 627 215 627 207 c 3
 627 133 694 125 719 125 c 3
 822 125 875 191 890 264 c 1
 1038 234 l 1
 1010 95 898 -25 719 -25 c 3
1004 825 m 3
 1004 888 943 899 911 899 c 3
 808 899 750 813 739 760 c 2
 710 617 l 1
 964 617 l 1
 1001 790 l 2
 1004 803 1004 814 1004 825 c 3
EndSplineSet
Validated: 3073
EndChar

StartChar: AE
Encoding: 198 198 132
Width: 1229
VWidth: 1947
GlyphClass: 2
Flags: W
HStem: 0 150<719 1027> 689 150<480 678 863 1095> 1250 150<654.026 795 948 1288>
VStem: -40 163<0 163>
DStem2: -40 0 123 0 0.391043 0.920372<63.74 812.452 975.535 1421.31> 535 0 687.117 0 0.207912 0.978148<184.978 703.675 888.861 1276.74>
LayerCount: 2
Fore
SplineSet
709 839 m 1
 795 1250 l 1
 669 1249 635 1202 607 1138 c 2
 480 839 l 1
 709 839 l 1
-40 0 m 1
 469 1198 l 2
 519 1315 606 1400 801 1400 c 2
 1319 1400 l 1
 1288 1250 l 1
 948 1250 l 1
 863 839 l 1
 1126 839 l 1
 1095 689 l 1
 831 689 l 1
 719 150 l 1
 1058 150 l 1
 1027 0 l 1
 535 0 l 1
 678 689 l 1
 416 689 l 1
 123 0 l 1
 -40 0 l 1
EndSplineSet
Validated: 3073
EndChar

StartChar: Eth
Encoding: 208 208 142
Width: 1229
VWidth: 1947
GlyphClass: 2
Flags: W
HStem: 0 150<291 670.424> 681 150<141 248 433 619> 1250 150<520 934.75>
VStem: 1021 150<685.424 1163.64>
DStem2: 107 0 259.117 0 0.207912 0.978148<184.978 695.434 880.62 1308.55> 831.022 0 983.399 0 0.207912 0.978148<398.903 1001.15>
LayerCount: 2
Fore
SplineSet
1171 986 m 3
 1171 910 1159 830 1142 748 c 2
 1129 685 l 2
 1054 325 874 0 490 0 c 2
 107 0 l 1
 248 681 l 1
 110 681 l 1
 141 831 l 1
 280 831 l 1
 398 1400 l 1
 750 1400 l 2
 1032 1400 1171 1249 1171 986 c 3
750 1250 m 2
 520 1250 l 1
 433 831 l 1
 649 831 l 1
 619 681 l 1
 402 681 l 1
 291 150 l 1
 490 150 l 2
 779 150 918 402 983 715 c 2
 996 778 l 2
 1012 854 1021 925 1021 986 c 3
 1021 1160 953 1250 750 1250 c 2
EndSplineSet
Validated: 3073
EndChar

StartChar: multiply
Encoding: 215 215 149
Width: 1229
VWidth: 1708
GlyphClass: 2
Flags: W
DStem2: 228 366 326 252 0.755935 0.654646<0 387.221 550.142 937.363> 464 968 344 878 0.595384 -0.803441<0.863632 301.602 463.474 764.213>
LayerCount: 2
Fore
SplineSet
937 980 m 1
 1035 866 l 1
 733 605 l 1
 919 354 l 1
 799 264 l 1
 619 506 l 1
 326 252 l 1
 228 366 l 1
 530 627 l 1
 344 878 l 1
 464 968 l 1
 644 726 l 1
 937 980 l 1
EndSplineSet
Validated: 3073
EndChar

StartChar: Thorn
Encoding: 222 222 156
Width: 1229
VWidth: 1947
GlyphClass: 2
Flags: W
HStem: 0 21G<17 173.216> 370 150<278 812.875> 1155 150<442 964.702>
VStem: 17 152<0 152> 337 153<1380 1533> 1035 150<760.106 1092.47>
DStem2: 17 -0 169 -0 0.207912 0.978148<31.6026 409.734 562.902 1211.68 1364.85 1566.03> 832.655 -0 985.032 -0 0.207912 0.978148<648.977 1003.74>
LayerCount: 2
Fore
SplineSet
609 520 m 2
 837 520 970 646 1001 792 c 2
 1029 925 l 2
 1033 946 1035 966 1035 984 c 3
 1035 1121 907 1155 772 1155 c 2
 411 1155 l 1
 278 520 l 1
 609 520 l 2
169 -0 m 1
 17 0 l 1
 337 1533 l 1
 490 1533 l 1
 442 1305 l 1
 772 1305 l 2
 1053 1305 1185 1169 1185 984 c 3
 1185 955 1181 925 1175 895 c 2
 1147 762 l 2
 1102 546 908 370 609 370 c 2
 247 370 l 1
 169 -0 l 1
EndSplineSet
Validated: 3073
EndChar

StartChar: germandbls
Encoding: 223 223 157
Width: 1229
VWidth: 1947
GlyphClass: 2
Flags: W
HStem: -25 150<442.365 749.67> 712 150<581 856.222> 1275 150<510.276 964.646>
VStem: -60 152<-366 -214> 945 150<442.656 652.568> 999 150<1043.95 1239.22>
DStem2: -60 -366 92 -366 0.207912 0.978148<31.6026 1644.2> 681.769 -366 834.146 -366 0.207912 0.978148<1329.87 1550.19> 756.882 -366 909.259 -366 0.207912 0.978148<606.565 936.361>
LayerCount: 2
Fore
SplineSet
-60 -366 m 1xf4
 248 1111 l 2
 294 1334 481 1425 772 1425 c 2
 797 1425 l 2
 1085 1425 1149 1261 1149 1152 c 3xf4
 1149 1128 1146 1103 1141 1078 c 2
 1133 1040 l 2
 1110 930 1053 848 966 794 c 1
 1067 729 1095 628 1095 552 c 3
 1095 525 1092 498 1086 470 c 2
 1064 362 l 1
 1019 148 828 -25 593 -25 c 2
 582 -25 l 2
 497 -25 418 -13 351 37 c 1
 441 157 l 1
 470 135 507 125 582 125 c 2
 593 125 l 2
 753 125 887 242 918 392 c 2
 940 500 l 2
 944 519 945 537 945 552 c 3xf8
 945 680 811 712 680 712 c 2
 581 712 l 1
 581 862 l 1
 608 862 l 2
 883 862 964 960 987 1070 c 2
 995 1108 l 2
 998 1124 999 1139 999 1152 c 3
 999 1209 967 1275 797 1275 c 2
 772 1275 l 2
 491 1275 416 1186 394 1081 c 2
 92 -366 l 1
 -60 -366 l 1xf4
EndSplineSet
Validated: 3073
EndChar

StartChar: ae
Encoding: 230 230 164
Width: 1229
VWidth: 1947
GlyphClass: 2
Flags: W
HStem: -25 150<198.972 418.316 637.898 859.542> 467 150<278.406 525 710 994> 899 150<361.718 584.997 802.301 1022>
VStem: 38 150<141.005 293.608> 1033 150<618.781 883.233>
DStem2: -17.2208 -25 134.948 -25 0.207912 0.978148<271.92 495.441 834.008 945.076> 421.571 -25 573.948 -25 0.207912 0.978148<273.875 502.753 687.938 854.446> 858.571 -25 1012.95 -25 0.207912 0.978148<184.392 295.456 656.128 858.511>
LayerCount: 2
Fore
SplineSet
627 211 m 3
 627 129 714 125 729 125 c 3
 837 125 906 197 920 264 c 1
 1068 234 l 1
 1040 93 905 -25 729 -25 c 3
 695 -25 597 -23 527 64 c 1
 468 11 389 -25 301 -25 c 3
 97 -25 38 98 38 209 c 3
 38 226 40 242 44 264 c 2
 61 343 l 1
 89 480 219 617 409 617 c 2
 556 617 l 1
 593 790 l 2
 594 797 595 805 595 812 c 3
 595 857 567 899 493 899 c 3
 384 899 315 827 301 760 c 1
 153 790 l 1
 181 931 316 1049 493 1049 c 3
 571 1049 645 1021 694 960 c 1
 752 1012 830 1049 921 1049 c 3
 936 1049 1183 1044 1183 816 c 3
 1183 799 1181 782 1177 760 c 2
 1116 467 l 1
 678 467 l 1
 629 234 l 2
 627 225 627 218 627 211 c 3
1033 816 m 3
 1033 888 945 899 921 899 c 3
 826 899 752 824 739 760 c 2
 710 617 l 1
 994 617 l 1
 1028 776 l 2
 1030 786 1033 808 1033 816 c 3
188 209 m 3
 188 176 203 125 301 125 c 3
 394 125 470 201 483 264 c 2
 525 467 l 1
 409 467 l 2
 294 467 221 385 207 313 c 1
 190 234 l 2
 188 224 188 217 188 209 c 3
EndSplineSet
Validated: 3073
EndChar

StartChar: eth
Encoding: 240 240 174
Width: 1229
VWidth: 1947
GlyphClass: 2
Flags: W
HStem: -25 150<348.7 720.036> 774 150<486.073 858.79> 1027 21G<340.167 415.402> 1402 20G<1102.83 1177.83>
VStem: 102 150<219.97 486.893> 945 179<550.773 698>
DStem2: 9.89571 -25 162.698 -25 0.207912 0.978148<429.889 701.03> 304 1171 346 1027 0.960642 0.277789<0.345303 335.161 587.427 903.562> 828.272 -25 981.074 -25 0.207912 0.978148<295.431 588.721>
LayerCount: 2
Fore
SplineSet
668 924 m 2
 693 924 l 2
 796 924 879 899 941 857 c 1
 904 953 837 1052 752 1144 c 1
 346 1027 l 1
 304 1171 l 1
 626 1264 l 1
 581 1302 533 1338 484 1369 c 1
 566 1495 l 1
 640 1447 719 1385 795 1313 c 1
 1172 1422 l 1
 1214 1278 l 1
 910 1190 l 1
 1033 1043 1124 871 1124 698 c 3
 1124 667 1120 636 1114 605 c 2
 1078 431 l 2
 1024 170 826 -25 527 -25 c 2
 502 -25 l 2
 265 -25 102 141 102 362 c 3
 102 394 106 429 113 463 c 2
 120 493 l 2
 172 716 367 924 668 924 c 2
266 461 m 2
 259 431 l 2
 254 407 252 384 252 362 c 3
 252 220 352 125 502 125 c 2
 527 125 l 2
 756 125 892 272 932 463 c 2
 939 493 l 2
 943 513 945 533 945 553 c 3
 945 654 889 774 693 774 c 2
 668 774 l 2
 441 774 302 615 266 461 c 2
EndSplineSet
Validated: 3073
EndChar

StartChar: divide
Encoding: 247 247 181
Width: 1229
VWidth: 1947
GlyphClass: 2
Flags: W
HStem: 118 247<462.191 646.925> 525 150<234 1022> 835 250<613.74 799.575>
VStem: 429 248<151.525 333.143> 582 248<866.462 1053.54>
LayerCount: 2
Fore
SplineSet
677 243 m 0xf0
 677 181 627 118 555 118 c 0
 484 118 429 183 429 243 c 0
 429 298 481 365 555 365 c 0
 629 365 677 298 677 243 c 0xf0
830 960 m 0xe8
 830 900 779 835 708 835 c 0
 630 835 582 906 582 960 c 0
 582 1014 630 1085 708 1085 c 0
 779 1085 830 1020 830 960 c 0xe8
1054 675 m 1
 1022 525 l 1
 202 525 l 1
 234 675 l 1
 1054 675 l 1
EndSplineSet
Validated: 3073
EndChar

StartChar: oslash
Encoding: 248 248 182
Width: 1229
VWidth: 1947
GlyphClass: 2
Flags: W
HStem: -25 150<367.413 720.197> 898 150<495.767 853.097>
VStem: 125 150<269.504 587.219> 947 150<442.622 751.312>
DStem2: 20.4419 -100 172.819 -100 0.207912 0.978148<464.315 931.785> 26 4 134 -100 0.688921 0.724836<0 191.647 365.69 1174.61 1348.57 1530.4> 788.654 -100 941.031 -100 0.207912 0.978148<352.36 819.562>
LayerCount: 2
Fore
SplineSet
1081 1114 m 1
 1189 1010 l 1
 1062 877 l 1
 1086 826 1097 767 1097 706 c 3
 1097 655 1089 602 1078 547 c 2
 1059 455 l 2
 1001 177 852 -25 536 -25 c 2
 485 -25 l 2
 387 -25 314 -4 259 31 c 1
 134 -100 l 1
 26 4 l 1
 160 145 l 1
 136 197 125 256 125 318 c 3
 125 372 133 428 145 486 c 2
 164 576 l 2
 221 845 368 1048 675 1048 c 2
 732 1048 l 2
 832 1048 907 1026 963 990 c 1
 1081 1114 l 1
732 898 m 2
 675 898 l 2
 456 898 356 764 310 546 c 2
 291 456 l 2
 285 429 275 373 275 318 c 3
 275 301 276 284 278 269 c 1
 856 878 l 1
 825 891 784 898 732 898 c 2
944 752 m 1
 366 144 l 1
 396 131 435 125 485 125 c 2
 536 125 l 2
 762 125 865 256 913 485 c 2
 932 577 l 2
 942 625 947 668 947 706 c 3
 947 722 946 738 944 752 c 1
EndSplineSet
Validated: 3073
EndChar

StartChar: thorn
Encoding: 254 254 188
Width: 1229
VWidth: 1947
GlyphClass: 2
Flags: W
HStem: -25 150<322.396 724.995> 899 150<503.306 892.012> 1380 20G<302.845 460>
VStem: -63 153<-381 -228> 307 153<1247 1400> 965 150<431.595 832.108>
DStem2: -63 -381 90 -381 0.207912 0.978148<31.8105 506.817 746.687 1212.5 1393.27 1819.01> 753.037 -381 905.414 -381 0.207912 0.978148<673.829 1080.09>
LayerCount: 2
Fore
SplineSet
1115 680 m 3
 1115 628 1107 574 1096 518 c 2
 1088 478 l 2
 992 -3 653 -25 530 -25 c 2
 500 -25 l 2
 365 -25 258 16 187 84 c 1
 90 -381 l 1
 -63 -381 l 1
 307 1400 l 1
 460 1400 l 1
 367 952 l 1
 457 1012 567 1049 687 1049 c 2
 728 1049 l 2
 1019 1049 1115 870 1115 680 c 3
728 899 m 2
 687 899 l 2
 481 899 326 754 296 610 c 2
 246 369 l 2
 242 351 241 333 241 317 c 3
 241 207 326 125 500 125 c 2
 530 125 l 2
 782 125 898 290 942 508 c 2
 950 548 l 2
 960 596 965 641 965 680 c 3
 965 818 906 899 728 899 c 2
EndSplineSet
Validated: 3073
EndChar

StartChar: minus
Encoding: 8722 8722 190
Width: 1229
VWidth: 1708
GlyphClass: 2
Flags: W
HStem: 525 150<218 1037>
LayerCount: 2
Fore
SplineSet
1037 675 m 1
 1037 525 l 1
 218 525 l 1
 218 675 l 1
 1037 675 l 1
EndSplineSet
Validated: 3073
EndChar

StartChar: quoteleft
Encoding: 8216 8216 192
Width: 1229
VWidth: 1947
GlyphClass: 2
Flags: W
HStem: 1366 57<849.318 952>
VStem: 627 148<1075.34 1277.44>
LayerCount: 2
Fore
SplineSet
952 1423 m 1
 955 1366 l 1
 896 1362 775 1343 775 1235 c 3
 775 1213 783 1200 796 1182 c 1
 812 1164 821 1141 821 1116 c 3
 821 1065 783 1019 725 1019 c 3
 668 1019 627 1064 627 1116 c 3
 627 1152 643 1421 952 1423 c 1
EndSplineSet
Validated: 3073
EndChar

StartChar: gravemodifier
Encoding: 715 715 193
Width: 1229
VWidth: 2334
GlyphClass: 2
Flags: W
HStem: 1409 297
VStem: 727 274
DStem2: 847 1706 727 1618 0.593199 -0.805056<0 259.27>
LayerCount: 2
Fore
SplineSet
1001 1497 m 5
 881 1409 l 5
 727 1618 l 5
 847 1706 l 5
 1001 1497 l 5
EndSplineSet
Validated: 3073
EndChar

StartChar: acute
Encoding: 180 180 194
Width: 1229
VWidth: 1947
GlyphClass: 2
Flags: W
HStem: 1257 381
VStem: 627 368
DStem2: 627 1359 737 1257 0.678936 0.734198<0 379.801>
LayerCount: 2
Fore
SplineSet
737 1257 m 1
 627 1359 l 1
 885 1638 l 1
 995 1536 l 1
 737 1257 l 1
EndSplineSet
Validated: 3073
EndChar

StartChar: circumflex
Encoding: 710 710 195
Width: 1229
VWidth: 1947
GlyphClass: 2
Flags: W
HStem: 1393 245
VStem: 521 581
DStem2: 521 1527 587 1393 0.897326 0.441368<0.080246 249.096> 918 1638 833 1514 0.84825 -0.529595<0 216.38>
LayerCount: 2
Fore
SplineSet
918 1638 m 1
 1102 1524 l 1
 1022 1396 l 1
 833 1514 l 1
 587 1393 l 1
 521 1527 l 1
 744 1638 l 1
 918 1638 l 1
EndSplineSet
Validated: 3073
EndChar

StartChar: tilde
Encoding: 732 732 196
Width: 1229
VWidth: 1947
GlyphClass: 2
Flags: W
HStem: 1447 150<893.113 1031.92> 1537 150<627.382 768.517>
LayerCount: 2
Fore
SplineSet
502 1576 m 2x40
 584 1673 662 1687 702 1687 c 2
 718 1687 l 2x40
 769 1687 832 1673 876 1627 c 2
 893 1609 l 2
 895 1607 923 1597 940 1597 c 2
 957 1597 l 2
 979 1597 1006 1607 1044 1655 c 2
 1063 1679 l 1
 1181 1585 l 1
 1162 1561 l 2
 1077 1454 981 1447 957 1447 c 2
 940 1447 l 2x80
 863 1447 812 1477 788 1502 c 2
 769 1522 l 2
 759 1532 729 1537 718 1537 c 2
 702 1537 l 2
 681 1537 658 1529 616 1480 c 2
 594 1454 l 1
 480 1550 l 1
 502 1576 l 2x40
EndSplineSet
Validated: 3073
EndChar

StartChar: macronmodifier
Encoding: 713 713 197
Width: 1229
VWidth: 1947
GlyphClass: 2
Flags: W
HStem: 1463 150<596 1049>
VStem: 596 453<1463 1613>
LayerCount: 2
Fore
SplineSet
596 1463 m 1
 596 1613 l 1
 1049 1613 l 1
 1049 1463 l 1
 596 1463 l 1
EndSplineSet
Validated: 3073
EndChar

StartChar: breve
Encoding: 728 728 198
Width: 1229
VWidth: 1947
GlyphClass: 2
Flags: W
HStem: 1405 150<692.925 951.666>
VStem: 539 580
LayerCount: 2
Fore
SplineSet
809 1405 m 0
 694 1405 597 1461 539 1552 c 1
 665 1632 l 1
 711 1560 780 1555 809 1555 c 0
 834 1555 922 1559 1015 1647 c 1
 1119 1539 l 1
 981 1408 843 1405 809 1405 c 0
EndSplineSet
Validated: 3073
EndChar

StartChar: dotaccent
Encoding: 729 729 199
Width: 1229
VWidth: 1947
GlyphClass: 2
Flags: W
HStem: 1425 204<745.294 911.75>
VStem: 727 204<1443.91 1610.09>
LayerCount: 2
Fore
SplineSet
727 1527 m 0
 727 1583 771 1629 828 1629 c 0
 884 1629 931 1583 931 1527 c 0
 931 1471 884 1425 828 1425 c 0
 771 1425 727 1471 727 1527 c 0
EndSplineSet
Validated: 3073
EndChar

StartChar: dieresis
Encoding: 168 168 200
Width: 1229
VWidth: 1947
GlyphClass: 2
Flags: W
HStem: 1444 198<497.719 655.283 941.928 1098.6>
VStem: 480 193<1461.19 1625.9> 925 191<1461.46 1626.07>
LayerCount: 2
Fore
SplineSet
1116 1545 m 4
 1116 1486 1069 1444 1021 1444 c 4
 970 1444 925 1490 925 1545 c 4
 925 1601 970 1642 1021 1642 c 4
 1068 1642 1116 1605 1116 1545 c 4
673 1545 m 4
 673 1491 630 1444 577 1444 c 4
 525 1444 480 1489 480 1545 c 4
 480 1605 528 1642 576 1642 c 4
 631 1642 673 1597 673 1545 c 4
EndSplineSet
Validated: 3073
EndChar

StartChar: ring
Encoding: 730 730 202
Width: 1229
VWidth: 1947
GlyphClass: 2
Flags: W
HStem: 1223 110<726.515 881.788> 1517 110<726.515 881.788>
VStem: 602 110<1346.23 1503.77> 896 110<1348.51 1501.49>
LayerCount: 2
Fore
SplineSet
712 1425 m 0
 712 1374 752 1333 803 1333 c 0
 854 1333 896 1374 896 1425 c 0
 896 1476 854 1517 803 1517 c 0
 752 1517 712 1476 712 1425 c 0
602 1425 m 0
 602 1537 690 1627 802 1627 c 0
 914 1627 1006 1537 1006 1425 c 0
 1006 1313 914 1223 802 1223 c 0
 690 1223 602 1313 602 1425 c 0
EndSplineSet
Validated: 3073
EndChar

StartChar: cedilla
Encoding: 184 184 203
Width: 1229
VWidth: 1947
GlyphClass: 2
Flags: W
HStem: -486 150<337.582 576.959> -187 199<458 597.995>
VStem: 602 150<-307.485 -193.849>
LayerCount: 2
Fore
SplineSet
602 -237 m 3
 602 -193 543 -187 508 -187 c 2
 415 -187 l 1
 458 12 l 1
 611 12 l 1
 598 -48 l 1
 705 -76 752 -156 752 -237 c 3
 752 -395 599 -486 458 -486 c 3
 359 -486 275 -445 219 -386 c 1
 327 -282 l 1
 336 -291 386 -336 458 -336 c 3
 523 -336 602 -301 602 -237 c 3
EndSplineSet
Validated: 3073
EndChar

StartChar: ogonek
Encoding: 731 731 204
Width: 1229
VWidth: 1947
GlyphClass: 2
Flags: W
HStem: -420 137<429.667 577.253>
VStem: 289 140<-282.108 -174.383>
DStem2: 371 -69 475 -173 0.769326 0.638856<-63.3471 172.595>
LayerCount: 2
Fore
SplineSet
601 -375 m 2
 571 -397 532 -420 467 -420 c 3
 380 -420 289 -352 289 -242 c 3
 289 -170 325 -107 371 -69 c 2
 504 41 l 1
 510 75 l 1
 663 75 l 1
 646 -31 l 1
 475 -173 l 2
 445 -198 429 -218 429 -239 c 3
 429 -264 444 -283 467 -283 c 3
 486 -283 508 -274 523 -263 c 2
 554 -240 l 1
 634 -350 l 1
 601 -375 l 2
EndSplineSet
Validated: 3073
EndChar

StartChar: caron
Encoding: 711 711 205
Width: 1229
VWidth: 1947
GlyphClass: 2
Flags: W
HStem: 1422 242
VStem: 543 581
DStem2: 623 1664 543 1536 0.84825 -0.529595<0 216.38> 812 1546 901 1422 0.897326 0.441368<25.1324 274.148>
LayerCount: 2
Fore
SplineSet
812 1546 m 1
 1058 1667 l 1
 1124 1533 l 1
 901 1422 l 1
 727 1422 l 1
 543 1536 l 1
 623 1664 l 1
 812 1546 l 1
EndSplineSet
Validated: 3073
EndChar

StartChar: dotlessi
Encoding: 305 305 206
Width: 1229
VWidth: 1947
GlyphClass: 2
Flags: W
HStem: 0 150<124 459 612 910> 874 149<376 610>
DStem2: 427.117 0 580.117 0 0.207912 0.978148<185.162 892.925>
LayerCount: 2
Fore
SplineSet
910 0 m 1
 93 0 l 1
 124 150 l 1
 459 150 l 1
 610 874 l 1
 345 874 l 1
 376 1023 l 1
 794 1023 l 1
 612 150 l 1
 941 150 l 1
 910 0 l 1
EndSplineSet
Validated: 3073
EndChar

StartChar: currency
Encoding: 164 164 210
Width: 1229
VWidth: 1947
GlyphClass: 2
Flags: W
HStem: 387 150<465.155 762.639> 1033 150<471.266 761.27>
VStem: 220 150<630.474 929.625> 858 150<630.861 938.027>
DStem2: 79 462 177 348 0.75741 0.65294<0 222.23> 314 1319 188 1238 0.546665 -0.837352<0 220.694> 916 517 797 425 0.547603 -0.836738<2.9278 227.045> 891 1077 976 952 0.75741 0.65294<-6.31562 212.493>
LayerCount: 2
Fore
SplineSet
624 1033 m 2
 605 1033 l 2
 466 1033 370 909 370 800 c 2
 370 769 l 2
 370 652 455 537 605 537 c 2
 624 537 l 2
 771 537 858 652 858 771 c 2
 858 802 l 2
 858 914 772 1033 624 1033 c 2
1008 802 m 2
 1008 771 l 2
 1008 677 975 586 916 517 c 1
 1041 326 l 1
 915 245 l 1
 797 425 l 1
 746 401 688 387 624 387 c 2
 605 387 l 2
 497 387 406 427 340 489 c 1
 177 348 l 1
 79 462 l 1
 253 612 l 1
 232 660 220 714 220 769 c 2
 220 800 l 2
 220 888 255 976 314 1045 c 1
 188 1238 l 1
 314 1319 l 1
 431 1140 l 1
 483 1167 542 1183 605 1183 c 2
 624 1183 l 2
 734 1183 825 1141 891 1077 c 1
 1052 1216 l 1
 1150 1102 l 1
 976 952 l 1
 997 904 1008 854 1008 802 c 2
EndSplineSet
Validated: 3073
EndChar

StartChar: brokenbar
Encoding: 166 166 211
Width: 1229
VWidth: 1947
GlyphClass: 2
Flags: W
VStem: 409 153<-84 69> 549 153<438 591> 599 153<831 984> 732 154<1319 1473>
DStem2: 409 -84 562 -84 0.207912 0.978148<31.8105 689.357 966.319 1590.13>
LayerCount: 2
Fore
SplineSet
599 831 m 1x20
 732 1473 l 1
 886 1473 l 1x10
 752 831 l 1
 599 831 l 1x20
409 -84 m 1x80
 549 591 l 1
 702 591 l 1x40
 562 -84 l 1
 409 -84 l 1x80
EndSplineSet
Validated: 3073
EndChar

StartChar: onequarter
Encoding: 188 188 212
Width: 1229
VWidth: 1708
GlyphClass: 2
Flags: W
HStem: -34 150<726 828 1013 1075>
VStem: 791 154<-209 -55>
DStem2: 19.7044 -209 172.081 -209 0.207912 0.978148<1050.95 1622.8> 29 21 147 -71 0.611634 0.791141<0 1832.18> 560 161 726 116 0.700175 0.713971<84.1003 327.361> 791 -209 945 -209 0.207912 0.978148<32.0184 178.869 364.054 509.926>
LayerCount: 2
Fore
SplineSet
896 290 m 1
 726 116 l 1
 860 116 l 1
 896 290 l 1
1150 1471 m 1
 1268 1379 l 1
 147 -71 l 1
 29 21 l 1
 1150 1471 l 1
560 161 m 1
 966 575 l 1
 1109 575 l 1
 1013 116 l 1
 1107 116 l 1
 1075 -34 l 1
 982 -34 l 1
 945 -209 l 1
 791 -209 l 1
 828 -34 l 1
 519 -34 l 1
 560 161 l 1
547 1569 m 1
 384 788 l 1
 238 818 l 1
 354 1379 l 1
 235 1329 l 1
 207 1384 l 1
 441 1569 l 1
 547 1569 l 1
EndSplineSet
Validated: 3073
EndChar

StartChar: onehalf
Encoding: 189 189 213
Width: 1229
VWidth: 1708
GlyphClass: 2
Flags: W
HStem: -285 150<679 1000> 398 150<743.367 1010.42>
VStem: 1015 150<254.859 388.149>
DStem2: -71 21 47 -71 0.611634 0.791141<0 1832.18> 3.55013 -285 155.927 -285 0.207912 0.978148<1128.65 1700.5> 626 13 710 -111 0.830414 0.557147<-37.8418 491.741>
LayerCount: 2
Fore
SplineSet
1015 359 m 3
 1015 380 999 398 900 398 c 2
 885 398 l 2
 794 398 755 375 711 323 c 1
 597 421 l 1
 673 511 756 548 885 548 c 2
 900 548 l 2
 998 548 1165 523 1165 359 c 3
 1165 344 1163 326 1159 309 c 2
 1154 288 l 2
 1145 248 1104 153 1023 99 c 2
 710 -111 l 2
 698 -119 687 -127 679 -135 c 1
 1000 -135 l 1
 1000 -285 l 1
 449 -285 l 1
 482 -132 l 1
 504 -98 583 -16 626 13 c 2
 935 221 l 2
 979 250 1006 308 1008 318 c 2
 1012 334 l 2
 1013 338 1015 351 1015 359 c 3
1050 1471 m 1
 1168 1379 l 1
 47 -71 l 1
 -71 21 l 1
 1050 1471 l 1
547 1569 m 1
 384 788 l 1
 238 818 l 1
 354 1379 l 1
 235 1329 l 1
 207 1384 l 1
 441 1569 l 1
 547 1569 l 1
EndSplineSet
Validated: 3073
EndChar

StartChar: threequarters
Encoding: 190 190 214
Width: 1229
VWidth: 1708
GlyphClass: 2
Flags: W
HStem: -34 150<726 828 1013 1071> 789 150<266.623 515.004> 1021 20G<116.5 215.333> 1180 150<386 582.833> 1454 150<375.576 591.158>
VStem: 113 150<950.875 1013.76> 583 150<1007.34 1178.53 1338.66 1452.98> 792 153<-209 -56>
DStem2: 119 21 237 -71 0.611634 0.791141<0 1832.18> 560 162 726 116 0.701038 0.713124<83.5685 326.829> 792 -209 945 -209 0.207912 0.978148<31.8105 178.661 364.825 509.718>
LayerCount: 2
Fore
SplineSet
896 290 m 1
 726 116 l 1
 860 116 l 1
 896 290 l 1
481 1330 m 2
 571 1330 597 1373 597 1400 c 3
 597 1428 586 1454 527 1454 c 2
 511 1454 l 2
 454 1454 388 1433 350 1385 c 1
 232 1479 l 1
 295 1559 398 1604 511 1604 c 2
 527 1604 l 2
 676 1604 747 1503 747 1400 c 3
 747 1396 744 1308 694 1266 c 1
 724 1233 733 1192 733 1152 c 3
 733 1033 669 789 389 789 c 2
 373 789 l 2
 170 789 113 915 113 999 c 3
 113 1012 115 1024 118 1041 c 1
 264 1011 l 1
 263 1007 263 1002 263 999 c 3
 263 975 287 939 373 939 c 2
 389 939 l 2
 569 939 583 1108 583 1152 c 3
 583 1173 576 1180 490 1180 c 2
 354 1180 l 1
 386 1330 l 1
 481 1330 l 2
1240 1471 m 1
 1358 1379 l 1
 237 -71 l 1
 119 21 l 1
 1240 1471 l 1
560 162 m 1
 966 575 l 1
 1109 575 l 1
 1013 117 l 1
 1102 117 l 1
 1071 -34 l 1
 982 -34 l 1
 945 -209 l 1
 792 -209 l 1
 828 -34 l 1
 520 -34 l 1
 560 162 l 1
EndSplineSet
Validated: 3073
EndChar

StartChar: Lslash
Encoding: 321 321 216
Width: 1229
VWidth: 1947
GlyphClass: 2
Flags: W
HStem: 0 151<284 987> 1380 20G<381.901 538>
VStem: 386 152<1248 1400>
DStem2: 56 585 94 439 0.968367 0.249532<0.366287 104.659 344.894 873.636> 100 0 251.904 0 0.207912 0.978148<185.956 474.59 716.631 1428.87>
LayerCount: 2
Fore
SplineSet
987 0 m 1
 691 0 396 0 100 0 c 1
 195 465 l 1
 94 439 l 1
 56 585 l 1
 228 629 l 1
 386 1400 l 1
 538 1400 l 1
 390 671 l 1
 902 803 l 1
 940 657 l 1
 356 507 l 1
 284 151 l 1
 1018 151 l 1
 987 0 l 1
EndSplineSet
Validated: 3073
EndChar

StartChar: lslash
Encoding: 322 322 257
Width: 1229
VWidth: 1947
GlyphClass: 2
Flags: W
HStem: 0 150<122 459 612 912> 1250 150<383 688>
DStem2: 152 585 186 439 0.973554 0.228455<0 359.224 594.758 953.982> 427.117 0 580.117 0 0.207912 0.978148<185.162 532.253 768.425 1276.93>
LayerCount: 2
Fore
SplineSet
1081 803 m 1
 1115 657 l 1
 697 559 l 1
 612 150 l 1
 943 150 l 1
 912 0 l 1
 91 0 l 1
 122 150 l 1
 459 150 l 1
 536 521 l 1
 186 439 l 1
 152 585 l 1
 570 683 l 1
 688 1250 l 1
 351 1250 l 1
 383 1400 l 1
 872 1400 l 1
 731 721 l 1
 1081 803 l 1
EndSplineSet
Validated: 3073
EndChar

StartChar: dotlessj
Encoding: 567 567 260
Width: 1229
VWidth: 1947
GlyphClass: 2
Flags: W
HStem: -369 150<374.082 601.964> 874 149<509 883>
VStem: 185 150<-179.503 -95>
DStem2: 623.045 -369 775.421 -369 0.207912 0.978148<204.957 1269.89>
LayerCount: 2
Fore
SplineSet
464 -219 m 3
 581 -219 674 -133 690 -54 c 2
 883 874 l 1
 478 874 l 1
 509 1023 l 1
 1067 1023 l 1
 836 -84 l 2
 803 -241 643 -369 464 -369 c 3
 310 -369 185 -225 185 -95 c 1
 335 -95 l 1
 335 -149 401 -219 464 -219 c 3
EndSplineSet
Validated: 3073
EndChar

StartChar: eng
Encoding: 331 331 261
Width: 1229
VWidth: 2334
GlyphClass: 2
Flags: W
HStem: -369 150<367.781 684.626> 0 21G<16 173.17> 899 151<552.562 919.589>
VStem: 16 153<0 153> 986 150<507.039 842.473>
DStem2: -62.4334 -369 90.5666 -369 0.207912 0.978148<409.054 1119.99 1330.43 1449.62> 757.828 -369 908.204 -369 0.207912 0.978148<259.903 1135.43>
LayerCount: 2
Fore
SplineSet
463 -219 m 2
 538 -219 l 2
 693 -219 818 -87 842 27 c 2
 981 694 l 2
 985 712 986 729 986 744 c 3
 986 806 954 899 719 899 c 2
 694 899 l 2
 504 899 304 647 282 542 c 2
 169 0 l 1
 16 0 l 1
 234 1050 l 1
 388 1050 l 1
 357 902 l 1
 453 986 572 1049 694 1049 c 2
 719 1049 l 2
 1065 1049 1136 866 1136 744 c 3
 1136 718 1133 691 1127 664 c 2
 986 -3 l 2
 950 -173 777 -369 538 -369 c 2
 463 -369 l 2
 345 -369 257 -280 223 -245 c 1
 330 -139 l 1
 361 -171 410 -219 463 -219 c 2
EndSplineSet
Validated: 3073
EndChar

StartChar: ellipsis
Encoding: 8230 8230 266
Width: 1229
VWidth: 1947
GlyphClass: 2
Flags: W
HStem: 27 171<84.4571 225.76 506.422 646.76 927.674 1068.76>
VStem: 74 162<36.6866 188.154> 496 162<37.0584 187.782> 917 163<37.0584 187.782>
LayerCount: 2
Fore
SplineSet
658 113 m 0
 658 69 623 27 576 27 c 0
 531 27 496 67 496 113 c 0
 496 157 530 198 576 198 c 0
 624 198 658 155 658 113 c 0
236 113 m 0
 236 69 202 27 155 27 c 0
 109 27 74 67 74 113 c 0
 74 157 108 198 155 198 c 0
 202 198 236 155 236 113 c 0
1080 113 m 0
 1080 69 1045 27 998 27 c 0
 953 27 917 67 917 113 c 0
 917 157 952 198 998 198 c 0
 1046 198 1080 155 1080 113 c 0
EndSplineSet
Validated: 3073
EndChar

StartChar: uparrow
Encoding: 8593 8593 267
Width: 1229
VWidth: 1708
GlyphClass: 2
Flags: W
VStem: 535 160<177 794>
DStem2: 198 676 312 564 0.696298 0.717753<0 319.347> 675 1044 695 794 0.696298 -0.717753<193.364 512.711>
LayerCount: 2
Fore
SplineSet
695 177 m 1
 535 177 l 1
 535 794 l 1
 312 564 l 1
 198 676 l 1
 555 1044 l 1
 675 1044 l 1
 1032 676 l 1
 918 564 l 1
 695 794 l 1
 695 177 l 1
EndSplineSet
Validated: 3073
EndChar

StartChar: downarrow
Encoding: 8595 8595 268
Width: 1229
VWidth: 1708
GlyphClass: 2
Flags: W
VStem: 535 160<387 991>
DStem2: 315 633 195 527 0.6662 -0.745773<0 330.024> 695 387 675 124 0.6662 0.745773<0 330.024>
LayerCount: 2
Fore
SplineSet
535 991 m 1
 695 991 l 1
 695 387 l 1
 915 633 l 1
 1035 527 l 1
 675 124 l 1
 555 124 l 1
 195 527 l 1
 315 633 l 1
 535 387 l 1
 535 991 l 1
EndSplineSet
Validated: 3073
EndChar

StartChar: spaceopenbox
Encoding: 9251 9251 269
Width: 1229
VWidth: 1708
GlyphClass: 2
Flags: W
HStem: -167 293<44 167 863 954> -167 150<167 832>
LayerCount: 2
Fore
SplineSet
863 126 m 1x80
 1016 126 l 1
 954 -167 l 1x80
 -19 -167 l 1x40
 44 126 l 1
 197 126 l 1x80
 167 -17 l 1
 832 -17 l 1x40
 863 126 l 1x80
EndSplineSet
Validated: 3073
EndChar

StartChar: foursuperior
Encoding: 8308 8308 271
Width: 1229
VWidth: 1947
GlyphClass: 2
Flags: W
HStem: 764 150<523 792 976 1072> 1405 20G<886.517 1082>
VStem: 747 152<544 696>
DStem2: 283 912 523 914 0.774452 0.632633<187.134 654.745> 747 544 899 544 0.207912 0.978148<31.6026 224.548 409.526 680.138>
LayerCount: 2
Fore
SplineSet
885 1210 m 1
 523 914 l 1
 823 914 l 1
 885 1210 l 1
283 912 m 1
 911 1425 l 1
 1082 1425 l 1
 976 914 l 1
 1103 914 l 1
 1072 764 l 1
 945 764 l 1
 899 544 l 1
 747 544 l 1
 792 764 l 1
 253 764 l 1
 283 912 l 1
EndSplineSet
Validated: 3073
EndChar

StartChar: Eng
Encoding: 330 330 273
Width: 1229
VWidth: 2334
GlyphClass: 2
Flags: W
HStem: -369 150<371.823 684.871> 0 21G<16 173.164> 1275 150<631.5 984.882>
VStem: 16 153<0 153> 312 154<1271 1425> 1057 150<970.587 1206.85>
DStem2: -62.4334 -369 90.5666 -369 0.207912 0.978148<409.054 1494.41 1707.38 1832.65> 757.828 -369 910.204 -369 0.207912 0.978148<260.246 1490.49>
LayerCount: 2
Fore
SplineSet
16 0 m 1
 312 1425 l 1
 466 1425 l 1
 434 1271 l 1
 531 1359 649 1425 772 1425 c 2
 797 1425 l 2
 1068 1425 1207 1281 1207 1092 c 3
 1207 1064 1204 1036 1198 1008 c 2
 988 -3 l 2
 952 -173 777 -369 538 -369 c 2
 463 -369 l 2
 412 -369 286 -354 206 -221 c 1
 343 -160 l 1
 369 -201 425 -219 463 -219 c 2
 538 -219 l 2
 693 -219 818 -87 842 27 c 2
 1052 1038 l 2
 1056 1057 1057 1075 1057 1092 c 3
 1057 1238 919 1275 797 1275 c 2
 772 1275 l 2
 585 1275 380 1011 357 903 c 2
 169 0 l 1
 16 0 l 1
EndSplineSet
Validated: 3073
EndChar

StartChar: dcroat
Encoding: 273 273 274
Width: 1229
VWidth: 1947
GlyphClass: 2
Flags: W
HStem: -25 150<331.198 705.518> 0 21G<799 956.121> 899 150<475.38 873.487> 1155 150<727 1037 1221 1293> 1380 20G<1083.79 1240>
VStem: 97 150<200.238 583.71>
DStem2: 9.73609 -25 162.113 -25 0.207912 0.978148<404.476 850.811> 793.686 -25 946.686 -25 0.207912 0.978148<57.369 83.6 275.422 744.867 995.549 1204.8 1389.78 1455.05>
LayerCount: 2
Fore
SplineSet
291 582 m 2xbc
 255 412 l 2
 249 385 247 360 247 337 c 3
 247 200 338 125 482 125 c 2
 507 125 l 2
 740 125 849 256 888 442 c 2
 924 612 l 2
 931 647 934 680 934 708 c 3
 934 814 889 899 699 899 c 2
 674 899 l 2
 442 899 330 766 291 582 c 2xbc
674 1049 m 2
 699 1049 l 2
 835 1049 932 1012 995 950 c 1
 1037 1155 l 1
 696 1155 l 1
 727 1305 l 1
 1068 1305 l 1
 1088 1400 l 1
 1240 1400 l 1
 1221 1305 l 1
 1324 1305 l 1
 1293 1155 l 1
 1190 1155 l 1
 952 0 l 1
 799 0 l 1x7c
 810 57 l 1
 729 4 628 -25 507 -25 c 2
 482 -25 l 2
 246 -25 97 124 97 337 c 3
 97 371 101 406 109 442 c 2
 145 612 l 2
 201 875 378 1049 674 1049 c 2
EndSplineSet
Validated: 3073
EndChar

StartChar: bullet
Encoding: 8226 8226 280
Width: 1229
VWidth: 1947
GlyphClass: 2
Flags: W
HStem: 496 343<562.994 770.903>
VStem: 499 332<557.3 774.69>
LayerCount: 2
Fore
SplineSet
831 669 m 0
 831 584 757 496 666 496 c 0
 574 496 499 580 499 662 c 0
 499 750 578 839 666 839 c 0
 754 839 831 757 831 669 c 0
EndSplineSet
Validated: 3073
EndChar

StartChar: florin
Encoding: 402 402 281
Width: 1229
VWidth: 1947
GlyphClass: 2
Flags: W
HStem: -386 150<108.774 301.649> 752 150<352 604 802 1071> 1275 150<929.285 1134.1>
VStem: -47 150<-229.484 -170>
DStem2: 376 -57 520 -97 0.271668 0.962391<-161.958 840.515 1038.66 1400.93>
LayerCount: 2
Fore
SplineSet
1134 1219 m 1
 1116 1256 1101 1275 1043 1275 c 3
 934 1275 882 1186 861 1111 c 2
 802 902 l 1
 1102 902 l 1
 1071 752 l 1
 760 752 l 1
 520 -97 l 2
 476 -254 355 -386 181 -386 c 3
 13 -386 -47 -231 -47 -170 c 1
 103 -170 l 1
 103 -192 123 -236 181 -236 c 3
 284 -236 344 -170 376 -57 c 2
 604 752 l 1
 321 752 l 1
 352 902 l 1
 646 902 l 1
 717 1151 l 2
 766 1323 890 1425 1043 1425 c 3
 1199 1425 1240 1342 1270 1281 c 1
 1134 1219 l 1
EndSplineSet
Validated: 3073
EndChar

StartChar: dagger
Encoding: 8224 8224 282
Width: 1229
VWidth: 1947
GlyphClass: 2
Flags: W
HStem: 874 149<191 608 792 1208> 1405 20G<717.871 876>
VStem: 345 153<-390 -237> 722 154<1271 1425>
DStem2: 345 -390 498 -390 0.207912 0.978148<31.8105 1291.06 1475.06 1853.72>
LayerCount: 2
Fore
SplineSet
191 1023 m 1
 639 1023 l 1
 722 1425 l 1
 876 1425 l 1
 792 1023 l 1
 1240 1023 l 1
 1208 874 l 1
 761 874 l 1
 498 -390 l 1
 345 -390 l 1
 608 874 l 1
 159 874 l 1
 191 1023 l 1
EndSplineSet
Validated: 3073
EndChar

StartChar: daggerdbl
Encoding: 8225 8225 283
Width: 1229
VWidth: 1947
GlyphClass: 2
Flags: W
HStem: 14 150<12 429 613 1030> 874 149<191 608 792 1208> 1405 20G<717.871 876>
VStem: 345 153<-390 -237> 722 154<1271 1425>
DStem2: 345 -390 498 -390 0.207912 0.978148<31.8105 412.636 597.614 1291.06 1475.06 1853.72>
LayerCount: 2
Fore
SplineSet
191 1023 m 1
 639 1023 l 1
 722 1425 l 1
 876 1425 l 1
 792 1023 l 1
 1240 1023 l 1
 1208 874 l 1
 761 874 l 1
 613 164 l 1
 1061 164 l 1
 1030 14 l 1
 582 14 l 1
 498 -390 l 1
 345 -390 l 1
 429 14 l 1
 -19 14 l 1
 12 164 l 1
 460 164 l 1
 608 874 l 1
 159 874 l 1
 191 1023 l 1
EndSplineSet
Validated: 3073
EndChar

StartChar: trademark
Encoding: 8482 8482 284
Width: 1229
VWidth: 1947
GlyphClass: 2
Flags: W
HStem: 1220 150<249 371 524 666> 1380 20G<700 857.357 1125.22 1295>
VStem: 210 154<466 620> 506 152<466 618> 945 152<466 618>
DStem2: 210 466 364 466 0.207912 0.978148<32.0184 770.997> 506 466 658 466 0.207912 0.978148<31.6026 432.501> 945 466 1097 466 0.207912 0.978148<31.6026 367.934>
LayerCount: 2
Fore
SplineSet
210 466 m 1
 371 1220 l 1
 217 1220 l 1
 249 1370 l 1
 698 1370 l 1
 704 1400 l 1
 856 1400 l 1
 890 899 l 1
 1135 1400 l 1
 1295 1400 l 1
 1295 1395 1294 1390 1293 1385 c 2
 1097 466 l 1
 945 466 l 1
 1021 826 l 1
 870 519 l 1
 765 519 l 1
 742 858 l 1
 658 466 l 1
 506 466 l 1
 666 1220 l 1
 524 1220 l 1
 364 466 l 1
 210 466 l 1
EndSplineSet
Validated: 3073
EndChar

StartChar: Ecyrillic
Encoding: 1028 1028 290
Width: 1229
VWidth: 1947
GlyphClass: 2
Flags: W
HStem: -25 150<359.509 690.299> 661 150<340 695> 1275 150<596.821 958.461>
VStem: 129 150<211.504 658.586> 1026 150<1078.85 1203.21>
LayerCount: 2
Fore
SplineSet
726 810 m 1
 695 661 l 1
 307 661 l 1
 290 574 279 488 279 412 c 3
 279 189 368 125 507 125 c 2
 524 125 l 2
 680 126 781 212 854 338 c 1
 984 262 l 1
 887 96 740 -24 524 -25 c 2
 507 -25 l 2
 372 -25 129 25 129 412 c 3
 129 532 153 652 165 711 c 2
 179 778 l 2
 245 1090 383 1425 776 1425 c 2
 794 1425 l 2
 1028 1425 1159 1303 1176 1080 c 1
 1026 1068 l 1
 1016 1208 953 1275 794 1275 c 2
 776 1275 l 2
 513 1275 403 1070 340 811 c 1
 726 810 l 1
EndSplineSet
Validated: 3073
EndChar

StartChar: Becyrillic
Encoding: 1041 1041 298
Width: 1229
VWidth: 1947
GlyphClass: 2
Flags: W
HStem: 0 150<201 727.335> 712 150<349 860.009> 1250 150<430 1170>
VStem: 944 150<349.007 635.377>
DStem2: 17 0 169.117 0 0.207912 0.978148<184.978 759.023 912.19 1308.55> 834.552 0 986.929 0 0.207912 0.978148<270.798 550.403>
LayerCount: 2
Fore
SplineSet
318 712 m 1
 201 150 l 1
 492 150 l 2
 746 150 892 268 920 402 c 2
 940 500 l 2
 943 514 944 528 944 540 c 3
 944 678 766 712 640 712 c 2
 318 712 l 1
640 862 m 2
 921 862 1094 733 1094 540 c 3
 1094 517 1091 494 1086 470 c 2
 1066 372 l 2
 1020 149 796 0 492 0 c 2
 17 0 l 1
 308 1400 l 1
 1201 1400 l 1
 1170 1250 l 1
 430 1250 l 1
 349 862 l 1
 640 862 l 2
EndSplineSet
Validated: 3073
EndChar

StartChar: Gecyrillic
Encoding: 1043 1043 299
Width: 1229
VWidth: 1947
GlyphClass: 2
Flags: W
HStem: 0 21G<16 173.176> 1250 150<430 1245>
VStem: 16 153<0 153>
DStem2: 16 -0 169 -0 0.207912 0.978148<31.8105 1308.76>
LayerCount: 2
Fore
SplineSet
169 -0 m 1
 118 0 67 0 16 0 c 1
 308 1400 l 1
 1276 1400 l 1
 1245 1250 l 1
 430 1250 l 1
 169 -0 l 1
EndSplineSet
Validated: 3073
EndChar

StartChar: Decyrillic
Encoding: 1044 1044 300
Width: 1229
VWidth: 1947
GlyphClass: 2
Flags: W
HStem: 0 151<279 798> 1250 150<866.657 1027>
DStem2: 115 151 279 151 0.405236 0.914212<66.4587 1140.9> 729.769 -170 882.769 -170 0.207912 0.978148<359.982 1450.77>
LayerCount: 2
Fore
SplineSet
279 151 m 1
 798 151 l 1
 1027 1250 l 1
 987 1250 l 2
 851 1250 675 1045 626 935 c 2
 279 151 l 1
490 997 m 2
 538 1102 747 1400 987 1400 c 2
 1211 1400 l 1
 951 151 l 1
 1055 151 l 1
 1013 -51 l 1
 923 -170 l 1
 836 -170 l 1
 871 0 l 1
 135 0 l 1
 100 -170 l 1
 17 -170 l 1
 -27 -47 l 1
 13 151 l 1
 115 151 l 1
 490 997 l 2
EndSplineSet
Validated: 3073
EndChar

StartChar: Zhecyrillic
Encoding: 1046 1046 302
Width: 1229
VWidth: 1947
GlyphClass: 2
Flags: W
HStem: 0 21G<-35 150.844 428 584.194 876.461 1032> 1380 20G<272 427.393 1142.33 1329>
VStem: -35 174<0 174> 272 152<1248 1400> 428 152<0 152> 708 152<1203 1355> 880 152<0 152> 1154 175<1225 1400>
DStem2: -35 0 139 0 0.508122 0.861285<88.4133 655.568> 424 1400 272 1400 0.166833 -0.985985<0 667.422> 428 0 580 0 0.207912 0.978148<31.6026 221.647 691.346 1383.61> 714 646 911 686 0.504843 0.863211<133.983 872.992> 911 686 794 486 0.173703 -0.984798<176.636 670.187>
LayerCount: 2
Fore
SplineSet
-35 0 m 1
 388 717 l 1
 272 1400 l 1
 424 1400 l 1
 556 622 l 1
 708 1355 l 1
 860 1355 l 1
 714 646 l 1
 1154 1400 l 1
 1329 1400 l 1
 911 686 l 1
 1032 0 l 1
 880 0 l 1
 794 486 l 1
 619 186 l 1
 580 0 l 1
 428 -0 l 1
 472 218 l 1
 428 488 l 1
 139 0 l 1
 -35 0 l 1
EndSplineSet
Validated: 3073
EndChar

StartChar: Zecyrillic
Encoding: 1047 1047 303
Width: 1229
VWidth: 1947
GlyphClass: 2
Flags: W
HStem: -24 149<308.016 721.657> 734 150<453 851.571> 1275 150<536.387 962.985>
VStem: 84 150<191.665 286> 941 150<355.861 670.632> 1006 150<1014.25 1233.5>
LayerCount: 2
Fore
SplineSet
438 -24 m 2xf8
 261 -24 84 109 84 286 c 1
 234 286 l 1
 234 183 350 125 471 125 c 2
 527 125 l 2
 760 125 883 266 927 442 c 2
 932 462 l 2
 941 496 941 521 941 545 c 3xf8
 941 646 891 734 685 734 c 2
 423 734 l 1
 453 884 l 1
 658 884 l 2
 829 884 972 979 994 1078 c 2
 1003 1119 l 2
 1006 1132 1006 1143 1006 1153 c 3
 1006 1231 927 1275 797 1275 c 2
 741 1275 l 2
 623 1275 498 1238 428 1145 c 1
 308 1235 l 1
 407 1367 573 1425 741 1425 c 2
 797 1425 l 2
 1019 1425 1156 1316 1156 1153 c 3xf4
 1156 1132 1154 1109 1149 1087 c 2
 1140 1046 l 2
 1118 946 1050 867 959 814 c 1
 1046 755 1091 662 1091 545 c 3
 1091 365 975 -24 566 -24 c 2
 438 -24 l 2xf8
EndSplineSet
Validated: 3073
EndChar

StartChar: Iicyrillic
Encoding: 1048 1048 304
Width: 1229
VWidth: 1947
GlyphClass: 2
Flags: W
HStem: 0 21G<17 177.738 835 992.171> 1380 20G<302.857 460 1120.26 1280>
VStem: 307 153<1247 1400> 835 153<0 153>
DStem2: 17 0 168.707 0 0.207912 0.978148<364.825 1429.7> 238 326 161 0 0.641868 0.766815<0 1099.78> 835 0 988 0 0.207912 0.978148<31.8105 1096.12>
LayerCount: 2
Fore
SplineSet
17 0 m 1
 307 1400 l 1
 460 1400 l 1
 238 326 l 1
 1137 1400 l 1
 1280 1400 l 1
 988 0 l 1
 835 0 l 1
 1059 1073 l 1
 161 0 l 1
 17 0 l 1
EndSplineSet
Validated: 3073
EndChar

StartChar: Elcyrillic
Encoding: 1051 1051 307
Width: 1229
VWidth: 1947
GlyphClass: 2
Flags: W
HStem: 0 21G<-31 145.968 835 992.171> 1250 150<891.934 1096>
VStem: -31 167<0 167> 835 153<0 153>
DStem2: -31 0 136 0 0.446138 0.894964<74.5051 1320.12> 835 0 988 0 0.207912 0.978148<31.8105 1276.95>
LayerCount: 2
Fore
SplineSet
467 999 m 2
 540 1145 738 1339 978 1400 c 1
 1280 1400 l 1
 988 0 l 1
 835 0 l 1
 1096 1250 l 1
 997 1250 l 1
 838 1206 665 1061 601 933 c 2
 136 0 l 1
 -31 0 l 1
 467 999 l 2
EndSplineSet
Validated: 3073
EndChar

StartChar: Pecyrillic
Encoding: 1055 1055 311
Width: 1229
VWidth: 1947
GlyphClass: 2
Flags: W
HStem: -0 21G<16 173.176 835 992.171> 1250 150<430 1096>
VStem: 16 153<0 153> 308 972<428 1400> 835 153<0 153>
DStem2: 16 0 169 0 0.207912 0.978148<31.8105 1308.76> 835 0 988 0 0.207912 0.978148<31.8105 1276.95>
LayerCount: 2
Fore
SplineSet
169 0 m 1xe8
 118 0 67 0 16 -0 c 1
 308 1400 l 1
 1280 1400 l 1xf0
 988 0 l 1
 937 0 886 0 835 -0 c 1
 1096 1250 l 1
 430 1250 l 1
 169 0 l 1xe8
EndSplineSet
Validated: 3073
EndChar

StartChar: Ucyrillic
Encoding: 1059 1059 315
Width: 1229
VWidth: 1947
GlyphClass: 2
Flags: W
HStem: -25 150<195.295 423.265> 1380 20G<301 476 1136.53 1320>
VStem: 301 152<1248 1400> 1148 172<1228 1400>
DStem2: 490 251 620 177 0.49675 0.867894<-150.106 265.326 421.47 1324.07>
LayerCount: 2
Fore
SplineSet
620 177 m 2
 526 14 406 -24 278 -25 c 2
 238 -25 l 2
 219 -25 144 -21 103 14 c 2
 66 46 l 1
 164 160 l 1
 195 133 l 2
 201 128 226 125 238 125 c 2
 278 125 l 2
 357 126 426 139 490 251 c 2
 609 459 l 1
 464 751 354 1054 301 1400 c 1
 453 1400 l 1
 499 1116 584 863 699 617 c 1
 1148 1400 l 1
 1320 1400 l 1
 620 177 l 2
EndSplineSet
Validated: 3073
EndChar

StartChar: Efcyrillic
Encoding: 1060 1060 316
Width: 1229
VWidth: 1947
GlyphClass: 2
Flags: W
HStem: -24 21G<421 578.177> 134 150<354.029 454 638 769.506> 1177 150<538.492 671 855 952.783> 1406 20G<723 870.96>
VStem: 152 150<340.199 826.958> 421 153<-24 129> 1014 150<664.726 1112.87>
DStem2: 9.18169 -24 161.655 -24 0.207912 0.978148<631.434 1084.24> 421 -24 574 -24 0.207912 0.978148<31.8105 161.408 346.386 1226.73 1411.71 1480.13> 828.182 -24 980.558 -24 0.207912 0.978148<508.657 952.527>
LayerCount: 2
Fore
SplineSet
302 557 m 3
 302 442 337 284 421 284 c 2
 485 284 l 1
 671 1177 l 1
 634 1177 l 2
 529 1177 376 984 330 768 c 2
 318 712 l 2
 307 659 302 606 302 557 c 3
1014 912 m 3
 1014 1059 953 1177 895 1177 c 2
 824 1177 l 1
 638 284 l 1
 678 284 l 2
 771 284 936 481 991 742 c 2
 1003 799 l 2
 1011 838 1014 876 1014 912 c 3
574 -24 m 1
 421 -24 l 1
 454 134 l 1
 421 134 l 2
 228 134 152 349 152 557 c 3
 152 617 161 679 172 742 c 2
 182 798 l 2
 236 1098 453 1327 634 1327 c 2
 702 1327 l 1
 723 1425 l 1
 875 1426 l 1
 855 1327 l 1
 895 1327 l 2
 1056 1327 1164 1129 1164 912 c 3
 1164 866 1159 818 1149 769 c 2
 1137 712 l 2
 1075 417 876 134 678 134 c 2
 607 134 l 1
 574 -24 l 1
EndSplineSet
Validated: 3073
EndChar

StartChar: Tsecyrillic
Encoding: 1062 1062 318
Width: 1229
VWidth: 1947
GlyphClass: 2
Flags: W
HStem: 0 150<201 766> 1380 20G<303.843 461 1021.84 1179>
VStem: 308 153<1247 1400> 1026 153<1247 1400>
DStem2: -32.5257 -233 119.591 -233 0.207912 0.978148<423.183 1668.11> 684.591 -233 837.591 -233 0.207912 0.978148<423.367 1668.3>
LayerCount: 2
Fore
SplineSet
201 150 m 1
 766 150 l 1
 1026 1400 l 1
 1179 1400 l 1
 919 150 l 1
 1049 150 l 1
 1018 0 l 1
 850 -233 l 1
 728 -145 l 1
 833 0 l 1
 17 0 l 1
 308 1400 l 1
 461 1400 l 1
 201 150 l 1
EndSplineSet
Validated: 3073
EndChar

StartChar: Checyrillic
Encoding: 1063 1063 319
Width: 1229
VWidth: 1947
GlyphClass: 2
Flags: W
HStem: 0 21G<835 992.171> 437 150<427.926 926> 1380 20G<303.854 461 1122.82 1280>
VStem: 190 150<664.489 914.282> 308 153<1247 1400> 835 153<0 153> 1127 153<1247 1400>
DStem2: 13.1628 0 165.539 0 0.207912 0.978148<842.495 1430.71> 835 0 988 0 0.207912 0.978148<31.8105 446.37 599.538 1430.12>
LayerCount: 2
Fore
SplineSet
988 0 m 1xf6
 835 0 l 1
 926 437 l 1
 598 437 l 2
 323 437 190 602 190 791 c 3xf6
 190 820 194 850 200 879 c 2
 308 1400 l 1
 461 1400 l 1xee
 346 849 l 2
 342 829 340 809 340 791 c 3
 340 677 417 587 598 587 c 2
 957 587 l 1
 1127 1400 l 1
 1280 1400 l 1
 988 0 l 1xf6
EndSplineSet
Validated: 3073
EndChar

StartChar: Shacyrillic
Encoding: 1064 1064 320
Width: 1229
VWidth: 1947
GlyphClass: 2
Flags: W
HStem: 0 150<201 459 612 867> 1380 20G<302.857 461 1122.84 1280>
VStem: 17 972<0 972> 307 154<1246 1400> 673 153<1027 1180> 1127 153<1247 1400>
DStem2: 17 0 169.117 0 0.207912 0.978148<184.978 1429.7> 427.117 0 580.117 0 0.207912 0.978148<185.162 1205.34> 835.117 0 989 0 0.207912 0.978148<153.351 1430.09>
LayerCount: 2
Fore
SplineSet
612 150 m 1xdc
 867 150 l 1
 1127 1400 l 1
 1280 1400 l 1
 989 0 l 1
 17 0 l 1xe4
 307 1400 l 1
 461 1400 l 1
 201 150 l 1
 459 150 l 1
 673 1180 l 1
 826 1180 l 1
 612 150 l 1xdc
EndSplineSet
Validated: 3073
EndChar

StartChar: Shchacyrillic
Encoding: 1065 1065 321
Width: 1229
VWidth: 1947
GlyphClass: 2
Flags: W
HStem: -0 150<201 459 612 867> 1380 20G<302.857 461 1121.86 1280>
VStem: 307 154<1246 1400> 672 154<1026 1180> 1126 154<1246 1400>
DStem2: -33.1633 -236 118.953 -236 0.207912 0.978148<426.25 1670.97> 376.953 -236 529.953 -236 0.207912 0.978148<426.434 1446.4> 784.953 -236 937.953 -236 0.207912 0.978148<426.434 1671.16>
LayerCount: 2
Fore
SplineSet
892 0 m 1
 17 -0 l 1
 307 1400 l 1
 461 1400 l 1
 201 150 l 1
 459 150 l 1
 672 1180 l 1
 826 1180 l 1
 612 150 l 1
 867 150 l 1
 1126 1400 l 1
 1280 1400 l 1
 1020 150 l 1
 1099 150 l 1
 1063 -26 l 1
 896 -236 l 1
 778 -142 l 1
 892 0 l 1
EndSplineSet
Validated: 3073
EndChar

StartChar: Hardsigncyrillic
Encoding: 1066 1066 322
Width: 1229
VWidth: 1947
GlyphClass: 2
Flags: W
HStem: 0 150<392 769.651> 672 150<532 893.853> 1250 150<383 468>
VStem: 261 391<1009 1400> 943 150<332.122 626.071>
DStem2: 208 0 360.117 0 0.207912 0.978148<184.978 718.233 871.401 1276.74> 834.803 0 987.18 0 0.207912 0.978148<251.89 544.228>
LayerCount: 2
Fore
SplineSet
501 672 m 1
 392 150 l 1
 601 150 l 2
 748 150 888 245 916 382 c 2
 938 490 l 2
 941 506 943 521 943 534 c 3
 943 647 823 672 741 672 c 2
 501 672 l 1
741 822 m 2
 954 822 1093 707 1093 534 c 3
 1093 510 1089 486 1084 460 c 2
 1062 352 l 2
 1016 131 804 0 601 0 c 2
 208 0 l 1
 468 1250 l 1
 383 1250 l 1
 218 959 l 1
 169 959 l 1
 261 1400 l 1
 652 1400 l 1
 532 822 l 1
 741 822 l 2
EndSplineSet
Validated: 3073
EndChar

StartChar: Yericyrillic
Encoding: 1067 1067 323
Width: 1229
VWidth: 1947
GlyphClass: 2
Flags: W
HStem: 0 150<181 419.5> 722 150<331 557.353> 1380 20G<282.857 440 1141.84 1299>
VStem: 287 153<1247 1400> 625 150<353.962 662.659> 855 153<0 153> 1146 153<1247 1400>
DStem2: -3 0 149.117 0 0.207912 0.978148<184.978 769.22 922.387 1429.7> 512.301 0 664.678 0 0.207912 0.978148<268.555 572.46> 855 0 1008 0 0.207912 0.978148<31.8105 1429.91>
LayerCount: 2
Fore
SplineSet
300 722 m 1
 181 150 l 1
 208 150 l 2
 448 150 572 275 602 422 c 2
 620 510 l 2
 624 529 625 547 625 562 c 3
 625 690 490 722 358 722 c 2
 300 722 l 1
358 872 m 2
 701 872 775 686 775 562 c 3
 775 535 772 508 766 480 c 2
 748 392 l 2
 704 181 524 0 208 0 c 2
 -3 0 l 1
 287 1400 l 1
 440 1400 l 1
 331 872 l 1
 358 872 l 2
1008 0 m 1
 855 0 l 1
 1146 1400 l 1
 1299 1400 l 1
 1008 0 l 1
EndSplineSet
Validated: 3073
EndChar

StartChar: Softsigncyrillic
Encoding: 1068 1068 324
Width: 1229
VWidth: 1947
GlyphClass: 2
Flags: W
HStem: 0 150<201 764.373> 672 150<341 871.075> 1405 20G<307.86 465>
VStem: 312 153<1272 1425> 937 150<322.38 613.547>
DStem2: 17 0 169.117 0 0.207912 0.978148<184.978 718.025 871.401 1455.19> 834.678 0 987.055 0 0.207912 0.978148<246.201 522.328>
LayerCount: 2
Fore
SplineSet
309 672 m 1
 201 150 l 1
 532 150 l 2
 773 150 888 248 918 392 c 2
 932 460 l 2
 936 479 937 497 937 513 c 3
 937 577 905 672 672 672 c 2
 309 672 l 1
672 822 m 2
 1015 822 1087 637 1087 513 c 3
 1087 486 1084 458 1078 430 c 2
 1064 362 l 2
 1020 148 847 0 532 0 c 2
 17 0 l 1
 312 1425 l 1
 465 1425 l 1
 341 822 l 1
 672 822 l 2
EndSplineSet
Validated: 3073
EndChar

StartChar: Ereversedcyrillic
Encoding: 1069 1069 325
Width: 1229
VWidth: 1947
GlyphClass: 2
Flags: W
HStem: -25 150<357.625 689.109> 670 150<618 975> 1038 21G<377.394 452.5> 1275 150<590.209 955.984>
VStem: 136 148<200.856 306.131> 1028 150<824.636 1201.52>
LayerCount: 2
Fore
SplineSet
794 1425 m 2
 981 1425 1178 1345 1178 1023 c 3
 1178 968 1173 883 1145 749 c 2
 1130 680 l 2
 1062 367 921 -25 524 -25 c 2
 507 -25 l 2
 281 -25 164 108 136 304 c 1
 284 326 l 1
 304 185 373 125 507 125 c 2
 524 125 l 2
 771 125 907 371 975 670 c 1
 587 670 l 1
 618 820 l 1
 1006 820 l 1
 1024 917 1028 980 1028 1023 c 3
 1028 1217 945 1275 794 1275 c 2
 776 1275 l 2
 589 1275 487 1176 418 1038 c 1
 284 1104 l 1
 377 1292 531 1425 776 1425 c 2
 794 1425 l 2
EndSplineSet
Validated: 3073
EndChar

StartChar: IUcyrillic
Encoding: 1070 1070 326
Width: 1229
VWidth: 1947
GlyphClass: 2
Flags: W
HStem: -25 150<598.702 771.552> -0 21G<-4 153.192> 625 150<311 441> 1275 150<834.155 1019.38> 1380 20G<284.814 441>
VStem: -4 153<0 153> 289 152<1248 1400> 417 150<146.544 621.717> 1051 150<724.674 1249.3>
DStem2: -9.31391 -25 143.686 -25 0.207912 0.978148<57.369 695.948 849.115 1455.88> 847.157 -25 999.959 -25 0.207912 0.978148<348.678 1095.05>
LayerCount: 2
Fore
SplineSet
1051 1055 m 3xb580
 1051 1224 1011 1275 946 1275 c 2
 932 1275 l 2
 806 1275 689 1078 616 741 c 2
 605 690 l 2
 582 579 567 463 567 363 c 3
 567 178 610 125 656 125 c 2
 682 125 l 2
 812 125 935 402 1007 727 c 2
 1018 777 l 2
 1039 874 1051 974 1051 1055 c 3xb580
-4 -0 m 1x6680
 289 1400 l 1
 441 1400 l 1x6e80
 311 775 l 1
 470 775 l 1
 572 1247 747 1425 932 1425 c 2
 946 1425 l 2
 1038 1425 1201 1400 1201 1055 c 3
 1201 931 1177 806 1164 745 c 2
 1153 695 l 2
 1103 466 972 -25 682 -25 c 2
 656 -25 l 2
 547 -25 417 37 417 363 c 3xb580
 417 457 429 551 441 625 c 1
 280 625 l 1
 149 0 l 1
 98 0 47 0 -4 -0 c 1x6680
EndSplineSet
Validated: 3073
EndChar

StartChar: IAcyrillic
Encoding: 1071 1071 327
Width: 1229
VWidth: 1947
GlyphClass: 2
Flags: W
HStem: 0 21G<-56 164.041 835 993.157> 592 150<680 959> 1250 150<514.012 1096>
VStem: -56 202<0 202> 210 150<795.6 1095.02> 835 154<0 154>
DStem2: -56 0 146 0 0.669849 0.742498<135.309 812.124> 13.2453 0 165.622 0 0.207912 0.978148<941.378 1235.88> 835 0 989 0 0.207912 0.978148<32.0184 604.844 758.012 1276.95>
LayerCount: 2
Fore
SplineSet
990 742 m 1
 1096 1250 l 1
 767 1250 l 2
 469 1250 407 1144 383 1028 c 2
 365 938 l 2
 361 919 360 903 360 888 c 3
 360 800 432 742 630 742 c 2
 990 742 l 1
959 592 m 1
 680 592 l 1
 146 0 l 1
 -56 0 l 1
 488 603 l 1
 257 644 210 788 210 888 c 3
 210 914 214 941 219 968 c 2
 237 1058 l 2
 291 1318 492 1400 767 1400 c 2
 1280 1400 l 1
 989 0 l 1
 835 0 l 1
 959 592 l 1
EndSplineSet
Validated: 3073
EndChar

StartChar: becyrillic
Encoding: 1073 1073 329
Width: 1229
VWidth: 1947
GlyphClass: 2
Flags: W
HStem: -25 150<347.737 730.625> 1250 150<615 1175>
VStem: 101 150<215.938 598.908> 979 150<462.859 848.117>
DStem2: 11.7361 -25 164.113 -25 0.207912 0.978148<416.491 846.377> 830.736 -25 983.113 -25 0.207912 0.978148<282.44 770.173>
LayerCount: 2
Fore
SplineSet
292 582 m 2
 257 412 l 2
 252 390 251 369 251 349 c 3
 251 215 348 125 502 125 c 2
 529 125 l 2
 763 125 893 256 930 442 c 2
 964 612 l 2
 976 671 979 708 979 732 c 3
 979 813 958 899 719 899 c 2
 693 899 l 2
 460 899 331 766 292 582 c 2
312 1400 m 1
 1206 1400 l 1
 1175 1250 l 1
 615 1250 l 1
 990 993 l 1
 1074 947 1129 866 1129 732 c 3
 1129 672 1118 611 1112 582 c 2
 1076 412 l 2
 1020 146 823 -25 529 -25 c 2
 502 -25 l 2
 263 -25 101 134 101 349 c 3
 101 379 105 410 111 442 c 2
 146 612 l 2
 198 861 377 1029 645 1047 c 1
 289 1290 l 1
 312 1400 l 1
EndSplineSet
Validated: 3073
EndChar

StartChar: vecyrillic
Encoding: 1074 1074 330
Width: 1229
VWidth: 2334
GlyphClass: 2
Flags: W
HStem: 0 150<289.453 900.184> 474 150<299 476.788 681 961.697> 1274 150<487.073 875.648>
VStem: 84 150<201.001 471.539> 888 150<1025.67 1248.94> 986 150<229.307 438.571>
DStem2: 14.5666 0 167.943 0 0.207912 0.978148<329.929 516.334 669.501 1280.08> 634.439 0 787.241 0 0.207912 0.978148<959.565 1229.27>
LayerCount: 2
Fore
SplineSet
888 1203 m 3xf8
 888 1246 810 1274 693 1274 c 2
 646 1274 l 2
 483 1274 420 1202 376 993 c 2
 299 624 l 1
 332 624 l 2
 513 624 834 934 864 1080 c 2
 881 1160 l 2
 883 1167 888 1200 888 1203 c 3xf8
986 376 m 3xf4
 986 435 930 474 729 474 c 2
 268 474 l 1
 240 339 l 2
 236 320 234 304 234 290 c 3
 234 217 289 150 506 150 c 2
 633 150 l 2
 904 150 949 210 974 300 c 2
 981 335 l 2
 984 349 986 367 986 376 c 3xf4
693 1424 m 2
 981 1424 1038 1291 1038 1203 c 3xf8
 1038 1189 1037 1174 1033 1156 c 2
 1010 1048 l 2
 984 926 845 749 681 624 c 1
 729 624 l 2
 871 624 1136 605 1136 376 c 3
 1136 354 1133 331 1128 308 c 2
 1118 268 l 2
 1065 56 888 0 633 0 c 2
 506 0 l 2
 149 0 84 174 84 290 c 3
 84 315 87 342 93 369 c 2
 229 1023 l 2
 275 1243 364 1424 646 1424 c 2
 693 1424 l 2
EndSplineSet
Validated: 3073
EndChar

StartChar: gecyrillic
Encoding: 1075 1075 331
Width: 1229
VWidth: 1947
GlyphClass: 2
Flags: W
HStem: -25 150<260.498 743.672> 899 150<466.803 948.685>
VStem: 71 150<167.744 358.877> 910 146<273 324.946> 961 150<710.828 878.684>
DStem2: 319 549 353 403 0.973585 0.228327<-122.434 643.274>
LayerCount: 2
Fore
SplineSet
961 824 m 3xe8
 961 869 921 899 736 899 c 2
 649 899 l 2
 469 899 376 793 350 762 c 1
 234 858 l 1
 331 975 475 1049 649 1049 c 2
 736 1049 l 2
 933 1049 1111 1038 1111 824 c 3xe8
 1111 722 1056 569 886 528 c 2
 353 403 l 2
 266 383 238 330 232 302 c 2
 225 268 l 2
 223 261 221 243 221 237 c 3
 221 158 336 125 457 125 c 2
 577 125 l 2
 749 125 891 259 910 352 c 1
 1056 322 l 1xf0
 1019 147 807 -25 577 -25 c 2
 457 -25 l 2
 303 -25 71 16 71 234 c 3
 71 250 73 265 77 286 c 2
 83 323 l 2
 88 356 118 502 319 549 c 2
 852 674 l 2
 952 698 961 797 961 824 c 3xe8
EndSplineSet
Validated: 3073
EndChar

StartChar: decyrillic
Encoding: 1076 1076 332
Width: 1229
VWidth: 1947
GlyphClass: 2
Flags: W
HStem: -25 150<347.737 730.766> 899 150<490.812 924.547> 1250 150<461.155 970.656>
VStem: 101 150<217.023 471.442> 1051 150<963.778 1172.68>
DStem2: 10.6015 -25 164.113 -25 0.207912 0.978148<416.727 846.092> 830.736 -25 983.113 -25 0.207912 0.978148<287.89 770.267 1007.34 1100.39>
LayerCount: 2
Fore
SplineSet
693 1049 m 2
 719 1049 l 2
 841 1049 959 1028 1037 961 c 1
 1045 996 l 2
 1049 1016 1051 1036 1051 1054 c 3
 1051 1211 900 1250 790 1250 c 2
 767 1250 l 2
 574 1250 513 1230 381 1173 c 1
 321 1311 l 1
 467 1374 542 1400 767 1400 c 2
 794 1400 l 2
 1062 1400 1201 1243 1201 1054 c 3
 1201 1025 1197 996 1191 966 c 2
 1076 412 l 2
 1021 146 823 -25 529 -25 c 2
 502 -25 l 2
 263 -25 101 134 101 349 c 3
 101 379 105 410 111 442 c 2
 146 612 l 2
 201 876 398 1049 693 1049 c 2
292 582 m 2
 257 412 l 2
 252 390 251 369 251 349 c 3
 251 215 348 125 502 125 c 2
 529 125 l 2
 763 125 891 256 930 442 c 2
 967 625 l 2
 977 677 979 710 979 732 c 3
 979 813 958 899 719 899 c 2
 693 899 l 2
 460 899 330 765 292 582 c 2
EndSplineSet
Validated: 3073
EndChar

StartChar: zhecyrillic
Encoding: 1078 1078 334
Width: 1229
VWidth: 1947
GlyphClass: 2
Flags: W
HStem: 0 21G<52 241.789 426 583.273 784.464 943> 1003 20G<636.805 794>
VStem: 52 177<0 177> 641 153<870 1023> 789 154<0 154>
DStem2: 52 0 229 0 0.537879 0.843022<95.2046 444.174> 360 1069 216 1029 0.264137 -0.964485<0.543621 560.458> 426 0 579 0 0.207912 0.978148<31.8105 151.452 542.715 1045.35> 684 500 838 460 0.564717 0.825285<53.9551 716.454> 838 460 723 291 0.222537 -0.974924<139.17 437.561>
LayerCount: 2
Fore
SplineSet
52 0 m 1xe8
 364 489 l 1
 216 1029 l 1
 360 1069 l 1
 525 470 l 1
 641 1023 l 1
 794 1023 l 1xf0
 684 500 l 1
 1089 1091 l 1
 1213 1007 l 1
 838 460 l 1
 943 0 l 1
 789 0 l 1
 723 291 l 1
 604 117 l 1
 579 0 l 1
 426 0 l 1
 457 149 l 1
 417 294 l 1
 229 0 l 1
 52 0 l 1xe8
EndSplineSet
Validated: 3073
EndChar

StartChar: zecyrillic
Encoding: 1079 1079 335
Width: 1229
VWidth: 1947
GlyphClass: 2
Flags: W
HStem: -25 150<293.747 782.734> 475 150<489 847.695> 898 151<450.113 914.102>
VStem: 76 150<185.045 272> 912 150<246.063 448.47> 936 150<707.007 874.62>
LayerCount: 2
Fore
SplineSet
674 625 m 2xf8
 849 625 936 725 936 810 c 3
 936 898 805 898 769 898 c 2
 643 898 l 2
 516 898 419 858 351 768 c 1
 231 858 l 1
 276 917 382 1049 646 1049 c 2
 759 1049 l 2
 1025 1049 1086 906 1086 810 c 3xf4
 1086 780 1079 659 962 566 c 1
 1023 527 1062 466 1062 382 c 3
 1062 360 1059 340 1055 319 c 2
 1051 299 l 2
 1021 158 892 -25 587 -25 c 2
 462 -25 l 2
 244 -25 83 92 76 272 c 1
 226 278 l 1
 230 181 329 125 462 125 c 2
 587 125 l 2
 875 125 912 323 912 382 c 3
 912 438 870 475 691 475 c 2
 458 475 l 1
 489 625 l 1
 674 625 l 2xf8
EndSplineSet
Validated: 3073
EndChar

StartChar: kacyrillic
Encoding: 1082 1082 338
Width: 1229
VWidth: 1947
GlyphClass: 2
Flags: W
HStem: 0 21G<16 173.138 786.667 1022> 1003 20G<224.836 382 1047.5 1098.85>
VStem: 229 153<870 1023>
DStem2: 16 0 169 0 0.207912 0.978148<31.8105 120.652 424.052 1044.93> 249 384 438 372 0.665704 0.746216<0 246.336> 850 168 746 60 0.715376 -0.69874<-181.077 86.6271> 923 968 995 836 0.900845 0.434142<-283.277 184.272>
LayerCount: 2
Fore
SplineSet
169 0 m 1
 16 0 l 1
 229 1023 l 1
 382 1023 l 1
 249 384 l 1
 326 472 l 2
 529 702 772 895 923 968 c 2
 1089 1048 l 1
 1155 914 l 1
 995 836 l 2
 889 784 750 672 647 582 c 1
 670 510 l 2
 702 411 797 220 850 168 c 2
 1022 0 l 1
 807 0 l 1
 746 60 l 2
 663 142 558 366 526 467 c 1
 496 437 467 405 438 372 c 2
 187 87 l 1
 169 0 l 1
EndSplineSet
Validated: 3073
EndChar

StartChar: elcyrillic
Encoding: 1083 1083 339
Width: 1229
VWidth: 1947
GlyphClass: 2
Flags: W
HStem: 0 21G<-22 162.146 835 993.164> 873 150<761.279 1018>
VStem: -22 173<0 173> 835 154<0 154>
DStem2: -22 0 151 0 0.486568 0.873642<84.1763 935.654> 835 0 989 0 0.207912 0.978148<32.0184 891.971>
LayerCount: 2
Fore
SplineSet
335 641 m 2
 424 801 691 1023 909 1023 c 2
 1202 1023 l 1
 989 0 l 1
 835 0 l 1
 1018 873 l 1
 909 873 l 2
 757 873 535 688 467 567 c 2
 151 0 l 1
 -22 0 l 1
 335 641 l 2
EndSplineSet
Validated: 3073
EndChar

StartChar: emcyrillic
Encoding: 1084 1084 340
Width: 1229
VWidth: 1947
GlyphClass: 2
Flags: W
HStem: 0 21G<-11 152.504 863 1015.66> 1003 20G<315.49 479.84 927.058 1099>
VStem: -11 157<0 157> 863 151<0 151>
DStem2: -11 0 146 0 0.309527 0.950891<48.5958 779.418> 477 1023 372 695 0.140593 -0.990068<309.98 675.711> 572 354 590 76 0.479954 0.877293<0 452.144> 863 0 1014 0 0.0828036 0.996566<12.5033 681.388>
LayerCount: 2
Fore
SplineSet
146 0 m 1
 -11 0 l 1
 322 1023 l 1
 477 1023 l 1
 572 354 l 1
 938 1023 l 1
 1099 1023 l 1
 1014 0 l 1
 863 0 l 1
 920 679 l 1
 590 76 l 1
 459 76 l 1
 372 695 l 1
 146 0 l 1
EndSplineSet
Validated: 3073
EndChar

StartChar: encyrillic
Encoding: 1085 1085 341
Width: 1229
VWidth: 1947
GlyphClass: 2
Flags: W
HStem: 0 21G<16 173.152 835 992.164> 395 150<283 917> 1003 20G<224.836 382 1042.86 1201>
VStem: 16 153<0 153> 229 153<870 1023> 835 153<0 153> 1047 154<869 1023>
DStem2: 16 0 169 0 0.207912 0.978148<31.8105 435.228 588.603 1044.93> 835 0 988 0 0.207912 0.978148<31.8105 403.417 556.584 1044.72>
LayerCount: 2
Fore
SplineSet
169 0 m 1
 16 0 l 1
 229 1023 l 1
 382 1023 l 1
 283 545 l 1
 948 545 l 1
 1047 1023 l 1
 1201 1023 l 1
 988 0 l 1
 835 0 l 1
 917 395 l 1
 251 395 l 1
 169 0 l 1
EndSplineSet
Validated: 3073
EndChar

StartChar: efcyrillic
Encoding: 1092 1092 348
Width: 1229
VWidth: 1947
GlyphClass: 2
Flags: W
HStem: -25 150<233.634 421 605 819.326> 818 150<377.056 596 781 973.374>
VStem: 19 150<181.999 560.08> 346 154<-384 -230> 1032 150<398.268 762.762>
DStem2: -144.035 -384 10.3413 -384 0.207912 0.978148<749.056 1153.95> 346 -384 500 -384 0.207912 0.978148<32.0184 366.748 551.726 1227.71 1412.9 1464.62> 825.177 -384 977.554 -384 0.207912 0.978148<636.999 1043.45>
LayerCount: 2
Fore
SplineSet
452 125 m 1
 596 818 l 1
 583 818 l 2
 350 818 241 711 196 494 c 2
 184 433 l 2
 179 410 169 361 169 313 c 1
 169 200 216 125 410 125 c 2
 452 125 l 1
605 125 m 1
 610 125 l 2
 847 125 957 232 1005 462 c 2
 1018 524 l 2
 1023 547 1032 594 1032 641 c 3
 1032 734 1001 818 789 818 c 2
 749 818 l 1
 605 125 l 1
500 -384 m 1
 346 -384 l 1
 421 -25 l 1
 410 -25 l 2
 114 -25 19 133 19 313 c 1
 19 362 26 412 36 463 c 2
 48 524 l 2
 100 775 246 968 583 968 c 2
 627 968 l 1
 644 1050 l 1
 798 1050 l 1
 781 968 l 1
 789 968 l 2
 1129 968 1182 772 1182 641 c 3
 1182 593 1174 544 1164 494 c 2
 1151 432 l 2
 1097 173 956 -25 610 -25 c 2
 574 -25 l 1
 500 -384 l 1
EndSplineSet
Validated: 3073
EndChar

StartChar: tsecyrillic
Encoding: 1094 1094 350
Width: 1229
VWidth: 2334
GlyphClass: 2
Flags: W
HStem: -25 150<296.417 641.141> 1003 20G<224.88 382 1043.85 1201>
VStem: 88 150<179.307 538.734> 229 153<870 1023> 909 150<-46.2009 165.655> 1048 153<870 1023>
DStem2: -47.664 -298 104.713 -298 0.207912 0.978148<639.376 1349.65> 769.868 -298 925.021 -298 0.207912 0.978148<669.271 1349.96>
LayerCount: 2
Fore
SplineSet
245 362 m 2xd0
 240 337 238 314 238 294 c 3
 238 208 281 125 471 125 c 2
 498 125 l 2
 682 125 915 380 938 493 c 2
 1048 1023 l 1
 1201 1023 l 1xe4
 1033 210 l 1
 1053 165 1059 119 1059 80 c 3
 1059 -188 776 -298 776 -298 c 1
 722 -158 l 1
 752 -146 909 -68 909 80 c 3
 909 117 891 159 887 166 c 1
 777 60 636 -25 498 -25 c 2
 471 -25 l 2
 220 -25 88 103 88 294 c 3xe8
 88 326 92 359 99 392 c 2
 229 1023 l 1
 382 1023 l 1
 245 362 l 2xd0
EndSplineSet
Validated: 3073
EndChar

StartChar: checyrillic
Encoding: 1095 1095 351
Width: 1229
VWidth: 1947
GlyphClass: 2
Flags: W
HStem: -24 21G<830 987.164> 322 150<369.406 755.525> 1003 20G<224.914 382 1043.83 1201>
VStem: 161 150<527.855 897.023> 229 153<870 1023> 830 153<-24 129> 1048 153<870 1023>
DStem2: 8.75656 -24 161.133 -24 0.207912 0.978148<718.186 1069.91> 830 -24 983 -24 0.207912 0.978148<31.8105 496.379 720.201 1069.45>
LayerCount: 2
Fore
SplineSet
318 714 m 2xee
 313 690 311 666 311 645 c 3
 311 563 346 472 543 472 c 2
 620 472 l 2
 795 472 983 713 1009 836 c 2
 1048 1023 l 1
 1201 1023 l 1
 983 -24 l 1
 830 -24 l 1
 931 462 l 1
 842 381 735 322 620 322 c 2
 543 322 l 2
 273 322 161 470 161 645 c 3xf6
 161 678 165 711 172 744 c 2
 229 1023 l 1
 382 1023 l 1
 318 714 l 2xee
EndSplineSet
Validated: 3073
EndChar

StartChar: shacyrillic
Encoding: 1096 1096 352
Width: 1229
VWidth: 2334
GlyphClass: 2
Flags: W
HStem: -25 150<198.807 366.096 632.948 801.316> 1003 20G<204.858 362 632.92 790 1063.82 1221>
VStem: 44 150<132.625 297.669> 209 153<870 1023> 637 153<870 1023> 1068 153<870 1023>
DStem2: -9.57862 -25 142.798 -25 0.207912 0.978148<261.846 1070.54> 419.765 -25 573.798 -25 0.207912 0.978148<265.331 1070.26> 849 -25 1003 -25 0.207912 0.978148<32.0184 56.2931 247.412 1070.63>
LayerCount: 2
Fore
SplineSet
500 92 m 1
 405 -21 302 -25 277 -25 c 2
 262 -25 l 2
 146 -25 44 61 44 199 c 3
 44 219 47 239 51 260 c 2
 209 1023 l 1
 362 1023 l 1
 197 230 l 2
 195 219 194 208 194 199 c 3
 194 144 230 125 262 125 c 2
 277 125 l 2
 354 125 484 274 505 376 c 2
 637 1023 l 1
 790 1023 l 1
 628 230 l 2
 626 220 626 211 626 202 c 3
 626 169 639 125 693 125 c 2
 708 125 l 2
 792 125 910 266 930 363 c 2
 1068 1023 l 1
 1221 1023 l 1
 1003 -25 l 1
 849 -25 l 1
 861 30 l 1
 784 -24 734 -25 708 -25 c 2
 693 -25 l 2
 602 -25 534 23 500 92 c 1
EndSplineSet
Validated: 3073
EndChar

StartChar: shchacyrillic
Encoding: 1097 1097 353
Width: 1229
VWidth: 2334
GlyphClass: 2
Flags: W
HStem: -25 150<198.583 363.375 632.948 798.856> 1003 20G<203.885 361 634.85 792 1062.9 1220>
VStem: 44 150<133.19 298.075> 208 153<870 1023> 639 153<870 1023> 929 150<-44.4288 87.3926> 1067 153<870 1023>
DStem2: -67.6066 -298 84.7701 -298 0.207912 0.978148<541.922 1349.43> 361.462 -298 515.77 -298 0.207912 0.978148<544.487 1349.84> 791.012 -298 945.021 -298 0.207912 0.978148<526.679 1349.51>
LayerCount: 2
Fore
SplineSet
500 93 m 1xfc
 412 -16 298 -25 277 -25 c 2
 262 -25 l 2
 131 -25 44 76 44 200 c 3
 44 220 47 240 51 260 c 2
 208 1023 l 1
 361 1023 l 1
 197 230 l 2
 195 219 194 209 194 200 c 3
 194 162 212 125 262 125 c 2
 277 125 l 2
 352 125 485 280 506 382 c 2
 639 1023 l 1
 792 1023 l 1
 628 230 l 2
 626 220 626 211 626 202 c 3
 626 169 639 125 693 125 c 2
 708 125 l 2
 792 125 913 274 933 370 c 2
 1067 1023 l 1
 1220 1023 l 1xfa
 1053 210 l 1
 1073 165 1079 119 1079 80 c 3
 1079 -188 796 -298 796 -298 c 1
 742 -158 l 1
 772 -146 929 -68 929 80 c 3
 929 82 929 86 929 88 c 1
 826 -18 728 -25 708 -25 c 2
 693 -25 l 2
 602 -25 534 23 500 93 c 1xfc
EndSplineSet
Validated: 3073
EndChar

StartChar: hardsigncyrillic
Encoding: 1098 1098 354
Width: 1229
VWidth: 1947
GlyphClass: 2
Flags: W
HStem: 0 150<402 770.722> 491 150<504 876.192> 873 150<334 399>
VStem: 915 150<296.125 448.853>
DStem2: 218 0 370.117 0 0.207912 0.978148<184.978 533.288 686.455 891.555>
LayerCount: 2
Fore
SplineSet
915 388 m 3
 915 429 864 491 674 491 c 2
 473 491 l 1
 402 150 l 1
 572 150 l 2
 740 150 883 231 904 324 c 2
 911 353 l 2
 912 359 915 383 915 388 c 3
674 641 m 2
 986 641 1065 489 1065 388 c 3
 1065 374 1064 360 1060 342 c 2
 1050 294 l 2
 1011 109 788 0 572 0 c 2
 218 0 l 1
 399 873 l 1
 334 873 l 1
 158 572 l 1
 94 572 l 1
 190 1023 l 1
 583 1023 l 1
 504 641 l 1
 674 641 l 2
EndSplineSet
Validated: 3073
EndChar

StartChar: yericyrillic
Encoding: 1099 1099 355
Width: 1229
VWidth: 1947
GlyphClass: 2
Flags: W
HStem: 0 150<181 487.598> 486 150<281 593.232> 1003 20G<203.875 360 1062.87 1219>
VStem: 208 152<871 1023> 639 149<266.887 440.497> 856 153<0 153> 1067 152<871 1023>
DStem2: -3 0 149.117 0 0.207912 0.978148<184.978 527.981 681.149 1044.51> 856 0 1009 0 0.207912 0.978148<31.8105 1044.51>
LayerCount: 2
Fore
SplineSet
281 636 m 1
 388 636 l 2
 604 636 788 570 788 380 c 3
 788 366 787 351 783 332 c 2
 775 294 l 2
 736 108 502 0 287 0 c 2
 -3 0 l 1
 208 1023 l 1
 360 1023 l 1
 281 636 l 1
181 150 m 1
 287 150 l 2
 452 150 604 231 629 324 c 2
 636 348 l 2
 637 352 639 373 639 378 c 3
 639 463 488 486 388 486 c 2
 250 486 l 1
 181 150 l 1
856 0 m 1
 1067 1023 l 1
 1219 1023 l 1
 1009 0 l 1
 856 0 l 1
EndSplineSet
Validated: 3073
EndChar

StartChar: softsigncyrillic
Encoding: 1100 1100 356
Width: 1229
VWidth: 1947
GlyphClass: 2
Flags: W
HStem: 0 150<201 746.606> 486 150<302 855.716> 1029 20G<229.863 388>
VStem: 234 154<895 1049> 913 150<269.511 428.111>
DStem2: 17 0 169.117 0 0.207912 0.978148<184.978 528.189 681.357 1071.19>
LayerCount: 2
Fore
SplineSet
302 636 m 1
 633 636 l 2
 824 636 1050 577 1063 375 c 3
 1063 362 1061 349 1058 332 c 2
 1050 294 l 2
 1013 117 762 0 532 0 c 2
 17 0 l 1
 234 1049 l 1
 388 1049 l 1
 302 636 l 1
201 150 m 1
 532 150 l 2
 719 150 886 243 904 324 c 2
 909 347 l 2
 910 351 913 370 913 374 c 3
 913 439 782 486 633 486 c 2
 271 486 l 1
 201 150 l 1
EndSplineSet
Validated: 3073
EndChar

StartChar: ereversedcyrillic
Encoding: 1101 1101 357
Width: 1229
VWidth: 1947
GlyphClass: 2
Flags: W
HStem: -25 150<280.026 694.753> 437 150<419 904> 898 150<448.865 887.073>
VStem: 952 150<587.501 834.002>
DStem2: 805.799 -25 959.862 -25 0.207912 0.978148<309.088 472.321 625.905 735.425>
LayerCount: 2
Fore
SplineSet
671 1048 m 2
 748 1048 l 2
 966 1048 1102 908 1102 697 c 3
 1102 660 1097 622 1089 582 c 2
 1057 432 l 2
 1000 167 765 -25 556 -25 c 2
 479 -25 l 2
 255 -25 121 54 80 197 c 1
 224 239 l 1
 234 205 266 125 479 125 c 2
 556 125 l 2
 691 125 854 260 904 437 c 1
 388 437 l 1
 419 587 l 1
 937 587 l 1
 943 612 l 2
 949 643 952 671 952 697 c 3
 952 833 873 898 748 898 c 2
 671 898 l 2
 447 898 366 809 333 759 c 1
 207 841 l 1
 293 973 448 1048 671 1048 c 2
EndSplineSet
Validated: 3073
EndChar

StartChar: iucyrillic
Encoding: 1102 1102 358
Width: 1229
VWidth: 1947
GlyphClass: 2
Flags: W
HStem: -25 150<578.633 787.607> 0 21G<-4 153.165> 437 150<271 402> 899 150<738.849 955.75> 1003 20G<204.836 362>
VStem: -4 153<0 153> 209 153<870 1023> 395 150<152.356 435.564> 988 150<437.173 866.609>
DStem2: -9.31391 -25 143.686 -25 0.207912 0.978148<57.369 503.739 656.907 1070.49> 848.645 -25 1001.02 -25 0.207912 0.978148<281.579 744.681>
LayerCount: 2
Fore
SplineSet
545 326 m 3xb780
 545 146 605 125 656 125 c 2
 682 125 l 2
 807 125 918 296 963 513 c 2
 970 548 l 2
 981 604 988 660 988 709 c 3
 988 872 925 899 868 899 c 2
 854 899 l 2
 721 899 617 745 569 514 c 2
 561 478 l 2
 551 429 545 376 545 326 c 3xb780
656 -25 m 2
 606 -25 395 -16 395 326 c 3
 395 363 397 400 402 437 c 1
 240 437 l 1
 149 0 l 1
 -4 0 l 1
 209 1023 l 1
 362 1023 l 1x6f80
 271 587 l 1
 432 587 l 1
 485 803 611 1049 854 1049 c 2
 868 1049 l 2
 976 1049 1138 990 1138 709 c 3
 1138 647 1129 583 1116 518 c 2
 1109 483 l 2
 1074 313 953 -25 682 -25 c 2
 656 -25 l 2
EndSplineSet
Validated: 3073
EndChar

StartChar: iacyrillic
Encoding: 1103 1103 359
Width: 1229
VWidth: 1947
GlyphClass: 2
Flags: W
HStem: 0 21G<133.448 174.216 835 992.184> 395 150<644 918> 873 150<432.258 1018>
VStem: 158 149<587.125 727.362> 835 153<0 153>
DStem2: 54 103 150 -13 0.771028 0.636801<0.149834 475.918> 832.237 -13 985.237 -13 0.207912 0.978148<45.1009 416.915 570.083 905.261>
LayerCount: 2
Fore
SplineSet
421 406 m 1
 184 446 163 578 158 650 c 3
 158 669 161 689 165 708 c 2
 174 759 l 2
 210 961 487 1023 669 1023 c 2
 1202 1023 l 1
 988 -0 l 1
 835 0 l 1
 918 395 l 1
 644 395 l 1
 150 -13 l 1
 54 103 l 1
 421 406 l 1
1018 873 m 1
 669 873 l 2
 452 873 337 795 322 729 c 2
 314 692 l 2
 312 686 307 659 307 650 c 3
 307 566 450 545 569 545 c 2
 949 545 l 1
 1018 873 l 1
EndSplineSet
Validated: 3073
EndChar

StartChar: ecyrillic
Encoding: 1108 1108 362
Width: 1229
VWidth: 1947
GlyphClass: 2
Flags: W
HStem: -25 150<343.648 778.794> 437 150<317 809> 898 150<506.409 946.172>
VStem: 126 150<188.943 436.205>
LayerCount: 2
Fore
SplineSet
743 898 m 2
 677 898 l 2
 468 898 359 751 317 587 c 1
 840 587 l 1
 809 437 l 1
 287 437 l 1
 281 404 276 371 276 341 c 3
 276 204 340 125 485 125 c 2
 551 125 l 2
 685 125 827 159 896 260 c 1
 1020 176 l 1
 932 48 766 -25 551 -25 c 2
 485 -25 l 2
 242 -25 126 136 126 341 c 3
 126 384 132 428 141 472 c 2
 165 592 l 2
 218 847 393 1048 677 1048 c 2
 743 1048 l 2
 1077 1048 1140 879 1155 817 c 1
 1009 783 l 1
 993 850 910 898 743 898 c 2
EndSplineSet
Validated: 3073
EndChar

StartChar: numero
Encoding: 8470 8470 372
Width: 1229
VWidth: 1947
Flags: W
HStem: 0 21G<-49 108.205 356.432 516.229> 471 153<933.424 995.584> 1182 150<1038.09 1103.68> 1380 20G<240.8 400.565 649.782 808>
VStem: -49 153<0 153> 654 154<1246 1400> 780 150<627.629 999.521> 1106 150<826.735 1179.44>
DStem2: -49 0 104 0 0.207912 0.978148<31.8105 931.044> 468 518 289 880 0.077993 -0.996954<-374.858 0> 357.896 0 512 0 0.207912 0.978148<529.572 1430.97>
LayerCount: 2
Fore
SplineSet
1090 1332 m 3xfb
 1105 1332 1256 1317 1256 1095 c 3
 1256 936 1185 644 1063 527 c 0
 1031 496 989 471 939 471 c 3
 916 471 780 492 780 726 c 3
 780 789 788 860 804 935 c 1
 888 1297 1033 1332 1090 1332 c 3xfb
1090 1182 m 3
 1028 1182 930 939 930 726 c 3
 930 668 938 625 945 624 c 3
 1022 624 1106 936 1106 1095 c 3
 1106 1135 1100 1182 1090 1182 c 3
-49 0 m 1
 245 1400 l 1
 399 1400 l 1
 468 518 l 1
 654 1400 l 1
 808 1400 l 1xfd
 512 0 l 1
 358 0 l 1
 289 880 l 1
 104 0 l 1
 -49 0 l 1
EndSplineSet
Validated: 3073
EndChar

StartChar: caroncomb
Encoding: 780 780 377
Width: 1229
VWidth: 1947
Flags: W
HStem: 1422 242
VStem: 543 581
DStem2: 623 1664 543 1536 0.84825 -0.529595<0 216.38> 812 1546 901 1422 0.897326 0.441368<25.1324 274.148>
LayerCount: 2
Fore
SplineSet
812 1546 m 1
 1058 1667 l 1
 1124 1533 l 1
 901 1422 l 1
 727 1422 l 1
 543 1536 l 1
 623 1664 l 1
 812 1546 l 1
EndSplineSet
Validated: 3073
EndChar

StartChar: gravecomb
Encoding: 768 768 379
Width: 1229
VWidth: 2334
Flags: W
HStem: 1394 297
VStem: 687 274
DStem2: 807 1691 687 1603 0.593199 -0.805056<0 259.27>
LayerCount: 2
Fore
SplineSet
961 1482 m 1
 841 1394 l 1
 687 1603 l 1
 807 1691 l 1
 961 1482 l 1
EndSplineSet
Validated: 3073
EndChar

StartChar: acutecomb
Encoding: 769 769 380
Width: 1229
VWidth: 2334
Flags: W
HStem: 1381 323
VStem: 474 340
DStem2: 474 1495 572 1381 0.756823 0.65362<0 319.414>
LayerCount: 2
Fore
SplineSet
572 1381 m 5
 474 1495 l 5
 716 1704 l 5
 814 1590 l 5
 572 1381 l 5
EndSplineSet
Validated: 3073
EndChar

StartChar: tildecomb
Encoding: 771 771 381
Width: 1229
VWidth: 1947
Flags: W
HStem: 1447 150<893.113 1031.92> 1537 150<627.382 768.517>
LayerCount: 2
Fore
SplineSet
502 1576 m 2x40
 584 1673 662 1687 702 1687 c 2
 718 1687 l 2x40
 769 1687 832 1673 876 1627 c 2
 893 1609 l 2
 895 1607 923 1597 940 1597 c 2
 957 1597 l 2
 979 1597 1006 1607 1044 1655 c 2
 1063 1679 l 1
 1181 1585 l 1
 1162 1561 l 2
 1077 1454 981 1447 957 1447 c 2
 940 1447 l 2x80
 863 1447 812 1477 788 1502 c 2
 769 1522 l 2
 759 1532 729 1537 718 1537 c 2
 702 1537 l 2
 681 1537 658 1529 616 1480 c 2
 594 1454 l 1
 480 1550 l 1
 502 1576 l 2x40
EndSplineSet
Validated: 3073
EndChar

StartChar: hookabovecomb
Encoding: 777 777 382
Width: 1229
VWidth: 1947
Flags: W
HStem: 1268 158<733 852> 1551 130<670.124 943.398>
VStem: 946 150<1450.86 1545.24>
LayerCount: 2
Fore
SplineSet
856 1681 m 3
 1063 1681 1096 1584 1096 1513 c 3
 1096 1385 992 1312 859 1299 c 1
 852 1268 l 1
 699 1268 l 1
 733 1426 l 1
 794 1426 l 2
 894 1426 946 1469 946 1511 c 3
 946 1536 906 1551 860 1551 c 3
 783 1551 741 1536 686 1504 c 1
 606 1614 l 1
 692 1664 762 1681 856 1681 c 3
EndSplineSet
Validated: 3073
EndChar

StartChar: dotbelowcomb
Encoding: 803 803 383
Width: 1229
VWidth: 2334
Flags: W
HStem: -355 204<362.294 528.75>
VStem: 344 204<-336.089 -169.911>
LayerCount: 2
Fore
SplineSet
344 -253 m 0
 344 -197 388 -151 445 -151 c 0
 501 -151 548 -197 548 -253 c 0
 548 -309 501 -355 445 -355 c 0
 388 -355 344 -309 344 -253 c 0
EndSplineSet
Validated: 3073
EndChar

StartChar: commaturnedabovecmb
Encoding: 786 786 396
Width: 1229
VWidth: 1947
Flags: W
HStem: -486 150<337.582 576.959> -187 199<458 597.995>
VStem: 602 150<-307.485 -193.849>
LayerCount: 2
Fore
SplineSet
602 -237 m 3
 602 -193 543 -187 508 -187 c 2
 415 -187 l 1
 458 12 l 1
 611 12 l 1
 598 -48 l 1
 705 -76 752 -156 752 -237 c 3
 752 -395 599 -486 458 -486 c 3
 359 -486 275 -445 219 -386 c 1
 327 -282 l 1
 336 -291 386 -336 458 -336 c 3
 523 -336 602 -301 602 -237 c 3
EndSplineSet
Validated: 3073
EndChar

StartChar: Hbar
Encoding: 294 294 400
Width: 1229
VWidth: 1947
Flags: W
HStem: 0 21G<105 261.231 750 906.201> 657 150<427 887> 1095 150<227 334 519 979 1164 1265> 1380 20G<394.742 551 1039.74 1196>
VStem: 105 152<0 152> 399 152<1248 1400> 750 152<0 152> 1044 152<1248 1400>
DStem2: 105 0 257 0 0.207912 0.978148<31.6026 703.145 856.313 1118.68 1303.87 1430.53> 750 0 902 0 0.207912 0.978148<31.6026 671.127 824.502 1118.68 1303.87 1430.53>
LayerCount: 2
Fore
SplineSet
427 807 m 1
 919 807 l 1
 979 1095 l 1
 487 1095 l 1
 427 807 l 1
257 0 m 1
 105 0 l 1
 334 1095 l 1
 196 1095 l 1
 227 1245 l 1
 366 1245 l 1
 399 1400 l 1
 551 1400 l 1
 519 1245 l 1
 1011 1245 l 1
 1044 1400 l 1
 1196 1400 l 1
 1164 1245 l 1
 1296 1245 l 1
 1265 1095 l 1
 1132 1095 l 1
 902 0 l 1
 750 0 l 1
 887 657 l 1
 396 657 l 1
 257 0 l 1
EndSplineSet
Validated: 3073
EndChar

StartChar: hbar
Encoding: 295 295 401
Width: 1229
VWidth: 1947
Flags: W
HStem: 0 21G<96 254.174 836 993.157> 899 150<596.684 930.679> 1205 150<240 348 533 798> 1380 20G<385 542>
VStem: 96 154<0 154> 836 153<0 153> 986 150<509.016 846.551>
DStem2: 96 0 250 0 0.207912 0.978148<32.0184 770.059 981.052 1231.06 1416.25 1430.32> 836 0 989 0 0.207912 0.978148<31.8105 756.328>
LayerCount: 2
Fore
SplineSet
981 694 m 2xfc
 985 711 986 728 986 742 c 3
 986 868 862 899 759 899 c 2
 734 899 l 2
 555 899 390 669 365 551 c 2
 250 0 l 1
 96 0 l 1
 348 1205 l 1
 209 1205 l 1
 240 1355 l 1
 380 1355 l 1
 389 1400 l 1
 542 1400 l 1
 533 1355 l 1
 829 1355 l 1
 798 1205 l 1
 501 1205 l 1
 444 929 l 1
 526 999 625 1049 734 1049 c 2
 759 1049 l 2
 990 1049 1136 926 1136 742 c 3xfa
 1136 716 1133 691 1127 664 c 2
 989 0 l 1
 836 -0 l 1
 981 694 l 2xfc
EndSplineSet
Validated: 3073
EndChar

StartChar: IJ
Encoding: 306 306 410
Width: 1229
VWidth: 1947
Flags: W
HStem: 0 151<0 217 370 630> 263 150<562 722.569> 1250 150<260 446 599 928 1081 1297>
DStem2: 184.904 0 337.904 0 0.207912 0.978148<186.184 1276.97> 665.915 0 818.292 0 0.207912 0.978148<452.571 1277.17>
LayerCount: 2
Fore
SplineSet
630 0 m 1
 -32 0 l 1
 -0 151 l 1
 217 151 l 1
 446 1250 l 1
 228 1250 l 1
 260 1400 l 1
 1329 1400 l 1
 1297 1250 l 1
 1081 1250 l 1
 942 582 l 2
 896 361 763 263 643 263 c 2
 531 263 l 1
 562 413 l 1
 643 413 l 2
 704 413 770 487 796 612 c 2
 928 1250 l 1
 599 1250 l 1
 370 151 l 1
 660 151 l 1
 630 0 l 1
EndSplineSet
Validated: 3073
EndChar

StartChar: Tbar
Encoding: 358 358 430
Width: 1229
VWidth: 1947
Flags: W
HStem: 0 21G<427 583.206> 485 150<150 528 712 1088> 1250 150<310 688 841 1247>
VStem: 427 152<0 152>
DStem2: 427 0 579 0 0.207912 0.978148<31.6026 495.401 680.379 1276.95>
LayerCount: 2
Fore
SplineSet
427 0 m 1
 528 485 l 1
 119 485 l 1
 150 635 l 1
 559 635 l 1
 688 1250 l 1
 278 1250 l 1
 310 1400 l 1
 1279 1400 l 1
 1247 1250 l 1
 841 1250 l 1
 712 635 l 1
 1119 635 l 1
 1088 485 l 1
 681 485 l 1
 579 0 l 1
 427 0 l 1
EndSplineSet
Validated: 3073
EndChar

StartChar: tbar
Encoding: 359 359 431
Width: 1229
VWidth: 1947
Flags: W
HStem: -25 150<504.327 767.807> 485 150<150 369 561 1087> 858 150<262 463 656 990> 1405 20G<601.916 762>
VStem: 320 150<160.16 452.367> 607 155<1270 1425>
DStem2: 369 485 476 300 0.246385 0.969172<-200.246 0 192.682 384.661 577.589 969.661>
LayerCount: 2
Fore
SplineSet
262 1008 m 1
 501 1008 l 1
 607 1425 l 1
 762 1425 l 1
 656 1008 l 1
 1021 1008 l 1
 990 858 l 1
 618 858 l 1
 561 635 l 1
 1119 635 l 1
 1087 485 l 1
 523 485 l 1
 476 300 l 2
 473 288 470 267 470 252 c 3
 470 176 533 125 615 125 c 2
 640 125 l 2
 730 125 812 188 853 251 c 1
 979 169 l 1
 926 88 804 -25 640 -25 c 2
 615 -25 l 2
 446 -25 320 97 320 252 c 3
 320 284 324 307 330 332 c 2
 369 485 l 1
 118 485 l 1
 150 635 l 1
 407 635 l 1
 463 858 l 1
 231 858 l 1
 262 1008 l 1
EndSplineSet
Validated: 3073
EndChar

StartChar: A
Encoding: 65 65 461
Width: 1229
VWidth: 1708
Flags: W
HStem: 0 21G<-10 168.522 858.831 1013> 249 150<368 817> 1405 20G<726.516 855.246>
VStem: -10 168<0 168> 861 152<0 152>
DStem2: -10 0 158 -0 0.464286 0.885686<78 359.357 528.888 1325.55> 853 1425 739 1104 0.11158 -0.993756<306.275 1015.58 1166.54 1416.99>
LayerCount: 2
Fore
SplineSet
368 399 m 1
 817 399 l 1
 739 1104 l 1
 368 399 l 1
158 -0 m 1
 -10 0 l 1
 737 1425 l 1
 853 1425 l 1
 1013 0 l 1
 861 0 l 1
 834 249 l 1
 289 249 l 1
 158 -0 l 1
EndSplineSet
Validated: 3073
EndChar

StartChar: Lambda
Encoding: 923 923 462
Width: 1229
VWidth: 1708
Flags: W
HStem: 0 21G<-20 159.561 857.898 1012> 1405 20G<721.446 862.133>
VStem: -20 169<0 169> 860 152<0 152>
DStem2: -20 0 149 0 0.466718 0.884406<78.8754 1348.83> 860 1425 742 1123 0.106065 -0.994359<287.781 1416.96>
LayerCount: 2
Fore
SplineSet
149 0 m 1
 -20 0 l 1
 732 1425 l 1
 860 1425 l 1
 1012 0 l 1
 860 0 l 1
 742 1123 l 1
 149 0 l 1
EndSplineSet
Validated: 3073
EndChar

StartChar: Delta
Encoding: 916 916 463
Width: 1229
VWidth: 1708
Flags: W
HStem: -0 150<233 845> 1405 20G<721.516 864.091>
DStem2: -15 -0 233 150 0.464286 0.885686<247.996 1345.2> 862 1425 742 1122 0.103994 -0.994578<288.878 1265.32>
LayerCount: 2
Fore
SplineSet
845 151 m 1
 742 1122 l 1
 233 150 l 1
 845 151 l 1
-15 -0 m 1
 732 1425 l 1
 862 1425 l 1
 1011 0 l 1
 -15 -0 l 1
EndSplineSet
Validated: 3073
EndChar

StartChar: Theta
Encoding: 920 920 464
Width: 1229
VWidth: 1947
Flags: W
HStem: -25 150<382.138 671.831> 624 150<544 756> 1275 150<619.75 925.271>
VStem: 137 150<230.7 776.73> 1018 150<666.18 1170.14>
DStem2: 8.55838 -25 160.935 -25 0.207912 0.978148<531.641 1120.23> 827.346 -25 980.148 -25 0.207912 0.978148<423.081 999.521>
LayerCount: 2
Fore
SplineSet
786 774 m 1
 756 624 l 1
 514 624 l 1
 544 774 l 1
 786 774 l 1
794 1275 m 2
 776 1275 l 2
 552 1275 387 1043 325 748 c 2
 311 681 l 2
 295 604 287 527 287 456 c 3
 287 291 331 125 507 125 c 2
 524 125 l 2
 748 125 917 388 984 712 c 2
 999 781 l 2
 1012 843 1018 902 1018 959 c 3
 1018 1109 973 1275 794 1275 c 2
1168 959 m 3
 1168 891 1160 820 1145 749 c 2
 1130 680 l 2
 1067 372 880 -25 524 -25 c 2
 507 -25 l 2
 236 -25 137 204 137 456 c 3
 137 539 147 626 165 711 c 2
 179 778 l 2
 243 1083 434 1425 776 1425 c 2
 794 1425 l 2
 1058 1425 1168 1207 1168 959 c 3
EndSplineSet
Validated: 3073
EndChar

StartChar: Xi
Encoding: 926 926 465
Width: 1229
VWidth: 1708
Flags: W
HStem: 0 336<86 201 905 989> 0 150<201 867> 625 150<480 822> 1050 350<308 388 1096 1207> 1250 150<430 1096>
VStem: 86 153<183 336> 234 154<1050 1204> 905 153<183 336> 1053 154<1050 1204>
DStem2: 17 0 169.117 0 0.207912 0.978148<184.978 343.004 1104.19 1308.55> 835.117 0 989 0 0.207912 0.978148<153.351 343.187 1104.37 1276.93>
LayerCount: 2
Fore
SplineSet
201 150 m 1x65
 867 150 l 1x65
 905 336 l 1
 1058 336 l 1
 989 0 l 1xa5
 17 0 l 1x65
 86 336 l 1
 239 336 l 1xa5
 201 150 l 1x65
388 1050 m 1x3280
 234 1050 l 1
 308 1400 l 1x3280
 1280 1400 l 1x2a80
 1207 1050 l 1
 1053 1050 l 1x3280
 1096 1250 l 1
 430 1250 l 1x2a80
 388 1050 l 1x3280
857 775 m 1
 822 625 l 1
 445 625 l 1
 480 775 l 1
 857 775 l 1
EndSplineSet
Validated: 3073
EndChar

StartChar: Sigma
Encoding: 931 931 468
Width: 1229
VWidth: 1947
Flags: W
HStem: 0 149<244 987> 1250 150<461 1248>
DStem2: 52 164 244 149 0.682767 0.730636<120.132 793.829> 461 1250 280 1257 0.520925 -0.853603<0 501.206>
LayerCount: 2
Fore
SplineSet
310 1400 m 1
 1279 1400 l 1
 1248 1250 l 1
 461 1250 l 1
 782 724 l 1
 244 149 l 1
 1018 149 l 1
 987 0 l 1
 18 0 l 1
 52 164 l 1
 594 744 l 1
 280 1257 l 1
 310 1400 l 1
EndSplineSet
Validated: 3073
EndChar

StartChar: Psi
Encoding: 936 936 473
Width: 1229
VWidth: 1947
Flags: W
HStem: -25 21G<421 578.156> 437 150<348.121 517 701 906.327> 1405 20G<717.847 875>
VStem: 165 150<616.39 830.322> 287 153<1197 1350> 421 153<-25 128> 722 153<1272 1425> 1126 153<1197 1350>
DStem2: -0.871262 -25 151.505 -25 0.207912 0.978148<795.968 1404.8> 421 -25 574 -25 0.207912 0.978148<31.8105 471.864 656.842 1480.9> 838.129 -25 990.505 -25 0.207912 0.978148<689.086 1404.8>
LayerCount: 2
Fore
SplineSet
574 -25 m 1xf7
 421 -25 l 1
 517 437 l 1
 442 437 l 2
 276 437 165 563 165 721 c 3xf7
 165 745 168 769 173 793 c 2
 287 1350 l 1
 440 1350 l 1xeb
 319 763 l 2
 316 748 315 734 315 721 c 3
 315 647 358 587 442 587 c 2
 548 587 l 1
 722 1425 l 1
 875 1425 l 1
 701 587 l 1
 780 587 l 2
 898 587 990 686 1012 793 c 2
 1126 1350 l 1
 1279 1350 l 1
 1158 763 l 2
 1122 587 970 437 780 437 c 2
 670 437 l 1
 574 -25 l 1xf7
EndSplineSet
Validated: 3073
EndChar

StartChar: Omega
Encoding: 937 937 474
Width: 1229
VWidth: 1947
Flags: W
HStem: 0 150<48 287 781 987> 1276 149<606.198 939.862>
VStem: 168 150<449.709 911.457> 1032 150<749.411 1181.99>
DStem2: 12.3754 0 165.177 0 0.207912 0.978148<693.763 1137.05> 832.279 0 984.655 0 0.207912 0.978148<571.559 1020.81>
LayerCount: 2
Fore
SplineSet
287 150 m 1
 315 284 l 1
 224 348 168 469 168 642 c 3
 168 702 175 764 187 823 c 2
 199 878 l 2
 252 1134 432 1425 742 1425 c 2
 826 1425 l 2
 1069 1425 1182 1223 1182 1003 c 3
 1182 952 1176 900 1165 849 c 2
 1153 792 l 2
 1109 581 985 348 806 267 c 1
 781 150 l 1
 1018 150 l 1
 987 0 l 1
 597 0 l 1
 677 382 l 1
 720 395 l 2
 844 432 964 618 1007 822 c 2
 1019 879 l 2
 1028 921 1032 964 1032 1003 c 3
 1032 1134 984 1276 794 1276 c 2
 776 1276 l 2
 518 1276 383 1032 345 846 c 2
 333 791 l 2
 323 742 318 691 318 642 c 3
 318 506 358 421 428 393 c 2
 486 369 l 1
 409 0 l 1
 17 0 l 1
 48 150 l 1
 287 150 l 1
EndSplineSet
Validated: 3073
EndChar

StartChar: alpha
Encoding: 945 945 483
Width: 1229
VWidth: 1947
Flags: W
HStem: -25 150<312.161 529.071> 899 150<480.031 699.589>
VStem: 107 150<181.405 600.322>
DStem2: 9.28225 -25 161.659 -25 0.207912 0.978148<430.723 817.695> 622 279 752 203 0.511426 0.859327<-187.133 116.424 516.558 911.178> 873 795 725 769 0.179882 -0.983688<-131.563 73.164 473.806 793.921>
LayerCount: 2
Fore
SplineSet
752 203 m 2
 697 111 596 -25 414 -25 c 2
 395 -25 l 2
 222 -25 107 140 107 361 c 3
 107 408 112 458 123 510 c 2
 130 544 l 2
 191 834 398 1049 587 1049 c 2
 606 1049 l 2
 697 1049 830 1033 873 795 c 2
 886 723 l 1
 1088 1062 l 1
 1216 986 l 1
 927 498 l 1
 1016 13 l 1
 868 -13 l 1
 811 302 l 1
 752 203 l 2
769 527 m 1
 725 769 l 2
 703 889 677 899 606 899 c 2
 587 899 l 2
 497 899 329 767 276 514 c 2
 269 480 l 2
 260 438 257 397 257 361 c 3
 257 226 312 125 395 125 c 2
 414 125 l 2
 512 125 573 197 622 279 c 2
 769 527 l 1
EndSplineSet
Validated: 3073
EndChar

StartChar: beta
Encoding: 946 946 484
Width: 1229
VWidth: 2334
Flags: W
HStem: -25 150<306.853 775.966> 474 150<473 855.637> 899 150<501.3 928.305>
VStem: -51 153<-324 -171> 911 150<241.187 444.3> 954 150<707.251 870.794>
DStem2: -51 -324 102 -324 0.207912 0.978148<31.8105 437.392 663.231 1160.88>
LayerCount: 2
Fore
SplineSet
954 809 m 3xf4
 954 863 894 899 721 899 c 2
 696 899 l 2
 467 899 327 758 297 614 c 2
 237 324 l 2
 235 314 234 303 234 293 c 3
 234 217 298 125 494 125 c 2
 549 125 l 2
 784 125 882 217 901 314 c 2
 906 340 l 2
 909 353 911 365 911 375 c 3xf8
 911 435 861 474 671 474 c 2
 473 474 l 1
 473 624 l 1
 623 624 l 2
 859 624 954 710 954 809 c 3xf4
1104 809 m 3xf4
 1104 767 1093 641 966 557 c 1
 999 534 1061 481 1061 375 c 3xf8
 1061 353 1059 332 1054 310 c 2
 1049 284 l 2
 1015 105 838 -25 549 -25 c 2
 494 -25 l 2
 351 -25 251 15 185 73 c 1
 102 -324 l 1
 -51 -324 l 1
 151 644 l 2
 195 856 394 1049 696 1049 c 2
 721 1049 l 2
 806 1049 1104 1049 1104 809 c 3xf4
EndSplineSet
Validated: 3073
EndChar

StartChar: gamma
Encoding: 947 947 485
Width: 1229
VWidth: 2334
Flags: W
HStem: 1003 20G<229 386.299 1024.44 1215>
VStem: 229 153<870 1023> 346 154<-386 -232> 1037 178<845 1023>
DStem2: 382 1023 229 1023 0.209049 -0.977905<0 794.744> 346 -386 500 -386 0.207912 0.978148<32.0184 445.392> 549 246 585 21 0.532275 0.846571<0 917.536>
LayerCount: 2
Fore
SplineSet
346 -386 m 1xb0
 437 50 l 1
 229 1023 l 1
 382 1023 l 1xd0
 549 246 l 1
 1037 1023 l 1
 1215 1023 l 1
 585 21 l 1
 500 -386 l 1
 346 -386 l 1xb0
EndSplineSet
Validated: 3073
EndChar

StartChar: delta
Encoding: 948 948 486
Width: 1229
VWidth: 2334
Flags: W
HStem: -25 150<360.074 712.268> 1250 150<579 1188>
VStem: 109 150<233.238 613.796> 965 150<426.504 816.247>
DStem2: 10.1083 -25 162.485 -25 0.207912 0.978148<456.824 816.433> 829.108 -25 981.485 -25 0.207912 0.978148<316.943 701.844>
LayerCount: 2
Fore
SplineSet
282 542 m 2
 266 462 l 2
 261 437 259 412 259 388 c 3
 259 240 354 125 502 125 c 2
 527 125 l 2
 749 125 898 288 939 492 c 2
 955 572 l 2
 962 605 965 636 965 665 c 3
 965 777 916 899 719 899 c 2
 694 899 l 2
 470 899 320 734 282 542 c 2
336 1400 m 1
 1188 1400 l 1
 1188 1250 l 1
 579 1250 l 1
 959 985 l 1
 1058 920 1115 807 1115 665 c 3
 1115 625 1109 584 1101 542 c 2
 1085 462 l 2
 1034 207 833 -25 527 -25 c 2
 502 -25 l 2
 267 -25 109 161 109 388 c 3
 109 422 113 457 120 492 c 2
 136 572 l 2
 182 804 354 1007 612 1043 c 1
 306 1257 l 1
 336 1400 l 1
EndSplineSet
Validated: 3073
EndChar

StartChar: epsilon
Encoding: 949 949 487
Width: 1229
VWidth: 2334
Flags: W
HStem: -25 150<252.573 782.537> 458 150<358.264 832> 899 150<400.234 964.5>
VStem: 73 149<157.686 354.87> 172 150<646.172 828.581>
LayerCount: 2
Fore
SplineSet
256 539 m 1xf0
 180 608 173 694 172 720 c 3
 172 852 241 1049 644 1049 c 2
 750 1049 l 2
 905 1049 1046 1009 1113 928 c 1
 997 832 l 1
 982 851 908 899 750 899 c 2
 644 899 l 2
 464 899 322 864 322 723 c 3xe8
 322 647 401 608 557 608 c 2
 864 608 l 1
 832 458 l 1
 557 458 l 2
 300 458 222 334 222 240 c 3
 222 179 253 125 452 125 c 2
 558 125 l 2
 712 125 792 167 858 215 c 1
 946 93 l 1
 850 23 738 -25 558 -25 c 2
 452 -25 l 2
 96 -25 73 124 73 233 c 3
 73 326 115 460 256 539 c 1xf0
EndSplineSet
Validated: 3073
EndChar

StartChar: zeta
Encoding: 950 950 488
Width: 1229
VWidth: 2334
Flags: W
HStem: -369 150<456 749.777> -25 150<262.868 819.266>
VStem: 79 151<158.175 403> 821 150<-155.231 -42.424>
DStem2: 461 715 509 573 0.947785 0.318909<-198.794 473.726> 632 1112 552 986 0.841879 -0.539666<0.647606 204.355>
LayerCount: 2
Fore
SplineSet
452 -25 m 2
 94 -25 79 139 79 249 c 3
 79 484 338 674 461 715 c 2
 779 822 l 2
 819 836 866 856 911 879 c 1
 742 891 651 923 591 961 c 2
 552 986 l 1
 632 1112 l 1
 671 1087 l 2
 746 1039 900 1023 1079 1023 c 2
 1199 1023 l 1
 1168 873 l 1
 1162 868 l 1
 1068 781 920 712 827 680 c 2
 509 573 l 2
 415 541 230 449 230 251 c 3
 230 162 281 125 452 125 c 2
 617 125 l 2
 774 125 971 109 971 -66 c 3
 971 -79 970 -93 966 -110 c 2
 961 -132 l 2
 922 -302 729 -369 564 -369 c 2
 425 -369 l 1
 456 -219 l 1
 564 -219 l 2
 700 -219 798 -165 815 -100 c 2
 818 -88 l 2
 819 -82 821 -68 821 -66 c 3
 821 -50 784 -25 617 -25 c 2
 452 -25 l 2
EndSplineSet
Validated: 3073
EndChar

StartChar: eta
Encoding: 951 951 489
Width: 1229
VWidth: 2334
Flags: W
HStem: 0 21G<16 173.192> 899 151<538.17 952.242>
VStem: 16 153<0 153> 754 154<-387 -233> 994 150<667.039 854.062>
DStem2: -66.2594 -387 86.7406 -387 0.207912 0.978148<427.456 1167.22 1365.11 1468.03> 754 -387 908 -387 0.207912 0.978148<32.0184 1187.82>
LayerCount: 2
Fore
SplineSet
719 1049 m 2
 1092 1049 1137 897 1144 780 c 3
 1144 755 1140 730 1135 704 c 2
 908 -387 l 1
 754 -387 l 1
 989 734 l 2
 992 749 994 763 994 777 c 3
 994 850 938 899 719 899 c 2
 694 899 l 2
 502 899 313 685 291 582 c 2
 169 0 l 1
 16 0 l 1
 234 1050 l 1
 388 1050 l 1
 360 918 l 1
 455 994 572 1049 694 1049 c 2
 719 1049 l 2
EndSplineSet
Validated: 3073
EndChar

StartChar: theta
Encoding: 952 952 490
Width: 1229
VWidth: 1947
Flags: W
HStem: -25 150<334.754 713.527> 437 150<294 924> 898 150<505.963 891.122>
VStem: 104 150<206.513 436.305> 967 150<588.212 822.108>
LayerCount: 2
Fore
SplineSet
732 898 m 2
 675 898 l 2
 495 898 348 771 294 587 c 1
 958 587 l 1
 964 619 967 648 967 675 c 3
 967 822 885 898 732 898 c 2
1117 675 m 3
 1117 634 1111 591 1102 547 c 2
 1083 455 l 2
 1025 179 828 -25 536 -25 c 2
 485 -25 l 2
 249 -25 104 127 104 357 c 3
 104 399 109 442 118 486 c 2
 137 576 l 2
 193 842 402 1048 675 1048 c 2
 732 1048 l 2
 990 1048 1117 884 1117 675 c 3
924 437 m 1
 261 437 l 1
 256 409 254 382 254 357 c 3
 254 247 300 125 485 125 c 2
 536 125 l 2
 735 125 870 252 924 437 c 1
EndSplineSet
Validated: 3073
EndChar

StartChar: lambda
Encoding: 955 955 491
Width: 1229
VWidth: 2334
Flags: W
HStem: 0 21G<0 187.727 836.672 994> 1405 20G<540 698.211>
VStem: 0 175<0 175> 540 154<1271 1425> 841 153<0 153>
DStem2: 0 0 175 0 0.535661 0.844433<93.7406 1019.47> 694 1425 540 1425 0.206668 -0.978411<0 411.969 625.55 1424.62>
LayerCount: 2
Fore
SplineSet
0 0 m 1
 628 990 l 1
 540 1425 l 1
 694 1425 l 1
 994 0 l 1
 841 -0 l 1
 672 781 l 1
 175 0 l 1
 0 0 l 1
EndSplineSet
Validated: 3073
EndChar

StartChar: xi
Encoding: 958 958 494
Width: 1229
VWidth: 2334
Flags: W
HStem: -369 150<456 750.607> -25 150<242.645 819.529> 438 150<365.961 869>
VStem: 69 150<151.791 334.382> 169 149<635.014 802.025> 821 150<-155.231 -43.7015>
DStem2: 550 1040 576 892 0.984658 0.174496<-217.146 156.349>
LayerCount: 2
Fore
SplineSet
69 216 m 3xf4
 69 360 101 440 272 523 c 1
 200 574 169 640 169 704 c 3
 169 718 170 732 173 746 c 2
 179 773 l 2
 206 905 325 1000 550 1040 c 2
 704 1067 l 1
 584 1120 564 1163 551 1192 c 2
 537 1223 l 1
 673 1285 l 1
 687 1254 l 2
 697 1232 787 1179 933 1157 c 2
 1003 1146 l 1
 972 997 l 1
 959 990 l 2
 906 961 811 934 734 920 c 2
 576 892 l 2
 439 868 344 817 325 741 c 2
 321 724 l 2
 320 721 318 708 318 705 c 3xec
 318 627 428 588 603 588 c 2
 900 588 l 1
 869 438 l 1
 603 438 l 2
 426 438 219 393 219 212 c 3
 219 160 269 125 452 125 c 2
 617 125 l 2
 807 125 971 99 971 -66 c 3
 971 -79 970 -93 966 -110 c 2
 961 -132 l 2
 922 -302 729 -369 564 -369 c 2
 425 -369 l 1
 456 -219 l 1
 564 -219 l 2
 700 -219 800 -164 815 -100 c 2
 817 -91 l 2
 818 -87 821 -68 821 -66 c 3
 821 -50 786 -25 617 -25 c 2
 452 -25 l 2
 161 -25 69 75 69 216 c 3xf4
EndSplineSet
Validated: 3073
EndChar

StartChar: pi
Encoding: 960 960 496
Width: 1229
VWidth: 2334
Flags: W
HStem: -0 21G<-22 217 810 1010> 874 149<436 911>
VStem: 774 150<52.938 411.109>
DStem2: 100.349 -0 252.725 -0 0.207912 0.978148<86.2483 868.361> 728.349 -0 880.725 -0 0.207912 0.978148<221.116 892.876>
LayerCount: 2
Fore
SplineSet
926 213 m 2
 924 204 924 194 924 184 c 3
 924 121 962 52 1010 -0 c 1
 949 0 887 0 826 0 c 1
 794 58 774 121 774 184 c 3
 774 204 776 223 780 243 c 2
 911 874 l 1
 454 874 l 2
 448 874 442 874 436 874 c 1
 298 213 l 2
 282 138 243 65 191 0 c 1
 -22 -0 l 1
 67 67 135 163 152 243 c 2
 278 850 l 1
 216 832 163 807 122 780 c 1
 162 969 l 1
 239 1000 336 1023 454 1023 c 2
 949 1023 l 2
 1097 1023 1209 1067 1278 1113 c 1
 1239 926 l 1
 1187 906 1129 891 1066 882 c 1
 926 213 l 2
EndSplineSet
Validated: 3073
EndChar

StartChar: rho
Encoding: 961 961 497
Width: 1229
VWidth: 2334
Flags: W
HStem: -25 150<336.292 709.839> 899 150<492.062 880.531>
VStem: -64 154<-384 -230> 971 150<439.238 813.764>
DStem2: -64 -384 90 -384 0.207912 0.978148<32.0184 524.277 787.11 1218.93> 753.052 -384 905.428 -384 0.207912 0.978148<673.404 1085.1>
LayerCount: 2
Fore
SplineSet
935 472 m 2
 964 612 l 2
 969 636 971 659 971 680 c 3
 971 817 870 899 719 899 c 2
 694 899 l 2
 460 899 330 767 291 582 c 2
 262 442 l 2
 255 410 253 380 253 352 c 3
 253 242 302 125 502 125 c 2
 527 125 l 2
 753 125 895 280 935 472 c 2
527 -25 m 2
 502 -25 l 2
 358 -25 255 23 190 98 c 1
 90 -384 l 1
 -64 -384 l 1
 145 612 l 2
 201 877 400 1049 694 1049 c 2
 719 1049 l 2
 953 1049 1121 901 1121 680 c 3
 1121 648 1117 616 1110 582 c 2
 1081 442 l 2
 1027 185 829 -25 527 -25 c 2
EndSplineSet
Validated: 3073
EndChar

StartChar: sigmafinal
Encoding: 962 962 498
Width: 1229
VWidth: 2334
Flags: W
HStem: -369 150<459 745.533> -25 150<320.217 814.262> 898 150<564.565 997.875>
VStem: 103 150<194.126 597.056> 821 150<-153.417 -43.7015>
DStem2: -62.8856 -369 89.4911 -369 0.207912 0.978148<766.477 1140.23> 1113 960 1023 840 0.801883 -0.597481<-149.989 63.1286>
LayerCount: 2
Fore
SplineSet
821 -66 m 3
 821 -50 784 -25 617 -25 c 2
 452 -25 l 2
 250 -25 103 112 103 346 c 3
 103 389 108 434 118 482 c 2
 138 582 l 2
 189 835 464 1048 774 1048 c 2
 843 1048 l 2
 943 1048 1066 995 1113 960 c 2
 1164 922 l 1
 1074 802 l 1
 1023 840 l 2
 1000 857 908 898 843 898 c 2
 774 898 l 2
 520 898 318 724 284 552 c 2
 264 452 l 2
 256 413 253 377 253 346 c 3
 253 206 322 125 452 125 c 2
 617 125 l 2
 811 125 971 99 971 -66 c 3
 971 -79 970 -93 966 -110 c 2
 961 -132 l 2
 927 -302 729 -369 564 -369 c 2
 428 -369 l 1
 459 -219 l 1
 564 -219 l 2
 700 -219 796 -164 815 -100 c 2
 818 -88 l 2
 820 -80 821 -68 821 -66 c 3
EndSplineSet
Validated: 3073
EndChar

StartChar: sigma
Encoding: 963 963 499
Width: 1229
VWidth: 1947
Flags: W
HStem: -25 150<342.089 697.286> 857 150<1073 1216> 898 150<503.471 882.751>
VStem: 108 150<211 612.162> 966 150<535.712 814.415>
DStem2: 10.1325 -25 162.509 -25 0.207912 0.978148<442.307 821.773> 828.345 -25 980.722 -25 0.207912 0.978148<328.248 704.213>
LayerCount: 2
Fore
SplineSet
1116 667 m 3xd8
 1116 628 1111 588 1102 547 c 2
 1087 475 l 2
 1031 205 816 -25 535 -25 c 2
 483 -25 l 2
 246 -25 108 145 108 373 c 3
 108 416 113 461 123 506 c 2
 137 576 l 2
 190 842 399 1048 673 1048 c 2
 730 1048 l 2xb8
 802 1048 866 1034 920 1007 c 1
 1247 1008 l 1
 1216 857 l 1
 1073 857 l 1
 1101 803 1116 738 1116 667 c 3xd8
730 898 m 2
 673 898 l 2
 479 898 324 752 283 546 c 2
 269 476 l 2
 261 440 258 405 258 373 c 3
 258 262 303 125 483 125 c 2
 535 125 l 2
 728 125 896 287 941 505 c 2
 956 577 l 2
 963 609 966 639 966 667 c 3
 966 816 877 898 730 898 c 2
EndSplineSet
Validated: 3073
EndChar

StartChar: tau
Encoding: 964 964 500
Width: 1229
VWidth: 2334
Flags: W
HStem: -25 21G<180 477.5> 874 149<334.21 610 763 1038.72>
DStem2: 421.402 -25 573.779 -25 0.207912 0.978148<228.296 918.566>
LayerCount: 2
Fore
SplineSet
504 1023 m 2
 889 1023 l 2
 983 1023 1125 1106 1233 1184 c 1
 1190 977 l 1
 1090 919 981 874 889 874 c 2
 763 874 l 1
 652 343 l 2
 625 215 532 80 423 -25 c 1
 180 -25 l 1
 304 51 473 217 506 373 c 2
 610 874 l 1
 504 874 l 2
 413 874 279 812 173 744 c 1
 214 940 l 1
 311 989 415 1023 504 1023 c 2
EndSplineSet
Validated: 3073
EndChar

StartChar: upsilon
Encoding: 965 965 501
Width: 1229
VWidth: 1947
Flags: W
HStem: -25 150<334.314 697.743> 900 149<632 911.47> 1003 20G<225.838 383>
VStem: 109 150<201.121 644.836> 230 153<870 1023> 969 150<444.457 839.225>
DStem2: 9.45623 -25 161.833 -25 0.207912 0.978148<437.2 1070.95> 828.533 -25 980.91 -25 0.207912 0.978148<327.755 730.884>
LayerCount: 2
Fore
SplineSet
632 1049 m 1xd4
 794 1049 l 2
 1009 1049 1119 898 1119 694 c 3
 1119 646 1112 597 1102 547 c 2
 1084 460 l 2
 1028 192 799 -25 530 -25 c 2
 499 -25 l 2
 231 -25 109 141 109 367 c 3xd4
 109 420 116 474 127 528 c 2
 230 1023 l 1
 383 1023 l 1xac
 273 498 l 2
 264 452 259 408 259 367 c 3
 259 173 368 125 499 125 c 2
 530 125 l 2
 715 125 894 278 938 490 c 2
 956 577 l 2
 965 619 969 659 969 694 c 3
 969 834 903 900 760 900 c 2
 632 900 l 1
 632 1049 l 1xd4
EndSplineSet
Validated: 3073
EndChar

StartChar: phi
Encoding: 966 966 502
Width: 1229
VWidth: 1947
Flags: W
HStem: -22 148<319.685 422 607 718.519> 899 150<790.86 947.94>
VStem: 105 150<191.46 622.812> 219 153<822 975> 346 153<-384 -231> 971 150<452.076 885.95>
DStem2: -67.0883 -384 85.2884 -384 0.207912 0.978148<784.9 1388.78> 346 -384 499 -384 0.207912 0.978148<31.8105 369.891 556.055 1330.62> 751.849 -384 904.651 -384 0.207912 0.978148<681.731 1122.39>
LayerCount: 2
Fore
SplineSet
971 719 m 3xc4
 971 749 969 899 896 899 c 2
 871 899 l 2
 843 899 763 880 730 719 c 2
 607 129 l 1
 805 157 905 337 944 520 c 2
 955 571 l 2
 966 624 971 674 971 719 c 3xc4
346 -384 m 1xec
 422 -22 l 1
 203 -1 105 147 105 348 c 3xec
 105 403 112 459 124 515 c 2
 219 975 l 1
 372 975 l 1xd4
 270 485 l 2
 260 437 255 390 255 348 c 3
 255 181 338 132 453 126 c 1
 584 749 l 2
 642 1026 814 1049 871 1049 c 2
 896 1049 l 2
 968 1049 1121 1010 1121 719 c 3
 1121 663 1114 602 1101 539 c 2
 1090 488 l 2
 1035 234 878 -14 575 -25 c 1
 499 -384 l 1
 346 -384 l 1xec
EndSplineSet
Validated: 3073
EndChar

StartChar: chi
Encoding: 967 967 503
Width: 1229
VWidth: 2062
Flags: W
HStem: 1003 20G<207 418.429 1010.24 1216>
VStem: -84 191<-387 -196> 1026 190<833 1023>
DStem2: -84 -387 107 -387 0.61856 0.785738<118.145 769.722 1115.9 1794.49> 402 1023 313 895 0.637814 -0.77019<0 234.942> 594 572 446 550 0.148909 -0.988851<-276.749 82.8727 429.508 758.572>
LayerCount: 2
Fore
SplineSet
-84 -387 m 1
 479 329 l 1
 446 550 l 2
 422 706 356 843 313 895 c 2
 207 1023 l 1
 402 1023 l 1
 425 995 l 2
 508 894 573 712 594 572 c 2
 606 490 l 1
 1026 1023 l 1
 1216 1023 l 1
 637 287 l 1
 655 167 l 2
 685 -31 749 -209 809 -264 c 2
 945 -387 l 1
 721 -387 l 1
 707 -375 l 2
 579 -256 523 45 510 125 c 1
 107 -387 l 1
 -84 -387 l 1
EndSplineSet
Validated: 3073
EndChar

StartChar: psi
Encoding: 968 968 504
Width: 1229
VWidth: 1947
Flags: W
HStem: -25 150<321.289 421 605 732.849> 1029 20G<640.823 798>
VStem: 114 150<187.444 561.909> 218 153<822 975> 346 153<-384 -231> 645 153<896 1049> 1037 153<822 975>
DStem2: -66.8516 -384 85.5251 -384 0.207912 0.978148<835.304 1388.53> 346 -384 499 -384 0.207912 0.978148<31.8105 366.748 551.726 1463.85> 752.148 -384 904.525 -384 0.207912 0.978148<694.291 1388.53>
LayerCount: 2
Fore
SplineSet
264 398 m 3xe6
 264 367 273 125 396 125 c 2
 452 125 l 1
 645 1049 l 1
 798 1049 l 1
 605 125 l 1
 630 125 l 2
 743 125 903 316 946 528 c 2
 1037 975 l 1
 1190 975 l 1
 1092 498 l 2
 1043 260 857 -25 630 -25 c 2
 574 -25 l 1
 499 -384 l 1
 346 -384 l 1
 421 -25 l 1
 396 -25 l 2
 145 -25 114 284 114 398 c 3xee
 114 442 118 486 127 528 c 2
 218 975 l 1
 371 975 l 1xd6
 273 498 l 2
 267 467 264 433 264 398 c 3xe6
EndSplineSet
Validated: 3073
EndChar

StartChar: omega
Encoding: 969 969 505
Width: 1229
VWidth: 2334
Flags: W
HStem: -25 150<247.315 431.522 635.003 823.956> 1003 20G<281.5 528 915 1112.5>
VStem: 80 150<133.207 385.109> 581 149<568 717> 1000 150<572.719 967.77>
DStem2: 10.0787 -25 162.455 -25 0.207912 0.978148<320.57 986.385> 422.045 -25 574.421 -25 0.207912 0.978148<271.835 758.834> 829.866 -25 982.243 -25 0.207912 0.978148<189.223 876.226>
LayerCount: 2
Fore
SplineSet
291 -25 m 2
 212 -25 91 19 80 254 c 3
 80 286 83 319 90 351 c 2
 173 749 l 2
 190 827 250 958 313 1023 c 1
 528 1023 l 1
 422 921 l 2
 391 891 334 789 319 719 c 2
 236 321 l 2
 232 299 230 276 230 255 c 3
 230 184 253 125 291 125 c 2
 314 125 l 2
 362 125 456 135 489 290 c 2
 581 717 l 1
 730 717 l 1
 635 260 l 2
 631 241 630 223 630 208 c 3
 630 141 662 125 705 125 c 2
 732 125 l 2
 839 125 891 260 910 352 c 2
 992 749 l 2
 997 776 1000 807 1000 836 c 3
 1000 886 991 919 980 934 c 2
 915 1023 l 1
 1101 1023 l 1
 1102 1023 l 2
 1123 994 1150 939 1150 836 c 3
 1150 796 1146 756 1138 719 c 2
 1056 322 l 2
 1023 162 927 -25 732 -25 c 2
 705 -25 l 2
 634 -25 570 1 528 54 c 1
 475 4 404 -25 314 -25 c 2
 291 -25 l 2
EndSplineSet
Validated: 3073
EndChar

StartChar: dieresiscmb
Encoding: 776 776 508
Width: 1229
VWidth: 1947
Flags: W
HStem: 1285 198<527.719 685.283 904.928 1061.6>
VStem: 510 193<1302.19 1466.9> 888 191<1302.46 1467.07>
LayerCount: 2
Fore
SplineSet
1079 1386 m 4
 1079 1327 1032 1285 984 1285 c 4
 933 1285 888 1331 888 1386 c 4
 888 1442 933 1483 984 1483 c 4
 1031 1483 1079 1446 1079 1386 c 4
703 1386 m 4
 703 1332 660 1285 607 1285 c 4
 555 1285 510 1330 510 1386 c 4
 510 1446 558 1483 606 1483 c 4
 661 1483 703 1438 703 1386 c 4
EndSplineSet
Validated: 3073
EndChar

StartChar: Djecyrillic
Encoding: 1026 1026 512
Width: 1229
VWidth: 2334
Flags: W
HStem: 0 150<644 817.827> 829 150<740.565 954.791> 1250 150<307 523 676 1245>
VStem: 260 153<0 153> 978 150<600.095 807.625>
DStem2: 260 0 413 0 0.207912 0.978148<31.8105 677.945 908.485 1277.37> 833.765 0 986.142 0 0.207912 0.978148<202.433 725.74>
LayerCount: 2
Fore
SplineSet
593 858 m 1
 726 979 822 979 839 979 c 2
 866 979 l 2
 1023 979 1128 869 1128 712 c 3
 1128 686 1124 660 1119 634 c 2
 1065 371 l 2
 1030 205 932 0 731 0 c 2
 612 0 l 1
 644 150 l 1
 731 150 l 2
 826 150 891 269 919 401 c 2
 973 664 l 2
 976 681 978 697 978 712 c 3
 978 756 964 829 866 829 c 2
 839 829 l 2
 768 829 558 678 499 401 c 2
 413 -0 l 1
 362 0 311 0 260 0 c 1
 523 1250 l 1
 275 1250 l 1
 307 1400 l 1
 1276 1400 l 1
 1245 1250 l 1
 676 1250 l 1
 593 858 l 1
EndSplineSet
Validated: 3073
EndChar

StartChar: Ljecyrillic
Encoding: 1033 1033 513
Width: 1229
VWidth: 1947
Flags: W
HStem: 0 150<611 789.028> 722 150<761 921.078> 1250 150<571.369 687>
VStem: -25 159<0 159> 950 150<361.334 691.481>
DStem2: -25 0 134 0 0.319846 0.947469<50.8556 1363.84> 427 0 579.117 0 0.207912 0.978148<184.978 769.22 922.387 1276.74> 834.176 0 986.552 0 0.207912 0.978148<240.576 593.375>
LayerCount: 2
Fore
SplineSet
730 722 m 1
 611 150 l 1
 645 150 l 2
 783 150 886 239 926 432 c 2
 942 510 l 2
 948 537 950 562 950 583 c 3
 950 667 913 722 795 722 c 2
 730 722 l 1
346 1099 m 2
 414 1301 524 1400 642 1400 c 2
 871 1400 l 1
 761 872 l 1
 795 872 l 2
 1001 872 1100 746 1100 583 c 3
 1100 550 1095 516 1088 480 c 2
 1072 402 l 2
 1018 140 855 0 645 0 c 2
 427 -0 l 1
 687 1250 l 1
 642 1250 l 2
 611 1250 543 1214 488 1051 c 2
 134 0 l 1
 -25 0 l 1
 346 1099 l 2
EndSplineSet
Validated: 3073
EndChar

StartChar: Njecyrillic
Encoding: 1034 1034 514
Width: 1229
VWidth: 1947
Flags: W
HStem: 0 150<611 786.398> 722 150<351 577 761 928.88> 1380 20G<302.843 460 712.871 870>
VStem: 16 153<0 153> 307 153<1247 1400> 717 153<1247 1400> 952 150<365.452 699.909>
DStem2: 16 0 169 0 0.207912 0.978148<31.8105 769.22 922.595 1429.91> 427 0 579.117 0 0.207912 0.978148<184.978 737.409 922.387 1429.7> 834.176 0 986.552 0 0.207912 0.978148<241.482 606.368>
LayerCount: 2
Fore
SplineSet
952 596 m 3
 952 715 877 722 805 722 c 2
 730 722 l 1
 611 150 l 1
 654 150 l 2
 817 150 901 309 926 432 c 2
 942 510 l 2
 949 542 952 572 952 596 c 3
805 872 m 2
 1043 872 1102 721 1102 596 c 3
 1102 558 1096 520 1088 480 c 2
 1072 402 l 2
 1031 202 891 0 654 0 c 2
 427 0 l 1
 577 722 l 1
 319 722 l 1
 169 0 l 1
 16 0 l 1
 307 1400 l 1
 460 1400 l 1
 351 872 l 1
 608 872 l 1
 717 1400 l 1
 870 1400 l 1
 761 872 l 1
 805 872 l 2
EndSplineSet
Validated: 3073
EndChar

StartChar: Tshecyrillic
Encoding: 1035 1035 515
Width: 1229
VWidth: 2334
Flags: W
HStem: -0 21G<237 395.149 835 993.144> 899 150<727.94 973.902> 1250 150<307 498 651 1245>
VStem: 237 154<0 154> 835 154<0 154> 997 150<687.276 876.654>
DStem2: 237 -0 391 -0 0.207912 0.978148<32.0184 772.648 990.064 1276.95> 835 -0 989 -0 0.207912 0.978148<32.0184 806.891>
LayerCount: 2
Fore
SplineSet
237 -0 m 1
 498 1250 l 1
 275 1250 l 1
 307 1400 l 1
 1276 1400 l 1
 1245 1250 l 1
 651 1250 l 1
 586 938 l 1
 673 1012 765 1049 839 1049 c 2
 866 1049 l 2
 1033 1049 1147 941 1147 791 c 3
 1147 769 1144 747 1139 724 c 2
 989 0 l 1
 938 0 886 0 835 0 c 1
 993 754 l 2
 996 768 997 780 997 791 c 3
 997 879 922 899 866 899 c 2
 839 899 l 2
 769 899 556 791 491 482 c 2
 391 0 l 1
 340 0 288 0 237 -0 c 1
EndSplineSet
Validated: 3073
EndChar

StartChar: Dzhecyrillic
Encoding: 1039 1039 516
Width: 1229
VWidth: 2334
Flags: W
HStem: 0 150<201 427 581 867> 1380 20G<300.886 458 1119.89 1277>
VStem: 305 153<1247 1400> 346 153<-387 -234> 1124 153<1247 1400>
DStem2: -65.2594 -387 86.8571 -387 0.207912 0.978148<580.624 1824.93> 346 -387 499 -387 0.207912 0.978148<31.8105 395.384> 752.857 -387 906.741 -387 0.207912 0.978148<548.997 1825.11>
LayerCount: 2
Fore
SplineSet
201 150 m 1xe8
 867 150 l 1
 1124 1400 l 1
 1277 1400 l 1
 989 0 l 1
 581 0 l 1
 499 -387 l 1
 346 -387 l 1xd8
 427 0 l 1
 17 0 l 1
 305 1400 l 1
 458 1400 l 1
 201 150 l 1xe8
EndSplineSet
Validated: 3073
EndChar

StartChar: djecyrillic
Encoding: 1106 1106 517
Width: 1229
VWidth: 2334
Flags: W
HStem: -369 150<325.095 681.645> 0 21G<112 269.184> 780 150<585.163 922.849> 1110 150<279 343 528 947> 1405 20G<404.758 562>
VStem: 112 153<0 153> 409 153<1272 1425> 958 150<370.203 744.307>
DStem2: 33.5666 -369 186.567 -369 0.207912 0.978148<409.054 1024.41 1234.53 1511.02 1696.2 1832.85> 757.576 -369 909.953 -369 0.207912 0.978148<272.557 1017.94>
LayerCount: 2
Fore
SplineSet
463 -219 m 2
 538 -219 l 2
 700 -219 824 -58 846 47 c 2
 946 528 l 2
 950 548 958 590 958 631 c 3
 958 720 925 780 768 780 c 2
 721 780 l 2
 552 780 383 563 356 435 c 2
 265 0 l 1
 112 0 l 1
 343 1110 l 1
 248 1110 l 1
 279 1260 l 1
 374 1260 l 1
 409 1425 l 1
 562 1425 l 1
 528 1260 l 1
 978 1260 l 1
 947 1110 l 1
 496 1110 l 1
 434 808 l 1
 515 879 612 930 721 930 c 2
 768 930 l 2
 1029 930 1108 785 1108 631 c 3
 1108 587 1101 542 1092 498 c 2
 992 17 l 2
 955 -163 768 -369 538 -369 c 2
 463 -369 l 2
 375 -369 279 -347 216 -285 c 1
 324 -181 l 1
 347 -200 393 -219 463 -219 c 2
EndSplineSet
Validated: 3073
EndChar

StartChar: dzhecyrillic
Encoding: 1119 1119 519
Width: 1229
VWidth: 2334
Flags: W
HStem: 0 151<201 428 581 867> 1003 20G<224.855 382 1043.85 1201>
VStem: 229 153<870 1023> 347 153<-381 -228> 1048 153<870 1023>
DStem2: -63.984 -381 87.9199 -381 0.207912 0.978148<575.468 1434.23> 347 -381 500 -381 0.207912 0.978148<31.8105 389.515> 753.92 -381 908.016 -381 0.207912 0.978148<543.885 1434.46>
LayerCount: 2
Fore
SplineSet
201 151 m 1xe8
 867 151 l 1
 1048 1023 l 1
 1201 1023 l 1
 989 0 l 1
 581 0 l 1
 500 -381 l 1
 347 -381 l 1xd8
 428 0 l 1
 17 0 l 1
 229 1023 l 1
 382 1023 l 1
 201 151 l 1xe8
EndSplineSet
Validated: 3073
EndChar

StartChar: ljecyrillic
Encoding: 1113 1113 520
Width: 1229
VWidth: 1947
Flags: W
HStem: 0 150<610 805.513> 486 150<712 887.039> 873 150<464.984 609>
VStem: -11 157<0 157> 915 150<253.782 457.737>
DStem2: -11 0 146 0 0.294086 0.955779<46.1715 898.646> 426 0 578.117 0 0.207912 0.978148<184.978 528.397 681.565 891.971>
LayerCount: 2
Fore
SplineSet
681 486 m 1
 610 150 l 1
 674 150 l 2
 783 150 879 231 904 324 c 2
 911 350 l 2
 913 356 915 381 915 385 c 3
 915 435 856 486 775 486 c 2
 681 486 l 1
185 637 m 2
 271 915 423 1023 582 1023 c 2
 793 1023 l 1
 712 636 l 1
 775 636 l 2
 949 636 1065 535 1065 385 c 27
 1065 368 1063 355 1060 342 c 2
 1050 294 l 2
 1013 118 841 0 674 0 c 2
 426 0 l 1
 609 873 l 1
 582 873 l 2
 455 873 376 744 329 593 c 2
 146 0 l 1
 -11 0 l 1
 185 637 l 2
EndSplineSet
Validated: 3073
EndChar

StartChar: njecyrillic
Encoding: 1114 1114 521
Width: 1229
VWidth: 1947
Flags: W
HStem: 0 150<612 802.548> 486 150<301 529 713 878.797> 1003 20G<224.836 382 635.866 793>
VStem: 16 153<0 153> 229 153<870 1023> 640 153<870 1023> 914 150<253.318 449.252>
DStem2: 16 0 169 0 0.207912 0.978148<31.8105 528.189 681.357 1044.93> 428 0 580.117 0 0.207912 0.978148<184.978 496.379 681.357 1044.72>
LayerCount: 2
Fore
SplineSet
612 150 m 1
 664 150 l 2
 763 150 877 219 903 320 c 2
 909 345 l 2
 910 349 914 375 914 379 c 3
 914 429 848 486 765 486 c 2
 682 486 l 1
 612 150 l 1
169 0 m 1
 16 0 l 1
 229 1023 l 1
 382 1023 l 1
 301 636 l 1
 560 636 l 1
 640 1023 l 1
 793 1023 l 1
 713 636 l 1
 765 636 l 2
 924 636 1064 533 1064 379 c 27
 1064 363 1062 350 1059 338 c 2
 1049 290 l 2
 1014 124 843 0 664 0 c 2
 428 0 l 1
 529 486 l 1
 270 486 l 1
 169 0 l 1
EndSplineSet
Validated: 3073
EndChar

StartChar: apostrophereverse
Encoding: 8219 8219 523
Width: 1229
VWidth: 1708
Flags: W
HStem: 959 465
VStem: 663 102<1070.41 1234.41>
LayerCount: 2
Fore
SplineSet
663 1214 m 3
 663 1319 685 1424 775 1424 c 3
 833 1424 872 1378 872 1327 c 3
 872 1288 849 1253 814 1238 c 1
 778 1218 765 1192 765 1165 c 3
 765 1104 834 1037 877 1010 c 1
 851 959 l 1
 700 1009 663 1112 663 1214 c 3
EndSplineSet
Validated: 3073
EndChar

StartChar: arrowleft
Encoding: 8592 8592 526
Width: 1229
VWidth: 1708
Flags: W
HStem: 520 160<430 1026>
DStem2: 204 674 430 680 0.687366 0.726311<159.703 513.395> 430 520 204 526 0.687366 -0.726311<0 353.692>
LayerCount: 2
Fore
SplineSet
1026 680 m 1
 1026 520 l 1
 430 520 l 1
 673 263 l 1
 557 153 l 1
 204 526 l 1
 204 674 l 1
 557 1047 l 1
 673 937 l 1
 430 680 l 1
 1026 680 l 1
EndSplineSet
Validated: 3073
EndChar

StartChar: arrowright
Encoding: 8594 8594 527
Width: 1229
VWidth: 1708
Flags: W
HStem: 520 160<204 800>
DStem2: 673 1047 557 937 0.687366 -0.726311<0.159668 353.852> 557 263 673 153 0.687366 0.726311<0 353.692>
LayerCount: 2
Fore
SplineSet
204 520 m 1
 204 680 l 1
 800 680 l 1
 557 937 l 1
 673 1047 l 1
 1026 674 l 1
 1026 526 l 1
 673 153 l 1
 557 263 l 1
 800 520 l 1
 204 520 l 1
EndSplineSet
Validated: 3073
EndChar

StartChar: lthorizform
Encoding: 9472 9472 528
Width: 1229
Flags: W
HStem: 443 160<0 1229>
LayerCount: 2
Fore
SplineSet
0 443 m 1
 -0 603 l 1
 1229 603 l 1
 1229 443 l 1
 0 443 l 1
EndSplineSet
Validated: 3073
EndChar

StartChar: ltvertform
Encoding: 9474 9474 529
Width: 1229
Flags: W
VStem: 535 160<-615 1775>
LayerCount: 2
Fore
SplineSet
695 -615 m 1
 535 -615 l 1
 535 1775 l 1
 695 1775 l 1
 695 -615 l 1
EndSplineSet
Validated: 3073
EndChar

StartChar: rightanglenw
Encoding: 9484 9484 530
Width: 1229
Flags: W
HStem: 443 160<695 1229>
VStem: 535 160<-615 443>
LayerCount: 2
Fore
SplineSet
535 -615 m 1
 535 603 l 1
 1229 603 l 1
 1229 443 l 1
 695 443 l 1
 695 -615 l 1
 535 -615 l 1
EndSplineSet
Validated: 3073
EndChar

StartChar: rightanglene
Encoding: 9488 9488 531
Width: 1229
Flags: W
HStem: 443 160<0 535>
VStem: 535 160<-615 443>
LayerCount: 2
Fore
SplineSet
535 443 m 1
 0 443 l 1
 -0 603 l 1
 695 603 l 1
 695 -615 l 1
 535 -615 l 1
 535 443 l 1
EndSplineSet
Validated: 3073
EndChar

StartChar: rightanglesw
Encoding: 9492 9492 532
Width: 1229
Flags: W
HStem: 443 160<695 1229>
VStem: 535 160<603 1775>
LayerCount: 2
Fore
SplineSet
695 603 m 1
 1229 603 l 1
 1229 443 l 1
 535 443 l 1
 535 1775 l 1
 695 1775 l 1
 695 603 l 1
EndSplineSet
Validated: 3073
EndChar

StartChar: rightanglese
Encoding: 9496 9496 533
Width: 1229
Flags: W
HStem: 443 160<0 535>
VStem: 535 160<603 1775>
LayerCount: 2
Fore
SplineSet
695 1775 m 1
 695 443 l 1
 0 443 l 1
 -0 603 l 1
 535 603 l 1
 535 1775 l 1
 695 1775 l 1
EndSplineSet
Validated: 3073
EndChar

StartChar: ltvertrightform
Encoding: 9500 9500 534
Width: 1229
Flags: W
HStem: 443 160<695 1229>
VStem: 535 160<-615 443 603 1775>
LayerCount: 2
Fore
SplineSet
695 -615 m 1
 535 -615 l 1
 535 1775 l 1
 695 1775 l 1
 695 603 l 1
 1229 603 l 1
 1229 443 l 1
 695 443 l 1
 695 -615 l 1
EndSplineSet
Validated: 3073
EndChar

StartChar: ltvertleftform
Encoding: 9508 9508 535
Width: 1229
Flags: W
HStem: 443 160<0 535>
VStem: 535 160<-615 443 603 1775>
LayerCount: 2
Fore
SplineSet
0 443 m 1
 -0 603 l 1
 535 603 l 1
 535 1775 l 1
 695 1775 l 1
 695 -615 l 1
 535 -615 l 1
 535 443 l 1
 0 443 l 1
EndSplineSet
Validated: 3073
EndChar

StartChar: ltdnhorizform
Encoding: 9516 9516 536
Width: 1229
Flags: W
HStem: 443 160<0 535 695 1229>
VStem: 535 160<-615 443>
LayerCount: 2
Fore
SplineSet
0 443 m 1
 -0 603 l 1
 1229 603 l 1
 1229 443 l 1
 695 443 l 1
 695 -615 l 1
 535 -615 l 1
 535 443 l 1
 0 443 l 1
EndSplineSet
Validated: 3073
EndChar

StartChar: ltuphorizform
Encoding: 9524 9524 537
Width: 1229
Flags: W
HStem: 443 160<0 535 695 1229>
VStem: 535 160<603 1775>
LayerCount: 2
Fore
SplineSet
0 443 m 1
 -0 603 l 1
 535 603 l 1
 535 1775 l 1
 695 1775 l 1
 695 603 l 1
 1229 603 l 1
 1229 443 l 1
 0 443 l 1
EndSplineSet
Validated: 3073
EndChar

StartChar: ltverthorizform
Encoding: 9532 9532 538
Width: 1229
Flags: W
HStem: 443 160<0 535 695 1229>
VStem: 535 160<-615 443 603 1775>
LayerCount: 2
Fore
SplineSet
0 443 m 1
 -0 603 l 1
 535 603 l 1
 535 1775 l 1
 695 1775 l 1
 695 603 l 1
 1229 603 l 1
 1229 443 l 1
 695 443 l 1
 695 -615 l 1
 535 -615 l 1
 535 443 l 1
 0 443 l 1
EndSplineSet
Validated: 3073
EndChar

StartChar: horizdblbar
Encoding: 9552 9552 539
Width: 1229
Flags: W
HStem: 283 160<0 1229> 635 160<0 1229>
LayerCount: 2
Fore
SplineSet
0 635 m 1
 -0 795 l 1
 1229 795 l 1
 1229 635 l 1
 0 635 l 1
0 283 m 1
 -0 443 l 1
 1229 443 l 1
 1229 283 l 1
 0 283 l 1
EndSplineSet
Validated: 3073
EndChar

StartChar: vertdblbar
Encoding: 9553 9553 540
Width: 1229
Flags: W
VStem: 375 160<-615 1775> 695 160<-615 1775>
LayerCount: 2
Fore
SplineSet
855 -615 m 1
 695 -615 l 1
 695 1775 l 1
 855 1775 l 1
 855 -615 l 1
535 -615 m 1
 375 -615 l 1
 375 1775 l 1
 535 1775 l 1
 535 -615 l 1
EndSplineSet
Validated: 3073
EndChar

StartChar: dnrtdblform
Encoding: 9554 9554 541
Width: 1229
Flags: W
HStem: 283 160<695 1229> 635 160<695 1229>
VStem: 535 160<-615 283 443 635>
LayerCount: 2
Fore
SplineSet
695 283 m 1
 695 -615 l 1
 535 -615 l 1
 535 795 l 1
 1229 795 l 1
 1229 635 l 1
 695 635 l 1
 695 443 l 1
 1229 443 l 1
 1229 283 l 1
 695 283 l 1
EndSplineSet
Validated: 3073
EndChar

StartChar: dndblrtform
Encoding: 9555 9555 542
Width: 1229
Flags: W
HStem: 443 160<535 695 855 1229>
VStem: 375 160<-615 443> 695 160<-615 443>
LayerCount: 2
Fore
SplineSet
855 -615 m 1
 695 -615 l 1
 695 443 l 1
 535 443 l 1
 535 -615 l 1
 375 -615 l 1
 375 603 l 1
 1229 603 l 1
 1229 443 l 1
 855 443 l 1
 855 -615 l 1
EndSplineSet
Validated: 3073
EndChar

StartChar: dbldnrtform
Encoding: 9556 9556 543
Width: 1229
Flags: W
HStem: 283 160<855 1229> 635 160<535 1229>
VStem: 375 160<-615 635> 695 160<-615 283>
LayerCount: 2
Fore
SplineSet
535 635 m 1
 535 -615 l 1
 375 -615 l 1
 375 795 l 1
 1229 795 l 1
 1229 635 l 1
 535 635 l 1
855 283 m 1
 855 -615 l 1
 695 -615 l 1
 695 443 l 1
 1229 443 l 1
 1229 283 l 1
 855 283 l 1
EndSplineSet
Validated: 3073
EndChar

StartChar: dnleftdblform
Encoding: 9557 9557 544
Width: 1229
Flags: W
HStem: 283 160<0 535> 635 160<0 535>
VStem: 535 160<-615 283 443 635>
LayerCount: 2
Fore
SplineSet
0 795 m 1
 695 795 l 1
 695 -615 l 1
 535 -615 l 1
 535 283 l 1
 0 283 l 1
 -0 443 l 1
 535 443 l 1
 535 635 l 1
 -0 635 l 1
 0 795 l 1
EndSplineSet
Validated: 3073
EndChar

StartChar: dndblleftform
Encoding: 9558 9558 545
Width: 1229
Flags: W
HStem: 443 160<0 375 535 695>
VStem: 375 160<-615 443> 695 160<-615 443>
LayerCount: 2
Fore
SplineSet
535 -615 m 1
 375 -615 l 1
 375 443 l 1
 0 443 l 1
 -0 603 l 1
 855 603 l 1
 855 -615 l 1
 695 -615 l 1
 695 443 l 1
 535 443 l 1
 535 -615 l 1
EndSplineSet
Validated: 3073
EndChar

StartChar: dbldnleftform
Encoding: 9559 9559 546
Width: 1229
Flags: W
HStem: 283 160<0 375> 635 160<0 695>
VStem: 375 160<-615 283> 695 160<-615 635>
LayerCount: 2
Fore
SplineSet
0 795 m 1
 855 795 l 1
 855 -615 l 1
 695 -615 l 1
 695 635 l 1
 -0 635 l 1
 0 795 l 1
0 443 m 1
 535 443 l 1
 535 -615 l 1
 375 -615 l 1
 375 283 l 1
 -0 283 l 1
 0 443 l 1
EndSplineSet
Validated: 3073
EndChar

StartChar: uprtdblform
Encoding: 9560 9560 547
Width: 1229
Flags: W
HStem: 283 160<695 1229> 603 160<695 1229>
VStem: 535 160<443 603 763 1775>
LayerCount: 2
Fore
SplineSet
1229 283 m 1
 535 283 l 1
 535 1775 l 1
 695 1775 l 1
 695 763 l 1
 1229 763 l 1
 1229 603 l 1
 695 603 l 1
 695 443 l 1
 1229 443 l 1
 1229 283 l 1
EndSplineSet
Validated: 3073
EndChar

StartChar: updblrtform
Encoding: 9561 9561 548
Width: 1229
Flags: W
HStem: 443 160<535 695 855 1229>
VStem: 375 160<603 1775> 695 160<603 1775>
LayerCount: 2
Fore
SplineSet
855 603 m 1
 1229 603 l 1
 1229 443 l 1
 375 443 l 1
 375 1775 l 1
 535 1775 l 1
 535 603 l 1
 695 603 l 1
 695 1775 l 1
 855 1775 l 1
 855 603 l 1
EndSplineSet
Validated: 3073
EndChar

StartChar: dbluprtform
Encoding: 9562 9562 549
Width: 1229
Flags: W
HStem: 283 160<535 1229> 635 160<855 1229>
VStem: 375 160<443 1775> 695 160<795 1775>
LayerCount: 2
Fore
SplineSet
1229 635 m 1
 695 635 l 1
 695 1775 l 1
 855 1775 l 1
 855 795 l 1
 1229 795 l 1
 1229 635 l 1
1229 283 m 1
 375 283 l 1
 375 1775 l 1
 535 1775 l 1
 535 443 l 1
 1229 443 l 1
 1229 283 l 1
EndSplineSet
Validated: 3073
EndChar

StartChar: upleftdblform
Encoding: 9563 9563 550
Width: 1229
Flags: W
HStem: 283 160<0 535> 603 160<0 535>
VStem: 535 160<443 603 763 1775>
LayerCount: 2
Fore
SplineSet
0 603 m 1
 -0 763 l 1
 535 763 l 1
 535 1775 l 1
 695 1775 l 1
 695 283 l 1
 -0 283 l 1
 0 443 l 1
 535 443 l 1
 535 603 l 1
 0 603 l 1
EndSplineSet
Validated: 3073
EndChar

StartChar: updblleftform
Encoding: 9564 9564 551
Width: 1229
Flags: W
HStem: 443 160<0 375 535 695>
VStem: 375 160<603 1775> 695 160<603 1775>
LayerCount: 2
Fore
SplineSet
855 1775 m 1
 855 443 l 1
 0 443 l 1
 -0 603 l 1
 375 603 l 1
 375 1775 l 1
 535 1775 l 1
 535 603 l 1
 695 603 l 1
 695 1775 l 1
 855 1775 l 1
EndSplineSet
Validated: 3073
EndChar

StartChar: dblupleftform
Encoding: 9565 9565 552
Width: 1229
Flags: W
HStem: 283 160<0 695> 635 160<0 375>
VStem: 375 160<795 1775> 695 160<443 1775>
LayerCount: 2
Fore
SplineSet
375 795 m 1
 375 1775 l 1
 535 1775 l 1
 535 635 l 1
 -0 635 l 1
 0 795 l 1
 375 795 l 1
695 443 m 1
 695 1775 l 1
 855 1775 l 1
 855 283 l 1
 -0 283 l 1
 0 443 l 1
 695 443 l 1
EndSplineSet
Validated: 3073
EndChar

